{
.appVersion = "1268";
classes = (
{
automatic = 1;
code = "A Aacute Abreve Acircumflex Adieresis Agrave Amacron Aogonek Aring Atilde AE B C Cacute Ccaron Ccedilla Cdotaccent D Eth Dcaron Dcroat E Eacute Ecaron Ecircumflex Edieresis Edotaccent Egrave Emacron Eogonek F G Gbreve Gcommaaccent Gdotaccent H Hbar I Iacute Icircumflex Idieresis Idotaccent Igrave Imacron Iogonek J K Kcommaaccent L Lacute Lcaron Lcommaaccent Lslash M N Nacute Ncaron Ncommaaccent Eng Ntilde O Oacute Ocircumflex Odieresis Ograve Ohungarumlaut Omacron Oslash Otilde OE P Thorn Q R Racute Rcaron Rcommaaccent S Sacute Scaron Scedilla Scommaaccent Germandbls T Tbar Tcaron Tcedilla Tcommaaccent U Uacute Ucircumflex Udieresis Ugrave Uhungarumlaut Umacron Uogonek Uring V W Wacute Wcircumflex Wdieresis Wgrave X Y Yacute Ycircumflex Ydieresis Ygrave Z Zacute Zcaron Zdotaccent A-cy Be-cy Ve-cy Ge-cy Gje-cy Gheupturn-cy De-cy Ie-cy Iegrave-cy Io-cy Zhe-cy Ze-cy Ii-cy Iishort-cy Iigrave-cy Ka-cy Kje-cy El-cy Em-cy En-cy O-cy Pe-cy Er-cy Es-cy Te-cy U-cy Ushort-cy Ef-cy Ha-cy Che-cy Tse-cy Sha-cy Shcha-cy Dzhe-cy Softsign-cy Hardsign-cy Yeru-cy Lje-cy Nje-cy Dze-cy E-cy Ereversed-cy I-cy Yi-cy Je-cy Tshe-cy Iu-cy Ia-cy Dje-cy Ustrait-cy Shha-cy Obarred-cy De-cy.loclBGR Zhe-cy.loclBGR Ka-cy.loclBGR El-cy.loclBGR Alpha Beta Gamma Delta Epsilon Zeta Eta Theta Iota Kappa Lambda Mu Nu Xi Omicron Pi Rho Sigma Tau Upsilon Phi Chi Psi Omega Alphatonos Epsilontonos Etatonos Iotatonos Omicrontonos Upsilontonos Omegatonos Iotadieresis Upsilondieresis";
name = Uppercase;
},
{
automatic = 1;
code = "zero one two three four five six seven eight nine";
name = Digit;
}
);
copyright = "Copyright 2019 The Manrope Project Authors (https://github.com/sharanda/manrope)";
customParameters = (
{
name = license;
value = "This Font Software is licensed under the SIL Open Font License, Version 1.1. This license is available with a FAQ at: http://scripts.sil.org/OFL";
},
{
name = licenseURL;
value = "http://scripts.sil.org/OFL";
},

glyphs = (
{
glyphname = A;
lastChange = "2019-11-12 02:41:12 +0000";
layers = (
{
layerId = "CAA188E2-8C62-414B-93AE-B576BEB044DB";
paths = (
{
closed = 1;
nodes = (
"65 0 LINE",
"319 701 LINE",
"289 701 LINE",
"544 0 LINE",
"589 0 LINE",
"327 720 LINE",
"282 720 LINE",
"20 0 LINE"
);
},
{
closed = 1;
nodes = (
"488 187 LINE",
"488 227 LINE",
"120 227 LINE",
"120 187 LINE"
);
}
);
width = 609;
},
{
layerId = "0DA27741-1AFD-43F2-A947-40AFBF8D6498";
paths = (
{
closed = 1;
nodes = (
"160 0 LINE",
"353 635 LINE",
"327 635 LINE",
"523 0 LINE",
"663 0 LINE",
"443 720 LINE",
"240 720 LINE",
"20 0 LINE"
);
},
{
closed = 1;
nodes = (
"532 150 LINE",
"532 277 LINE",
"152 277 LINE",
"152 150 LINE"
);
}
);
width = 683;
},
{
associatedMasterId = "0DA27741-1AFD-43F2-A947-40AFBF8D6498";
layerId = "A2873047-0ED6-4C67-9B4D-3870B51BD5C6";
paths = (
{
closed = 1;
nodes = (
"5 0 LINE",
"155 0 LINE",
"183 90 LINE",
"476 90 LINE",
"504 0 LINE",
"654 0 LINE",
"434 720 LINE",
"225 720 LINE"
);
},
{
closed = 1;
nodes = (
"330 570 LINE",
"431 240 LINE",
"229 240 LINE"
);
}
);
width = 659;
},
{
associatedMasterId = "0DA27741-1AFD-43F2-A947-40AFBF8D6498";
layerId = "55314CA7-5524-4D70-B802-98D4FAE25636";
width = 493;
},
{
associatedMasterId = "0DA27741-1AFD-43F2-A947-40AFBF8D6498";
layerId = "13A3DD5D-E91B-4961-8595-F8141D3FA442";
width = 632;
}
);
leftKerningGroup = A;
note = A;
rightKerningGroup = A;
unicode = 0041;
},
{
glyphname = AE;
lastChange = "2019-11-26 07:00:14 +0000";
layers = (
{
components = (
{
name = E;
transform = "{1, 0, 0, 1, 345, 0}";
}
);
layerId = "CAA188E2-8C62-414B-93AE-B576BEB044DB";
paths = (
{
closed = 1;
nodes = (
"65 0 LINE",
"318 699 LINE",
"286.005 678 LINE",
"435 678 LINE",
"435 720 LINE",
"282 720 LINE",
"20 0 LINE"
);
},
{
closed = 1;
nodes = (
"438 187 LINE",
"438 227 LINE",
"120 227 LINE",
"120 187 LINE"
);
}
);
width = 905;
},
{
components = (
{
name = E;
transform = "{1, 0, 0, 1, 355, 0}";
}
);
layerId = "0DA27741-1AFD-43F2-A947-40AFBF8D6498";
paths = (
{
closed = 1;
nodes = (
"160 0 LINE",
"353 636 LINE",
"295 593 LINE",
"470 593 LINE",
"470 720 LINE",
"240 720 LINE",
"20 0 LINE"
);
},
{
closed = 1;
nodes = (
"532 150 LINE",
"532 277 LINE",
"152 277 LINE",
"152 150 LINE"
);
}
);
width = 945;
},
{
associatedMasterId = "0DA27741-1AFD-43F2-A947-40AFBF8D6498";
layerId = "A2873047-0ED6-4C67-9B4D-3870B51BD5C6";
width = 600;
},
{
associatedMasterId = "0DA27741-1AFD-43F2-A947-40AFBF8D6498";
layerId = "55314CA7-5524-4D70-B802-98D4FAE25636";
width = 938;
},
{
associatedMasterId = "0DA27741-1AFD-43F2-A947-40AFBF8D6498";
layerId = "13A3DD5D-E91B-4961-8595-F8141D3FA442";
width = 654;
}
);
leftKerningGroup = A;
leftMetricsKey = A;
rightKerningGroup = E;
rightMetricsKey = E;
unicode = 00C6;
},
{
glyphname = B;
lastChange = "2019-11-12 02:41:12 +0000";
layers = (
{
background = {
paths = (
{
closed = 1;
nodes = (
"343 400 LINE SMOOTH",
"387 400 OFFCURVE",
"437 422 OFFCURVE",
"464 462 CURVE SMOOTH",
"482 488 OFFCURVE",
"491 519 OFFCURVE",
"491 550 CURVE SMOOTH",
"491 584 OFFCURVE",
"478 613 OFFCURVE",
"455 636 CURVE SMOOTH",
"427 664 OFFCURVE",
"387 679 OFFCURVE",
"343 679 CURVE",
"110 679 LINE",
"110 720 LINE",
"343 720 LINE",
"402 720 OFFCURVE",
"449 699 OFFCURVE",
"488 662 CURVE SMOOTH",
"519 632 OFFCURVE",
"536 582 OFFCURVE",
"536 540 CURVE SMOOTH",
"536 502 OFFCURVE",
"523 467 OFFCURVE",
"501 436 CURVE SMOOTH",
"467 388 OFFCURVE",
"415 359 OFFCURVE",
"348 359 CURVE",
"110 359 LINE",
"110 400 LINE"
);
},
{
closed = 1;
nodes = (
"342 42 LINE",
"403 42 OFFCURVE",
"442 51 OFFCURVE",
"487 94 CURVE SMOOTH",
"514 120 OFFCURVE",
"526 153 OFFCURVE",
"526 190 CURVE SMOOTH",
"526 225 OFFCURVE",
"516 260 OFFCURVE",
"496 288 CURVE SMOOTH",
"468 332 OFFCURVE",
"408 359 OFFCURVE",
"362 359 CURVE",
"110 359 LINE",
"110 399 LINE",
"362 399 LINE",
"434 399 OFFCURVE",
"493 368 OFFCURVE",
"531 315 CURVE SMOOTH",
"559 280 OFFCURVE",
"574 234 OFFCURVE",
"571 190 CURVE SMOOTH",
"568 146 OFFCURVE",
"554 99 OFFCURVE",
"526 68 CURVE SMOOTH",
"477 15 OFFCURVE",
"433 0 OFFCURVE",
"343 0 CURVE",
"90 0 LINE",
"90 42 LINE"
);
},
{
closed = 1;
nodes = (
"112 720 LINE",
"112 0 LINE",
"70 0 LINE",
"70 720 LINE"
);
}
);
};
layerId = "CAA188E2-8C62-414B-93AE-B576BEB044DB";
paths = (
{
closed = 1;
nodes = (
"362 0 LINE SMOOTH",
"479 0 OFFCURVE",
"572 71 OFFCURVE",
"572 194 CURVE SMOOTH",
"572 296 OFFCURVE",
"509 364 OFFCURVE",
"414 395 CURVE",
"416 371 LINE",
"488 397 OFFCURVE",
"536 467 OFFCURVE",
"536 543 CURVE SMOOTH",
"536 648 OFFCURVE",
"447 720 OFFCURVE",
"343 720 CURVE SMOOTH",
"70 720 LINE",
"70 0 LINE"
);
},
{
closed = 1;
nodes = (
"112 359 LINE",
"362 359 LINE SMOOTH",
"452 359 OFFCURVE",
"526 284 OFFCURVE",
"526 190 CURVE SMOOTH",
"526 96 OFFCURVE",
"446 42 OFFCURVE",
"342 42 CURVE SMOOTH",
"112 42 LINE"
);
},
{
closed = 1;
nodes = (
"112 679 LINE",
"343 679 LINE SMOOTH",
"426 679 OFFCURVE",
"491 626 OFFCURVE",
"491 546 CURVE SMOOTH",
"491 464 OFFCURVE",
"424 400 OFFCURVE",
"343 400 CURVE SMOOTH",
"112 400 LINE"
);
}
);
width = 601;
},
{
background = {
paths = (
{
closed = 1;
nodes = (
"356 439 LINE SMOOTH",
"386 439 OFFCURVE",
"404 448 OFFCURVE",
"419 463 CURVE SMOOTH",
"433 477 OFFCURVE",
"436 496 OFFCURVE",
"436 515 CURVE SMOOTH",
"436 535 OFFCURVE",
"430 556 OFFCURVE",
"414 572 CURVE SMOOTH",
"399 587 OFFCURVE",
"380 593 OFFCURVE",
"356 593 CURVE SMOOTH",
"195 593 LINE",
"195 720 LINE",
"357 720 LINE SMOOTH",
"420 720 OFFCURVE",
"468 707 OFFCURVE",
"511 667 CURVE SMOOTH",
"555 626 OFFCURVE",
"573 575 OFFCURVE",
"574 515 CURVE SMOOTH",
"575 463 OFFCURVE",
"553 416 OFFCURVE",
"522 391 CURVE SMOOTH",
"488 363 OFFCURVE",
"443 352 OFFCURVE",
"397 352 CURVE SMOOTH",
"175 352 LINE",
"175 439 LINE"
);
},
{
closed = 1;
nodes = (
"375 128 LINE SMOOTH",
"404 128 OFFCURVE",
"425 137 OFFCURVE",
"443 154 CURVE SMOOTH",
"461 171 OFFCURVE",
"470 194 OFFCURVE",
"470 220 CURVE SMOOTH",
"470 244 OFFCURVE",
"463 270 OFFCURVE",
"445 288 CURVE SMOOTH",
"424 309 OFFCURVE",
"396 312 OFFCURVE",
"375 312 CURVE SMOOTH",
"188 312 LINE",
"188 398 LINE",
"394 398 LINE SMOOTH",
"441 398 OFFCURVE",
"507 388 OFFCURVE",
"550 352 CURVE SMOOTH",
"585 322 OFFCURVE",
"607 270 OFFCURVE",
"607 220 CURVE SMOOTH",
"607 155 OFFCURVE",
"590 95 OFFCURVE",
"545 53 CURVE SMOOTH",
"503 14 OFFCURVE",
"460 0 OFFCURVE",
"374 0 CURVE SMOOTH",
"188 0 LINE",
"188 128 LINE"
);
},
{
closed = 1;
nodes = (
"208 720 LINE",
"208 0 LINE",
"70 0 LINE",
"70 720 LINE"
);
}
);
};
layerId = "0DA27741-1AFD-43F2-A947-40AFBF8D6498";
paths = (
{
closed = 1;
nodes = (
"389 0 LINE SMOOTH",
"536 0 OFFCURVE",
"607 89 OFFCURVE",
"607 218 CURVE SMOOTH",
"607 298 OFFCURVE",
"562 370 OFFCURVE",
"472 389 CURVE",
"472 364 LINE",
"535 382 OFFCURVE",
"574 437 OFFCURVE",
"574 518 CURVE SMOOTH",
"574 613 OFFCURVE",
"512 720 OFFCURVE",
"358 720 CURVE SMOOTH",
"70 720 LINE",
"70 0 LINE"
);
},
{
closed = 1;
nodes = (
"208 312 LINE",
"375 312 LINE SMOOTH",
"438 312 OFFCURVE",
"470 274 OFFCURVE",
"470 223 CURVE SMOOTH",
"470 165 OFFCURVE",
"430 128 OFFCURVE",
"375 128 CURVE SMOOTH",
"208 128 LINE"
);
},
{
closed = 1;
nodes = (
"208 593 LINE",
"356 593 LINE SMOOTH",
"408 593 OFFCURVE",
"436 559 OFFCURVE",
"436 515 CURVE SMOOTH",
"436 462 OFFCURVE",
"402 439 OFFCURVE",
"356 439 CURVE SMOOTH",
"208 439 LINE"
);
}
);
width = 637;
},
{
associatedMasterId = "0DA27741-1AFD-43F2-A947-40AFBF8D6498";
layerId = "A2873047-0ED6-4C67-9B4D-3870B51BD5C6";
width = 600;
},
{
associatedMasterId = "0DA27741-1AFD-43F2-A947-40AFBF8D6498";
layerId = "55314CA7-5524-4D70-B802-98D4FAE25636";
width = 606;
},
{
associatedMasterId = "0DA27741-1AFD-43F2-A947-40AFBF8D6498";
layerId = "13A3DD5D-E91B-4961-8595-F8141D3FA442";
width = 601;
}
);
leftKerningGroup = B;
leftMetricsKey = H;
note = B;
rightKerningGroup = B;
unicode = 0042;
},
{
glyphname = C;
lastChange = "2019-11-12 02:41:12 +0000";
layers = (
{
layerId = "CAA188E2-8C62-414B-93AE-B576BEB044DB";
paths = (
{
closed = 1;
nodes = (
"521 -15 OFFCURVE",
"624 80 OFFCURVE",
"660 226 CURVE",
"616 236 LINE",
"584 109 OFFCURVE",
"496 27 OFFCURVE",
"353 27 CURVE SMOOTH",
"168 27 OFFCURVE",
"73 165 OFFCURVE",
"75 360 CURVE SMOOTH",
"77 555 OFFCURVE",
"168 693 OFFCURVE",
"353 693 CURVE SMOOTH",
"496 693 OFFCURVE",
"584 611 OFFCURVE",
"616 484 CURVE",
"660 494 LINE",
"624 640 OFFCURVE",
"521 735 OFFCURVE",
"353 735 CURVE SMOOTH",
"138 735 OFFCURVE",
"30 580 OFFCURVE",
"30 360 CURVE SMOOTH",
"30 140 OFFCURVE",
"138 -15 OFFCURVE",
"353 -15 CURVE SMOOTH"
);
}
);
width = 700;
},
{
layerId = "0DA27741-1AFD-43F2-A947-40AFBF8D6498";
paths = (
{
closed = 1;
nodes = (
"544 -15 OFFCURVE",
"660 73 OFFCURVE",
"706 213 CURVE",
"569 251 LINE",
"542 164 OFFCURVE",
"479 113 OFFCURVE",
"379 113 CURVE SMOOTH",
"242 113 OFFCURVE",
"173 210 OFFCURVE",
"173 360 CURVE SMOOTH",
"173 510 OFFCURVE",
"242 607 OFFCURVE",
"379 607 CURVE SMOOTH",
"479 607 OFFCURVE",
"542 556 OFFCURVE",
"569 469 CURVE",
"706 507 LINE",
"660 647 OFFCURVE",
"544 735 OFFCURVE",
"379 735 CURVE SMOOTH",
"163 735 OFFCURVE",
"30 584 OFFCURVE",
"30 360 CURVE SMOOTH",
"30 136 OFFCURVE",
"163 -15 OFFCURVE",
"379 -15 CURVE SMOOTH"
);
}
);
width = 746;
},
{
associatedMasterId = "0DA27741-1AFD-43F2-A947-40AFBF8D6498";
layerId = "A2873047-0ED6-4C67-9B4D-3870B51BD5C6";
width = 600;
},
{
associatedMasterId = "0DA27741-1AFD-43F2-A947-40AFBF8D6498";
layerId = "55314CA7-5524-4D70-B802-98D4FAE25636";
width = 718;
},
{
associatedMasterId = "0DA27741-1AFD-43F2-A947-40AFBF8D6498";
layerId = "13A3DD5D-E91B-4961-8595-F8141D3FA442";
width = 619;
}
);
leftKerningGroup = C;
leftMetricsKey = O;
note = C;
rightKerningGroup = C;
unicode = 0043;
},
{
glyphname = D;
lastChange = "2019-11-12 02:41:12 +0000";
layers = (
{
background = {
paths = (
{
closed = 1;
nodes = (
"281 0 LINE SMOOTH",
"297 0 OFFCURVE",
"343 0 OFFCURVE",
"377 5 CURVE SMOOTH",
"536 28 OFFCURVE",
"612 175 OFFCURVE",
"612 360 CURVE SMOOTH",
"612 544 OFFCURVE",
"536 692 OFFCURVE",
"377 715 CURVE SMOOTH",
"342 720 OFFCURVE",
"298 720 OFFCURVE",
"281 720 CURVE SMOOTH",
"70 720 LINE",
"70 0 LINE"
);
},
{
closed = 1;
nodes = (
"115 678 LINE",
"281 678 LINE SMOOTH",
"313 678 OFFCURVE",
"348 676 OFFCURVE",
"370 672 CURVE SMOOTH",
"512 648 OFFCURVE",
"567 524 OFFCURVE",
"567 360 CURVE SMOOTH",
"567 196 OFFCURVE",
"512 72 OFFCURVE",
"370 48 CURVE SMOOTH",
"348 44 OFFCURVE",
"313 42 OFFCURVE",
"281 42 CURVE SMOOTH",
"115 42 LINE"
);
}
);
};
layerId = "CAA188E2-8C62-414B-93AE-B576BEB044DB";
paths = (
{
closed = 1;
nodes = (
"281 0 LINE SMOOTH",
"297 0 OFFCURVE",
"343 0 OFFCURVE",
"377 5 CURVE SMOOTH",
"536 28 OFFCURVE",
"612 175 OFFCURVE",
"612 360 CURVE SMOOTH",
"612 544 OFFCURVE",
"536 692 OFFCURVE",
"377 715 CURVE SMOOTH",
"342 720 OFFCURVE",
"298 720 OFFCURVE",
"281 720 CURVE SMOOTH",
"70 720 LINE",
"70 0 LINE"
);
},
{
closed = 1;
nodes = (
"115 678 LINE",
"281 678 LINE SMOOTH",
"311 678 OFFCURVE",
"348 676 OFFCURVE",
"370 672 CURVE SMOOTH",
"512 648 OFFCURVE",
"567 524 OFFCURVE",
"567 360 CURVE SMOOTH",
"567 196 OFFCURVE",
"512 72 OFFCURVE",
"370 48 CURVE SMOOTH",
"348 44 OFFCURVE",
"313 42 OFFCURVE",
"281 42 CURVE SMOOTH",
"115 42 LINE"
);
}
);
width = 652;
},
{
background = {
paths = (
{
closed = 1;
nodes = (
"303 0 LINE SMOOTH",
"314 0 OFFCURVE",
"356 0 OFFCURVE",
"389 4 CURVE SMOOTH",
"563 25 OFFCURVE",
"660 177 OFFCURVE",
"660 360 CURVE SMOOTH",
"660 543 OFFCURVE",
"563 695 OFFCURVE",
"389 716 CURVE SMOOTH",
"356 720 OFFCURVE",
"314 720 OFFCURVE",
"303 720 CURVE SMOOTH",
"70 720 LINE",
"70 0 LINE"
);
},
{
closed = 1;
nodes = (
"208 592 LINE",
"303 592 LINE SMOOTH",
"321 592 OFFCURVE",
"356 592 OFFCURVE",
"381 587 CURVE SMOOTH",
"472 569 OFFCURVE",
"516 468 OFFCURVE",
"516 360 CURVE SMOOTH",
"516 257 OFFCURVE",
"475 152 OFFCURVE",
"381 133 CURVE SMOOTH",
"356 128 OFFCURVE",
"321 128 OFFCURVE",
"303 128 CURVE SMOOTH",
"208 128 LINE"
);
}
);
};
layerId = "0DA27741-1AFD-43F2-A947-40AFBF8D6498";
paths = (
{
closed = 1;
nodes = (
"303 0 LINE SMOOTH",
"314 0 OFFCURVE",
"356 0 OFFCURVE",
"389 4 CURVE SMOOTH",
"563 25 OFFCURVE",
"660 177 OFFCURVE",
"660 360 CURVE SMOOTH",
"660 543 OFFCURVE",
"563 695 OFFCURVE",
"389 716 CURVE SMOOTH",
"356 720 OFFCURVE",
"314 720 OFFCURVE",
"303 720 CURVE SMOOTH",
"70 720 LINE",
"70 0 LINE"
);
},
{
closed = 1;
nodes = (
"208 592 LINE",
"303 592 LINE SMOOTH",
"321 592 OFFCURVE",
"356 592 OFFCURVE",
"381 587 CURVE SMOOTH",
"472 569 OFFCURVE",
"516 468 OFFCURVE",
"516 360 CURVE SMOOTH",
"516 257 OFFCURVE",
"475 152 OFFCURVE",
"381 133 CURVE SMOOTH",
"356 128 OFFCURVE",
"321 128 OFFCURVE",
"303 128 CURVE SMOOTH",
"208 128 LINE"
);
}
);
width = 710;
},
{
associatedMasterId = "0DA27741-1AFD-43F2-A947-40AFBF8D6498";
layerId = "A2873047-0ED6-4C67-9B4D-3870B51BD5C6";
width = 600;
},
{
associatedMasterId = "0DA27741-1AFD-43F2-A947-40AFBF8D6498";
layerId = "55314CA7-5524-4D70-B802-98D4FAE25636";
width = 663;
},
{
associatedMasterId = "0DA27741-1AFD-43F2-A947-40AFBF8D6498";
layerId = "13A3DD5D-E91B-4961-8595-F8141D3FA442";
width = 610;
}
);
leftMetricsKey = H;
note = D;
rightKerningGroup = D;
unicode = 0044;
},
{
glyphname = Eth;
lastChange = "2019-11-12 02:41:12 +0000";
layers = (
{
components = (
{
name = D;
transform = "{1, 0, 0, 1, -11, 0}";
}
);
layerId = "CAA188E2-8C62-414B-93AE-B576BEB044DB";
paths = (
{
closed = 1;
nodes = (
"310 339 LINE",
"310 381 LINE",
"10 381 LINE",
"10 339 LINE"
);
}
);
width = 641;
},
{
components = (
{
name = D;
transform = "{1, 0, 0, 1, 4, 0}";
}
);
layerId = "0DA27741-1AFD-43F2-A947-40AFBF8D6498";
paths = (
{
closed = 1;
nodes = (
"355 308 LINE",
"355 413 LINE",
"10 413 LINE",
"10 308 LINE"
);
}
);
width = 714;
},
{
associatedMasterId = "0DA27741-1AFD-43F2-A947-40AFBF8D6498";
layerId = "A2873047-0ED6-4C67-9B4D-3870B51BD5C6";
width = 600;
},
{
associatedMasterId = "0DA27741-1AFD-43F2-A947-40AFBF8D6498";
layerId = "55314CA7-5524-4D70-B802-98D4FAE25636";
width = 711;
},
{
associatedMasterId = "0DA27741-1AFD-43F2-A947-40AFBF8D6498";
layerId = "13A3DD5D-E91B-4961-8595-F8141D3FA442";
width = 618;
}
);
leftKerningGroup = D;
leftMetricsKey = t;
rightKerningGroup = D;
rightMetricsKey = D;
unicode = 00D0;
},
{
glyphname = E;
lastChange = "2019-11-12 02:41:12 +0000";
layers = (
{
layerId = "CAA188E2-8C62-414B-93AE-B576BEB044DB";
paths = (
{
closed = 1;
nodes = (
"510 0 LINE",
"510 42 LINE",
"112 42 LINE",
"112 339 LINE",
"450 339 LINE",
"450 381 LINE",
"112 381 LINE",
"112 678 LINE",
"510 678 LINE",
"510 720 LINE",
"70 720 LINE",
"70 0 LINE"
);
}
);
width = 560;
},
{
layerId = "0DA27741-1AFD-43F2-A947-40AFBF8D6498";
paths = (
{
closed = 1;
nodes = (
"540 0 LINE",
"540 127 LINE",
"206 127 LINE",
"206 312 LINE",
"480 312 LINE",
"480 439 LINE",
"206 439 LINE",
"206 593 LINE",
"540 593 LINE",
"540 720 LINE",
"70 720 LINE",
"70 0 LINE"
);
}
);
width = 590;
},
{
associatedMasterId = "0DA27741-1AFD-43F2-A947-40AFBF8D6498";
layerId = "A2873047-0ED6-4C67-9B4D-3870B51BD5C6";
width = 600;
},
{
associatedMasterId = "0DA27741-1AFD-43F2-A947-40AFBF8D6498";
layerId = "55314CA7-5524-4D70-B802-98D4FAE25636";
width = 563;
},
{
associatedMasterId = "0DA27741-1AFD-43F2-A947-40AFBF8D6498";
layerId = "13A3DD5D-E91B-4961-8595-F8141D3FA442";
width = 594;
}
);
leftMetricsKey = H;
note = E;
unicode = 0045;
},
{
glyphname = F;
lastChange = "2019-11-12 02:41:12 +0000";
layers = (
{
layerId = "CAA188E2-8C62-414B-93AE-B576BEB044DB";
paths = (
{
closed = 1;
nodes = (
"112 0 LINE",
"112 339 LINE",
"410 339 LINE",
"410 381 LINE",
"112 381 LINE",
"112 678 LINE",
"470 678 LINE",
"470 720 LINE",
"70 720 LINE",
"70 0 LINE"
);
}
);
width = 490;
},
{
layerId = "0DA27741-1AFD-43F2-A947-40AFBF8D6498";
paths = (
{
closed = 1;
nodes = (
"206 0 LINE",
"206 292 LINE",
"450 292 LINE",
"450 428 LINE",
"206 428 LINE",
"206 584 LINE",
"510 584 LINE",
"510 720 LINE",
"70 720 LINE",
"70 0 LINE"
);
}
);
width = 530;
},
{
associatedMasterId = "0DA27741-1AFD-43F2-A947-40AFBF8D6498";
layerId = "A2873047-0ED6-4C67-9B4D-3870B51BD5C6";
width = 600;
},
{
associatedMasterId = "0DA27741-1AFD-43F2-A947-40AFBF8D6498";
layerId = "55314CA7-5524-4D70-B802-98D4FAE25636";
width = 500;
},
{
associatedMasterId = "0DA27741-1AFD-43F2-A947-40AFBF8D6498";
layerId = "13A3DD5D-E91B-4961-8595-F8141D3FA442";
width = 584;
}
);
leftMetricsKey = H;
note = F;
unicode = 0046;
},
{
glyphname = G;
lastChange = "2019-11-12 02:41:12 +0000";
layers = (
{
layerId = "CAA188E2-8C62-414B-93AE-B576BEB044DB";
paths = (
{
closed = 1;
nodes = (
"566 -15 OFFCURVE",
"657 129 OFFCURVE",
"657 317 CURVE SMOOTH",
"657 326 OFFCURVE",
"657 341 OFFCURVE",
"655 360 CURVE",
"420 360 LINE",
"420 318 LINE",
"612 318 LINE",
"612 145 OFFCURVE",
"538 27 OFFCURVE",
"353 27 CURVE SMOOTH",
"168 27 OFFCURVE",
"73 165 OFFCURVE",
"75 360 CURVE SMOOTH",
"77 555 OFFCURVE",
"168 692 OFFCURVE",
"353 692 CURVE SMOOTH",
"466 692 OFFCURVE",
"546 634 OFFCURVE",
"581 544 CURVE",
"622 561 LINE",
"583 663 OFFCURVE",
"490 734 OFFCURVE",
"353 734 CURVE SMOOTH",
"138 734 OFFCURVE",
"30 580 OFFCURVE",
"30 360 CURVE SMOOTH",
"30 140 OFFCURVE",
"138 -15 OFFCURVE",
"353 -15 CURVE SMOOTH"
);
}
);
width = 687;
},
{
layerId = "0DA27741-1AFD-43F2-A947-40AFBF8D6498";
paths = (
{
closed = 1;
nodes = (
"578 -15 OFFCURVE",
"711 132 OFFCURVE",
"711 339 CURVE SMOOTH",
"711 342 OFFCURVE",
"710 372 OFFCURVE",
"709 381 CURVE",
"450 381 LINE",
"450 276 LINE",
"564 276 LINE",
"542 162 OFFCURVE",
"472 111 OFFCURVE",
"379 113 CURVE SMOOTH",
"242 115 OFFCURVE",
"174 210 OFFCURVE",
"174 360 CURVE SMOOTH",
"174 510 OFFCURVE",
"242 609 OFFCURVE",
"379 607 CURVE SMOOTH",
"471 606 OFFCURVE",
"530 552 OFFCURVE",
"556 468 CURVE",
"695 488 LINE",
"659 645 OFFCURVE",
"555 735 OFFCURVE",
"370 735 CURVE SMOOTH",
"182 735 OFFCURVE",
"30 599 OFFCURVE",
"30 360 CURVE SMOOTH",
"30 116 OFFCURVE",
"188 -15 OFFCURVE",
"370 -15 CURVE SMOOTH"
);
}
);
width = 741;
},
{
associatedMasterId = "0DA27741-1AFD-43F2-A947-40AFBF8D6498";
layerId = "A2873047-0ED6-4C67-9B4D-3870B51BD5C6";
width = 600;
},
{
associatedMasterId = "0DA27741-1AFD-43F2-A947-40AFBF8D6498";
layerId = "55314CA7-5524-4D70-B802-98D4FAE25636";
width = 733;
},
{
associatedMasterId = "0DA27741-1AFD-43F2-A947-40AFBF8D6498";
layerId = "13A3DD5D-E91B-4961-8595-F8141D3FA442";
width = 621;
}
);
leftKerningGroup = O;
leftMetricsKey = O;
note = G;
rightKerningGroup = G;
rightMetricsKey = O;
unicode = 0047;
},
{
glyphname = H;
lastChange = "2019-11-12 02:41:12 +0000";
layers = (
{
layerId = "CAA188E2-8C62-414B-93AE-B576BEB044DB";
paths = (
{
closed = 1;
nodes = (
"112 0 LINE",
"112 339 LINE",
"548 339 LINE",
"548 0 LINE",
"590 0 LINE",
"590 720 LINE",
"548 720 LINE",
"548 381 LINE",
"112 381 LINE",
"112 720 LINE",
"70 720 LINE",
"70 0 LINE"
);
}
);
width = 660;
},
{
layerId = "0DA27741-1AFD-43F2-A947-40AFBF8D6498";
paths = (
{
closed = 1;
nodes = (
"206 0 LINE",
"206 297 LINE",
"528 297 LINE",
"528 0 LINE",
"664 0 LINE",
"664 720 LINE",
"528 720 LINE",
"528 424 LINE",
"206 424 LINE",
"206 720 LINE",
"70 720 LINE",
"70 0 LINE"
);
}
);
width = 734;
},
{
associatedMasterId = "0DA27741-1AFD-43F2-A947-40AFBF8D6498";
layerId = "A2873047-0ED6-4C67-9B4D-3870B51BD5C6";
width = 600;
},
{
associatedMasterId = "0DA27741-1AFD-43F2-A947-40AFBF8D6498";
layerId = "55314CA7-5524-4D70-B802-98D4FAE25636";
width = 725;
},
{
associatedMasterId = "0DA27741-1AFD-43F2-A947-40AFBF8D6498";
layerId = "13A3DD5D-E91B-4961-8595-F8141D3FA442";
width = 620;
}
);
leftKerningGroup = M;
note = H;
rightKerningGroup = M;
unicode = 0048;
},
{
glyphname = Hbar;
lastChange = "2019-11-12 02:41:12 +0000";
layers = (
{
layerId = "CAA188E2-8C62-414B-93AE-B576BEB044DB";
paths = (
{
closed = 1;
nodes = (
"122 0 LINE",
"122 339 LINE",
"558 339 LINE",
"558 0 LINE",
"600 0 LINE",
"600 720 LINE",
"558 720 LINE",
"558 381 LINE",
"122 381 LINE",
"122 720 LINE",
"80 720 LINE",
"80 0 LINE"
);
},
{
closed = 1;
nodes = (
"670 498 LINE",
"670 540 LINE",
"10 540 LINE",
"10 498 LINE"
);
}
);
width = 680;
},
{
layerId = "0DA27741-1AFD-43F2-A947-40AFBF8D6498";
paths = (
{
closed = 1;
nodes = (
"216 0 LINE",
"216 297 LINE",
"538 297 LINE",
"538 0 LINE",
"674 0 LINE",
"674 720 LINE",
"538 720 LINE",
"538 424 LINE",
"216 424 LINE",
"216 720 LINE",
"80 720 LINE",
"80 0 LINE"
);
},
{
closed = 1;
nodes = (
"744 494 LINE",
"744 621 LINE",
"10 621 LINE",
"10 494 LINE"
);
}
);
width = 754;
},
{
associatedMasterId = "0DA27741-1AFD-43F2-A947-40AFBF8D6498";
layerId = "A2873047-0ED6-4C67-9B4D-3870B51BD5C6";
width = 600;
},
{
associatedMasterId = "0DA27741-1AFD-43F2-A947-40AFBF8D6498";
layerId = "55314CA7-5524-4D70-B802-98D4FAE25636";
width = 725;
},
{
associatedMasterId = "0DA27741-1AFD-43F2-A947-40AFBF8D6498";
layerId = "13A3DD5D-E91B-4961-8595-F8141D3FA442";
width = 620;
}
);
leftKerningGroup = H;
rightKerningGroup = H;
unicode = 0126;
},
{
glyphname = I;
lastChange = "2019-11-12 02:41:12 +0000";
layers = (
{
layerId = "CAA188E2-8C62-414B-93AE-B576BEB044DB";
paths = (
{
closed = 1;
nodes = (
"122 0 LINE",
"122 720 LINE",
"80 720 LINE",
"80 0 LINE"
);
}
);
width = 202;
},
{
hints = (
{
horizontal = 1;
origin = "{0, 3}";
target = up;
type = BottomGhost;
},
{
horizontal = 1;
origin = "{0, 2}";
target = down;
type = TopGhost;
},
{
place = "{70, 140}";
type = Stem;
}
);
layerId = "0DA27741-1AFD-43F2-A947-40AFBF8D6498";
paths = (
{
closed = 1;
nodes = (
"216 0 LINE",
"216 720 LINE",
"80 720 LINE",
"80 0 LINE"
);
}
);
width = 296;
},
{
associatedMasterId = "0DA27741-1AFD-43F2-A947-40AFBF8D6498";
layerId = "A2873047-0ED6-4C67-9B4D-3870B51BD5C6";
width = 600;
},
{
associatedMasterId = "0DA27741-1AFD-43F2-A947-40AFBF8D6498";
layerId = "55314CA7-5524-4D70-B802-98D4FAE25636";
width = 213;
},
{
associatedMasterId = "0DA27741-1AFD-43F2-A947-40AFBF8D6498";
layerId = "13A3DD5D-E91B-4961-8595-F8141D3FA442";
width = 538;
}
);
leftKerningGroup = n;
note = I;
rightKerningGroup = u;
unicode = 0049;
},
{
glyphname = J;
lastChange = "2019-11-13 04:47:27 +0000";
layers = (
{
layerId = "CAA188E2-8C62-414B-93AE-B576BEB044DB";
paths = (
{
closed = 1;
nodes = (
"245 -14 OFFCURVE",
"303 15 OFFCURVE",
"335 71 CURVE SMOOTH",
"360 115 OFFCURVE",
"358 157 OFFCURVE",
"358 212 CURVE SMOOTH",
"358 720 LINE",
"316 720 LINE",
"316 212 LINE SMOOTH",
"316 160 OFFCURVE",
"316 126 OFFCURVE",
"298 93 CURVE SMOOTH",
"272 46 OFFCURVE",
"224 28 OFFCURVE",
"181 28 CURVE SMOOTH",
"111 28 OFFCURVE",
"58 74 OFFCURVE",
"43 135 CURVE",
"0 125 LINE",
"20 41 OFFCURVE",
"92 -14 OFFCURVE",
"179 -14 CURVE SMOOTH"
);
}
);
width = 439;
},
{
layerId = "0DA27741-1AFD-43F2-A947-40AFBF8D6498";
paths = (
{
closed = 1;
nodes = (
"300 -15 OFFCURVE",
"368 15 OFFCURVE",
"409 86 CURVE SMOOTH",
"437 134 OFFCURVE",
"433 171 OFFCURVE",
"433 240 CURVE SMOOTH",
"433 720 LINE",
"295 720 LINE",
"295 240 LINE SMOOTH",
"295 203 OFFCURVE",
"295 175 OFFCURVE",
"287 156 CURVE SMOOTH",
"274 125 OFFCURVE",
"240 112 OFFCURVE",
"215 112 CURVE SMOOTH",
"178 112 OFFCURVE",
"140 143 OFFCURVE",
"134 180 CURVE",
"0 148 LINE",
"31 48 OFFCURVE",
"106 -15 OFFCURVE",
"221 -15 CURVE SMOOTH"
);
}
);
width = 513;
},
{
associatedMasterId = "0DA27741-1AFD-43F2-A947-40AFBF8D6498";
layerId = "A2873047-0ED6-4C67-9B4D-3870B51BD5C6";
width = 600;
},
{
associatedMasterId = "0DA27741-1AFD-43F2-A947-40AFBF8D6498";
layerId = "55314CA7-5524-4D70-B802-98D4FAE25636";
width = 415;
},
{
associatedMasterId = "0DA27741-1AFD-43F2-A947-40AFBF8D6498";
layerId = "13A3DD5D-E91B-4961-8595-F8141D3FA442";
width = 570;
}
);
leftKerningGroup = J;
note = J;
rightKerningGroup = J;
unicode = 004A;
},
{
glyphname = K;
lastChange = "2019-11-12 02:41:12 +0000";
layers = (
{
layerId = "CAA188E2-8C62-414B-93AE-B576BEB044DB";
paths = (
{
closed = 1;
nodes = (
"112 0 LINE",
"112 376 LINE",
"500 0 LINE",
"558 0 LINE",
"173 376 LINE",
"526 720 LINE",
"468 720 LINE",
"112 376 LINE",
"112 720 LINE",
"70 720 LINE",
"70 0 LINE"
);
}
);
width = 558;
},
{
layerId = "0DA27741-1AFD-43F2-A947-40AFBF8D6498";
paths = (
{
closed = 1;
nodes = (
"206 0 LINE",
"206 328 LINE",
"493 0 LINE",
"665 0 LINE",
"345 365 LINE",
"646 720 LINE",
"480 720 LINE",
"206 388 LINE",
"206 720 LINE",
"70 720 LINE",
"70 0 LINE"
);
}
);
width = 665;
},
{
associatedMasterId = "0DA27741-1AFD-43F2-A947-40AFBF8D6498";
layerId = "A2873047-0ED6-4C67-9B4D-3870B51BD5C6";
width = 600;
},
{
associatedMasterId = "0DA27741-1AFD-43F2-A947-40AFBF8D6498";
layerId = "55314CA7-5524-4D70-B802-98D4FAE25636";
width = 584;
},
{
associatedMasterId = "0DA27741-1AFD-43F2-A947-40AFBF8D6498";
layerId = "13A3DD5D-E91B-4961-8595-F8141D3FA442";
width = 597;
}
);
leftKerningGroup = H;
leftMetricsKey = H;
note = K;
rightKerningGroup = K;
unicode = 004B;
},
{
glyphname = L;
lastChange = "2019-11-12 02:41:12 +0000";
layers = (
{
layerId = "CAA188E2-8C62-414B-93AE-B576BEB044DB";
paths = (
{
closed = 1;
nodes = (
"480 0 LINE",
"480 42 LINE",
"122 42 LINE",
"122 720 LINE",
"80 720 LINE",
"80 0 LINE"
);
}
);
width = 495;
},
{
layerId = "0DA27741-1AFD-43F2-A947-40AFBF8D6498";
paths = (
{
closed = 1;
nodes = (
"526 0 LINE",
"526 127 LINE",
"216 127 LINE",
"216 720 LINE",
"80 720 LINE",
"80 0 LINE"
);
}
);
width = 541;
},
{
associatedMasterId = "0DA27741-1AFD-43F2-A947-40AFBF8D6498";
layerId = "A2873047-0ED6-4C67-9B4D-3870B51BD5C6";
width = 600;
},
{
associatedMasterId = "0DA27741-1AFD-43F2-A947-40AFBF8D6498";
layerId = "55314CA7-5524-4D70-B802-98D4FAE25636";
width = 431;
},
{
associatedMasterId = "0DA27741-1AFD-43F2-A947-40AFBF8D6498";
layerId = "13A3DD5D-E91B-4961-8595-F8141D3FA442";
width = 573;
}
);
note = L;
rightKerningGroup = L;
unicode = 004C;
},
{
glyphname = M;
lastChange = "2019-11-12 02:41:12 +0000";
layers = (
{
layerId = "CAA188E2-8C62-414B-93AE-B576BEB044DB";
paths = (
{
closed = 1;
nodes = (
"112 0 LINE",
"112 619 LINE",
"392 0 LINE",
"439 0 LINE",
"719 619 LINE",
"719 1 LINE",
"761 1 LINE",
"761 720 LINE",
"719 720 LINE",
"416 51 LINE",
"110 720 LINE",
"70 720 LINE",
"70 0 LINE"
);
}
);
width = 831;
},
{
layerId = "0DA27741-1AFD-43F2-A947-40AFBF8D6498";
paths = (
{
closed = 1;
nodes = (
"197 0 LINE",
"197 430 LINE",
"406 0 LINE",
"454 0 LINE",
"663 430 LINE",
"663 0 LINE",
"790 0 LINE",
"790 720 LINE",
"668 720 LINE",
"430 242 LINE",
"192 720 LINE",
"70 720 LINE",
"70 0 LINE"
);
}
);
width = 860;
},
{
associatedMasterId = "0DA27741-1AFD-43F2-A947-40AFBF8D6498";
layerId = "A2873047-0ED6-4C67-9B4D-3870B51BD5C6";
width = 600;
},
{
associatedMasterId = "0DA27741-1AFD-43F2-A947-40AFBF8D6498";
layerId = "55314CA7-5524-4D70-B802-98D4FAE25636";
width = 914;
},
{
associatedMasterId = "0DA27741-1AFD-43F2-A947-40AFBF8D6498";
layerId = "13A3DD5D-E91B-4961-8595-F8141D3FA442";
width = 650;
}
);
leftKerningGroup = M;
leftMetricsKey = H;
note = M;
rightKerningGroup = M;
rightMetricsKey = H;
unicode = 004D;
},
{
glyphname = N;
lastChange = "2019-11-12 02:41:12 +0000";
layers = (
{
layerId = "CAA188E2-8C62-414B-93AE-B576BEB044DB";
paths = (
{
closed = 1;
nodes = (
"112 0 LINE",
"112 646 LINE",
"550 0 LINE",
"592 0 LINE",
"592 720 LINE",
"550 720 LINE",
"550 75 LINE",
"112 720 LINE",
"70 720 LINE",
"70 0 LINE"
);
}
);
width = 662;
},
{
layerId = "0DA27741-1AFD-43F2-A947-40AFBF8D6498";
paths = (
{
closed = 1;
nodes = (
"208 0 LINE",
"208 480 LINE",
"521 0 LINE",
"659 0 LINE",
"659 720 LINE",
"521 720 LINE",
"521 240 LINE",
"208 720 LINE",
"70 720 LINE",
"70 0 LINE"
);
}
);
width = 729;
},
{
associatedMasterId = "0DA27741-1AFD-43F2-A947-40AFBF8D6498";
layerId = "A2873047-0ED6-4C67-9B4D-3870B51BD5C6";
width = 600;
},
{
associatedMasterId = "0DA27741-1AFD-43F2-A947-40AFBF8D6498";
layerId = "55314CA7-5524-4D70-B802-98D4FAE25636";
width = 725;
},
{
associatedMasterId = "0DA27741-1AFD-43F2-A947-40AFBF8D6498";
layerId = "13A3DD5D-E91B-4961-8595-F8141D3FA442";
width = 620;
}
);
leftKerningGroup = M;
leftMetricsKey = H;
note = N;
rightKerningGroup = M;
rightMetricsKey = H;
unicode = 004E;
},
{
glyphname = Eng;
lastChange = "2019-11-12 02:41:12 +0000";
layers = (
{
layerId = "CAA188E2-8C62-414B-93AE-B576BEB044DB";
paths = (
{
closed = 1;
nodes = (
"550 75 LINE",
"112 720 LINE",
"70 720 LINE",
"70 0 LINE",
"112 0 LINE",
"112 646 LINE",
"529 31 LINE SMOOTH",
"543 10 OFFCURVE",
"550 -19 OFFCURVE",
"550 -55 CURVE SMOOTH",
"550 -119 OFFCURVE",
"540 -136 OFFCURVE",
"504 -136 CURVE SMOOTH",
"496 -136 OFFCURVE",
"486 -135 OFFCURVE",
"475 -133 CURVE",
"475 -174 LINE",
"492 -178 OFFCURVE",
"503 -179 OFFCURVE",
"516 -179 CURVE SMOOTH",
"569 -179 OFFCURVE",
"592 -153 OFFCURVE",
"592 -95 CURVE SMOOTH",
"592 720 LINE",
"550 720 LINE"
);
}
);
width = 662;
},
{
layerId = "0DA27741-1AFD-43F2-A947-40AFBF8D6498";
paths = (
{
closed = 1;
nodes = (
"521 240 LINE",
"208 720 LINE",
"70 720 LINE",
"70 0 LINE",
"208 0 LINE",
"208 480 LINE",
"488 51 LINE SMOOTH",
"534 -22 OFFCURVE",
"547 -50 OFFCURVE",
"547 -79 CURVE SMOOTH",
"547 -114 OFFCURVE",
"521 -132 OFFCURVE",
"471 -132 CURVE SMOOTH",
"461 -132 OFFCURVE",
"454 -131 OFFCURVE",
"429 -129 CURVE",
"429 -229 LINE",
"454 -236 OFFCURVE",
"482 -239 OFFCURVE",
"509 -239 CURVE SMOOTH",
"610 -239 OFFCURVE",
"659 -189 OFFCURVE",
"659 -88 CURVE SMOOTH",
"659 720 LINE",
"521 720 LINE"
);
}
);
width = 729;
},
{
associatedMasterId = "0DA27741-1AFD-43F2-A947-40AFBF8D6498";
layerId = "A2873047-0ED6-4C67-9B4D-3870B51BD5C6";
width = 600;
},
{
associatedMasterId = "0DA27741-1AFD-43F2-A947-40AFBF8D6498";
layerId = "55314CA7-5524-4D70-B802-98D4FAE25636";
width = 725;
},
{
associatedMasterId = "0DA27741-1AFD-43F2-A947-40AFBF8D6498";
layerId = "13A3DD5D-E91B-4961-8595-F8141D3FA442";
width = 620;
}
);
leftKerningGroup = N;
leftMetricsKey = N;
rightKerningGroup = N;
rightMetricsKey = N;
unicode = 014A;
},
{
glyphname = O;
lastChange = "2019-11-12 02:41:12 +0000";
layers = (
{
layerId = "CAA188E2-8C62-414B-93AE-B576BEB044DB";
paths = (
{
closed = 1;
nodes = (
"568 -15 OFFCURVE",
"676 140 OFFCURVE",
"676 360 CURVE SMOOTH",
"676 580 OFFCURVE",
"568 735 OFFCURVE",
"353 735 CURVE SMOOTH",
"138 735 OFFCURVE",
"30 580 OFFCURVE",
"30 360 CURVE SMOOTH",
"30 140 OFFCURVE",
"138 -15 OFFCURVE",
"353 -15 CURVE SMOOTH"
);
},
{
closed = 1;
nodes = (
"168 27 OFFCURVE",
"73 165 OFFCURVE",
"75 360 CURVE SMOOTH",
"77 555 OFFCURVE",
"168 693 OFFCURVE",
"353 693 CURVE SMOOTH",
"538 693 OFFCURVE",
"631 555 OFFCURVE",
"631 360 CURVE SMOOTH",
"631 165 OFFCURVE",
"538 27 OFFCURVE",
"353 27 CURVE SMOOTH"
);
}
);
width = 706;
},
{
layerId = "0DA27741-1AFD-43F2-A947-40AFBF8D6498";
paths = (
{
closed = 1;
nodes = (
"595 -15 OFFCURVE",
"728 136 OFFCURVE",
"728 360 CURVE SMOOTH",
"728 584 OFFCURVE",
"595 735 OFFCURVE",
"379 735 CURVE SMOOTH",
"163 735 OFFCURVE",
"30 584 OFFCURVE",
"30 360 CURVE SMOOTH",
"30 136 OFFCURVE",
"163 -15 OFFCURVE",
"379 -15 CURVE SMOOTH"
);
},
{
closed = 1;
nodes = (
"242 115 OFFCURVE",
"174 210 OFFCURVE",
"174 360 CURVE SMOOTH",
"174 510 OFFCURVE",
"242 609 OFFCURVE",
"379 607 CURVE SMOOTH",
"516 605 OFFCURVE",
"584 510 OFFCURVE",
"584 360 CURVE SMOOTH",
"584 210 OFFCURVE",
"516 111 OFFCURVE",
"379 113 CURVE SMOOTH"
);
}
);
width = 758;
},
{
associatedMasterId = "0DA27741-1AFD-43F2-A947-40AFBF8D6498";
layerId = "A2873047-0ED6-4C67-9B4D-3870B51BD5C6";
width = 600;
},
{
associatedMasterId = "0DA27741-1AFD-43F2-A947-40AFBF8D6498";
layerId = "55314CA7-5524-4D70-B802-98D4FAE25636";
width = 734;
},
{
associatedMasterId = "0DA27741-1AFD-43F2-A947-40AFBF8D6498";
layerId = "13A3DD5D-E91B-4961-8595-F8141D3FA442";
width = 621;
}
);
leftKerningGroup = O;
rightKerningGroup = O;
unicode = 004F;
},
{
glyphname = Oslash;
lastChange = "2019-11-12 02:41:12 +0000";
layers = (
{
components = (
{
name = O;
}
);
layerId = "CAA188E2-8C62-414B-93AE-B576BEB044DB";
paths = (
{
closed = 1;
nodes = (
"130 87 LINE",
"143 101 LINE",
"597 587 LINE",
"605 595 LINE",
"703.444 701.776 LINE",
"672.45 729.712 LINE",
"581 631 LINE",
"571 621 LINE",
"116 135 LINE",
"105 123 LINE",
"4.953 15.982 LINE",
"35.982 -12.953 LINE"
);
}
);
width = 706;
},
{
components = (
{
name = O;
}
);
layerId = "0DA27741-1AFD-43F2-A947-40AFBF8D6498";
paths = (
{
closed = 1;
nodes = (
"215 69 LINE",
"222 81 LINE",
"612 522 LINE",
"625 531 LINE",
"728 647 LINE",
"632 733 LINE",
"538 627 LINE",
"532 616 LINE",
"143 177 LINE",
"126 162 LINE",
"47 72 LINE",
"143 -13 LINE"
);
}
);
width = 758;
},
{
associatedMasterId = "0DA27741-1AFD-43F2-A947-40AFBF8D6498";
layerId = "A2873047-0ED6-4C67-9B4D-3870B51BD5C6";
width = 600;
},
{
associatedMasterId = "0DA27741-1AFD-43F2-A947-40AFBF8D6498";
layerId = "55314CA7-5524-4D70-B802-98D4FAE25636";
width = 738;
},
{
associatedMasterId = "0DA27741-1AFD-43F2-A947-40AFBF8D6498";
layerId = "13A3DD5D-E91B-4961-8595-F8141D3FA442";
width = 622;
}
);
leftKerningGroup = O;
rightKerningGroup = O;
unicode = 00D8;
},
{
glyphname = P;
lastChange = "2019-11-12 02:41:12 +0000";
layers = (
{
layerId = "CAA188E2-8C62-414B-93AE-B576BEB044DB";
paths = (
{
closed = 1;
nodes = (
"112 0 LINE",
"112 288 LINE",
"335 288 LINE SMOOTH",
"349 288 OFFCURVE",
"363 289 OFFCURVE",
"381 292 CURVE SMOOTH",
"485 308 OFFCURVE",
"551 396 OFFCURVE",
"551 504 CURVE SMOOTH",
"551 612 OFFCURVE",
"485 700 OFFCURVE",
"381 716 CURVE SMOOTH",
"363 719 OFFCURVE",
"349 720 OFFCURVE",
"335 720 CURVE SMOOTH",
"70 720 LINE",
"70 0 LINE"
);
},
{
closed = 1;
nodes = (
"112 678 LINE",
"335 678 LINE SMOOTH",
"346 678 OFFCURVE",
"363 677 OFFCURVE",
"379 674 CURVE SMOOTH",
"462 658 OFFCURVE",
"506 585 OFFCURVE",
"506 504 CURVE SMOOTH",
"506 423 OFFCURVE",
"462 350 OFFCURVE",
"379 334 CURVE SMOOTH",
"363 331 OFFCURVE",
"346 330 OFFCURVE",
"335 330 CURVE SMOOTH",
"112 330 LINE"
);
}
);
width = 581;
},
{
layerId = "0DA27741-1AFD-43F2-A947-40AFBF8D6498";
paths = (
{
closed = 1;
nodes = (
"206 0 LINE",
"206 244 LINE",
"374 244 LINE SMOOTH",
"387 244 OFFCURVE",
"415 245 OFFCURVE",
"434 248 CURVE SMOOTH",
"562 268 OFFCURVE",
"620 361 OFFCURVE",
"620 482 CURVE SMOOTH",
"620 603 OFFCURVE",
"563 696 OFFCURVE",
"434 716 CURVE SMOOTH",
"415 719 OFFCURVE",
"388 720 OFFCURVE",
"374 720 CURVE SMOOTH",
"70 720 LINE",
"70 0 LINE"
);
},
{
closed = 1;
nodes = (
"206 593 LINE",
"368 593 LINE SMOOTH",
"382 593 OFFCURVE",
"400 592 OFFCURVE",
"414 588 CURVE SMOOTH",
"469 573 OFFCURVE",
"483 521 OFFCURVE",
"483 482 CURVE SMOOTH",
"483 443 OFFCURVE",
"469 391 OFFCURVE",
"414 376 CURVE SMOOTH",
"400 372 OFFCURVE",
"382 371 OFFCURVE",
"368 371 CURVE SMOOTH",
"206 371 LINE"
);
}
);
width = 650;
},
{
associatedMasterId = "0DA27741-1AFD-43F2-A947-40AFBF8D6498";
layerId = "A2873047-0ED6-4C67-9B4D-3870B51BD5C6";
width = 600;
},
{
associatedMasterId = "0DA27741-1AFD-43F2-A947-40AFBF8D6498";
layerId = "55314CA7-5524-4D70-B802-98D4FAE25636";
width = 564;
},
{
associatedMasterId = "0DA27741-1AFD-43F2-A947-40AFBF8D6498";
layerId = "13A3DD5D-E91B-4961-8595-F8141D3FA442";
width = 594;
}
);
leftMetricsKey = H;
note = P;
unicode = 0050;
},
{
glyphname = Thorn;
lastChange = "2019-11-12 02:41:12 +0000";
layers = (
{
layerId = "CAA188E2-8C62-414B-93AE-B576BEB044DB";
paths = (
{
closed = 1;
nodes = (
"112 0 LINE",
"112 144 LINE",
"325 144 LINE SMOOTH",
"384 144 OFFCURVE",
"445 171 OFFCURVE",
"484 215 CURVE SMOOTH",
"519 254 OFFCURVE",
"541 306 OFFCURVE",
"541 360 CURVE SMOOTH",
"541 418 OFFCURVE",
"516 476 OFFCURVE",
"473 516 CURVE SMOOTH",
"453 535 OFFCURVE",
"428 551 OFFCURVE",
"402 561 CURVE SMOOTH",
"377 571 OFFCURVE",
"351 576 OFFCURVE",
"325 576 CURVE SMOOTH",
"112 576 LINE",
"112 720 LINE",
"70 720 LINE",
"70 0 LINE"
);
},
{
closed = 1;
nodes = (
"112 534 LINE",
"325 534 LINE SMOOTH",
"368 534 OFFCURVE",
"413 515 OFFCURVE",
"443 485 CURVE SMOOTH",
"476 452 OFFCURVE",
"495 407 OFFCURVE",
"496 360 CURVE SMOOTH",
"497 319 OFFCURVE",
"481 279 OFFCURVE",
"455 248 CURVE SMOOTH",
"423 210 OFFCURVE",
"374 186 OFFCURVE",
"325 186 CURVE SMOOTH",
"112 186 LINE"
);
}
);
width = 571;
},
{
layerId = "0DA27741-1AFD-43F2-A947-40AFBF8D6498";
paths = (
{
closed = 1;
nodes = (
"208 0 LINE",
"208 123 LINE",
"371 123 LINE SMOOTH",
"450 123 OFFCURVE",
"522 161 OFFCURVE",
"564 219 CURVE SMOOTH",
"594 259 OFFCURVE",
"613 310 OFFCURVE",
"612 360 CURVE SMOOTH",
"611 410 OFFCURVE",
"594 461 OFFCURVE",
"564 501 CURVE SMOOTH",
"535 542 OFFCURVE",
"492 572 OFFCURVE",
"444 587 CURVE SMOOTH",
"421 594 OFFCURVE",
"396 598 OFFCURVE",
"371 598 CURVE SMOOTH",
"208 598 LINE",
"208 720 LINE",
"70 720 LINE",
"70 0 LINE"
);
},
{
closed = 1;
nodes = (
"208 470 LINE",
"370 470 LINE SMOOTH",
"398 470 OFFCURVE",
"429 453 OFFCURVE",
"448 431 CURVE SMOOTH",
"465 412 OFFCURVE",
"473 386 OFFCURVE",
"474 360 CURVE SMOOTH",
"475 336 OFFCURVE",
"466 313 OFFCURVE",
"452 294 CURVE SMOOTH",
"431 266 OFFCURVE",
"397 250 OFFCURVE",
"370 250 CURVE SMOOTH",
"208 250 LINE"
);
}
);
width = 642;
},
{
associatedMasterId = "0DA27741-1AFD-43F2-A947-40AFBF8D6498";
layerId = "A2873047-0ED6-4C67-9B4D-3870B51BD5C6";
width = 600;
},
{
associatedMasterId = "0DA27741-1AFD-43F2-A947-40AFBF8D6498";
layerId = "55314CA7-5524-4D70-B802-98D4FAE25636";
width = 601;
},
{
associatedMasterId = "0DA27741-1AFD-43F2-A947-40AFBF8D6498";
layerId = "13A3DD5D-E91B-4961-8595-F8141D3FA442";
width = 600;
}
);
leftKerningGroup = P;
leftMetricsKey = P;
rightKerningGroup = P;
rightMetricsKey = P;
unicode = 00DE;
},
{
glyphname = Q;
lastChange = "2019-11-12 02:41:12 +0000";
layers = (
{
components = (
{
name = O;
}
);
layerId = "CAA188E2-8C62-414B-93AE-B576BEB044DB";
paths = (
{
closed = 1;
nodes = (
"669 19 LINE",
"487 201 LINE",
"454 168 LINE",
"637 -14 LINE"
);
}
);
width = 706;
},
{
components = (
{
name = O;
}
);
layerId = "0DA27741-1AFD-43F2-A947-40AFBF8D6498";
paths = (
{
closed = 1;
nodes = (
"716 69 LINE",
"507 278 LINE",
"423 194 LINE",
"633 -15 LINE"
);
}
);
width = 758;
},
{
associatedMasterId = "0DA27741-1AFD-43F2-A947-40AFBF8D6498";
layerId = "A2873047-0ED6-4C67-9B4D-3870B51BD5C6";
width = 600;
},
{
associatedMasterId = "0DA27741-1AFD-43F2-A947-40AFBF8D6498";
layerId = "55314CA7-5524-4D70-B802-98D4FAE25636";
width = 734;
},
{
associatedMasterId = "0DA27741-1AFD-43F2-A947-40AFBF8D6498";
layerId = "13A3DD5D-E91B-4961-8595-F8141D3FA442";
width = 621;
}
);
leftKerningGroup = O;
leftMetricsKey = O;
note = Q;
rightKerningGroup = O;
rightMetricsKey = O;
unicode = 0051;
},
{
glyphname = R;
lastChange = "2019-11-12 02:41:12 +0000";
layers = (
{
background = {
paths = (
{
closed = 1;
nodes = (
"112 0 LINE",
"112 288 LINE",
"335 288 LINE SMOOTH",
"349 288 OFFCURVE",
"363 289 OFFCURVE",
"381 292 CURVE SMOOTH",
"485 308 OFFCURVE",
"551 396 OFFCURVE",
"551 504 CURVE SMOOTH",
"551 612 OFFCURVE",
"485 700 OFFCURVE",
"381 716 CURVE SMOOTH",
"363 719 OFFCURVE",
"349 720 OFFCURVE",
"335 720 CURVE SMOOTH",
"70 720 LINE",
"70 0 LINE"
);
},
{
closed = 1;
nodes = (
"571 0 LINE",
"415 320 LINE",
"379 293 LINE",
"521 0 LINE"
);
},
{
closed = 1;
nodes = (
"112 678 LINE",
"335 678 LINE SMOOTH",
"346 678 OFFCURVE",
"363 677 OFFCURVE",
"379 674 CURVE SMOOTH",
"462 658 OFFCURVE",
"506 585 OFFCURVE",
"506 504 CURVE SMOOTH",
"506 423 OFFCURVE",
"462 350 OFFCURVE",
"379 334 CURVE SMOOTH",
"363 331 OFFCURVE",
"346 330 OFFCURVE",
"335 330 CURVE SMOOTH",
"112 330 LINE"
);
}
);
};
layerId = "CAA188E2-8C62-414B-93AE-B576BEB044DB";
paths = (
{
closed = 1;
nodes = (
"112 0 LINE",
"112 288 LINE",
"387 288 LINE",
"395 295 LINE",
"491 316 OFFCURVE",
"551 401 OFFCURVE",
"551 504 CURVE SMOOTH",
"551 612 OFFCURVE",
"485 700 OFFCURVE",
"381 716 CURVE SMOOTH",
"363 719 OFFCURVE",
"349 720 OFFCURVE",
"335 720 CURVE SMOOTH",
"70 720 LINE",
"70 0 LINE"
);
},
{
closed = 1;
nodes = (
"571 0 LINE",
"415 320 LINE",
"379 293 LINE",
"521 0 LINE"
);
},
{
closed = 1;
nodes = (
"112 678 LINE",
"335 678 LINE SMOOTH",
"346 678 OFFCURVE",
"363 677 OFFCURVE",
"379 674 CURVE SMOOTH",
"462 658 OFFCURVE",
"506 585 OFFCURVE",
"506 504 CURVE SMOOTH",
"506 423 OFFCURVE",
"462 350 OFFCURVE",
"379 334 CURVE SMOOTH",
"363 331 OFFCURVE",
"346 330 OFFCURVE",
"335 330 CURVE SMOOTH",
"112 330 LINE"
);
}
);
width = 611;
},
{
layerId = "0DA27741-1AFD-43F2-A947-40AFBF8D6498";
paths = (
{
closed = 1;
nodes = (
"206 0 LINE",
"206 244 LINE",
"374 244 LINE",
"434 248 LINE",
"562 268 OFFCURVE",
"620 361 OFFCURVE",
"620 482 CURVE SMOOTH",
"620 603 OFFCURVE",
"563 696 OFFCURVE",
"434 716 CURVE SMOOTH",
"415 719 OFFCURVE",
"388 720 OFFCURVE",
"374 720 CURVE SMOOTH",
"70 720 LINE",
"70 0 LINE"
);
},
{
closed = 1;
nodes = (
"630 0 LINE",
"474 320 LINE",
"334 293 LINE",
"476 0 LINE"
);
},
{
closed = 1;
nodes = (
"206 593 LINE",
"368 593 LINE SMOOTH",
"382 593 OFFCURVE",
"400 592 OFFCURVE",
"414 588 CURVE SMOOTH",
"469 573 OFFCURVE",
"483 521 OFFCURVE",
"483 482 CURVE SMOOTH",
"483 443 OFFCURVE",
"469 391 OFFCURVE",
"414 376 CURVE SMOOTH",
"400 372 OFFCURVE",
"382 371 OFFCURVE",
"368 371 CURVE SMOOTH",
"206 371 LINE"
);
}
);
width = 670;
},
{
associatedMasterId = "0DA27741-1AFD-43F2-A947-40AFBF8D6498";
layerId = "A2873047-0ED6-4C67-9B4D-3870B51BD5C6";
width = 600;
},
{
associatedMasterId = "0DA27741-1AFD-43F2-A947-40AFBF8D6498";
layerId = "55314CA7-5524-4D70-B802-98D4FAE25636";
width = 551;
},
{
associatedMasterId = "0DA27741-1AFD-43F2-A947-40AFBF8D6498";
layerId = "13A3DD5D-E91B-4961-8595-F8141D3FA442";
width = 592;
}
);
leftKerningGroup = P;
leftMetricsKey = H;
note = R;
rightKerningGroup = R;
unicode = 0052;
},
{
glyphname = S;
lastChange = "2019-11-12 02:41:12 +0000";
layers = (
{
background = {
paths = (
{
closed = 1;
nodes = (
"543 613 OFFCURVE",
"497 663 OFFCURVE",
"445 696 CURVE SMOOTH",
"404 722 OFFCURVE",
"340 735 OFFCURVE",
"288 735 CURVE SMOOTH",
"243 735 OFFCURVE",
"192 725 OFFCURVE",
"151 701 CURVE SMOOTH",
"95 668 OFFCURVE",
"58 611 OFFCURVE",
"58 542 CURVE SMOOTH",
"58 501 OFFCURVE",
"73 463 OFFCURVE",
"106 433 CURVE SMOOTH",
"145 397 OFFCURVE",
"191 386 OFFCURVE",
"235 373 CURVE SMOOTH",
"366 334 LINE SMOOTH",
"412 320 OFFCURVE",
"455 308 OFFCURVE",
"485 277 CURVE SMOOTH",
"508 254 OFFCURVE",
"518 221 OFFCURVE",
"518 191 CURVE SMOOTH",
"518 134 OFFCURVE",
"494 95 OFFCURVE",
"455 67 CURVE SMOOTH",
"417 39 OFFCURVE",
"360 27 OFFCURVE",
"306 27 CURVE SMOOTH",
"232 27 OFFCURVE",
"176 49 OFFCURVE",
"131 89 CURVE SMOOTH",
"97 119 OFFCURVE",
"81 153 OFFCURVE",
"72 187 CURVE",
"30 179 LINE",
"38 141 OFFCURVE",
"57 101 OFFCURVE",
"88 68 CURVE SMOOTH",
"148 6 OFFCURVE",
"232 -15 OFFCURVE",
"305 -15 CURVE SMOOTH",
"378 -15 OFFCURVE",
"433 -1 OFFCURVE",
"482 33 CURVE SMOOTH",
"531 67 OFFCURVE",
"559 124 OFFCURVE",
"559 191 CURVE SMOOTH",
"559 238 OFFCURVE",
"547 275 OFFCURVE",
"513 309 CURVE SMOOTH",
"477 344 OFFCURVE",
"425 362 OFFCURVE",
"378 376 CURVE SMOOTH",
"247 415 LINE SMOOTH",
"201 429 OFFCURVE",
"165 442 OFFCURVE",
"135 468 CURVE SMOOTH",
"111 489 OFFCURVE",
"103 523 OFFCURVE",
"103 545 CURVE SMOOTH",
"103 604 OFFCURVE",
"139 641 OFFCURVE",
"173 663 CURVE SMOOTH",
"206 684 OFFCURVE",
"248 693 OFFCURVE",
"289 693 CURVE SMOOTH",
"332 693 OFFCURVE",
"382 681 OFFCURVE",
"416 662 CURVE SMOOTH",
"466 634 OFFCURVE",
"503 590 OFFCURVE",
"514 517 CURVE",
"556 525 LINE"
);
}
);
};
layerId = "CAA188E2-8C62-414B-93AE-B576BEB044DB";
paths = (
{
closed = 1;
nodes = (
"461 -15 OFFCURVE",
"559 64 OFFCURVE",
"559 188 CURVE SMOOTH",
"559 320 OFFCURVE",
"447 355 OFFCURVE",
"396 370 CURVE SMOOTH",
"247 415 LINE SMOOTH",
"186 433 OFFCURVE",
"103 461 OFFCURVE",
"103 547 CURVE SMOOTH",
"103 629 OFFCURVE",
"180 693 OFFCURVE",
"293 693 CURVE SMOOTH",
"411 693 OFFCURVE",
"500 622 OFFCURVE",
"514 517 CURVE",
"556 525 LINE",
"538 652 OFFCURVE",
"434 735 OFFCURVE",
"293 735 CURVE SMOOTH",
"154 735 OFFCURVE",
"58 656 OFFCURVE",
"58 546 CURVE SMOOTH",
"58 470 OFFCURVE",
"103 412 OFFCURVE",
"207 381 CURVE SMOOTH",
"387 327 LINE SMOOTH",
"434 313 OFFCURVE",
"518 285 OFFCURVE",
"518 188 CURVE SMOOTH",
"518 91 OFFCURVE",
"435 27 OFFCURVE",
"309 27 CURVE SMOOTH",
"188 27 OFFCURVE",
"98 88 OFFCURVE",
"72 187 CURVE",
"30 179 LINE",
"56 60 OFFCURVE",
"163 -15 OFFCURVE",
"309 -15 CURVE SMOOTH"
);
}
);
width = 589;
},
{
background = {
paths = (
{
closed = 1;
nodes = (
"603 612 OFFCURVE",
"549 667 OFFCURVE",
"488 700 CURVE SMOOTH",
"440 726 OFFCURVE",
"386 734 OFFCURVE",
"337 735 CURVE SMOOTH",
"270 735 OFFCURVE",
"202 721 OFFCURVE",
"150 683 CURVE SMOOTH",
"101 647 OFFCURVE",
"68 590 OFFCURVE",
"68 524 CURVE SMOOTH",
"68 471 OFFCURVE",
"80 425 OFFCURVE",
"120 387 CURVE SMOOTH",
"155 353 OFFCURVE",
"205 338 OFFCURVE",
"268 320 CURVE SMOOTH",
"402 281 LINE SMOOTH",
"430 273 OFFCURVE",
"450 266 OFFCURVE",
"466 252 CURVE SMOOTH",
"481 239 OFFCURVE",
"488 221 OFFCURVE",
"488 202 CURVE SMOOTH",
"488 182 OFFCURVE",
"478 160 OFFCURVE",
"455 142 CURVE SMOOTH",
"429 122 OFFCURVE",
"385 112 OFFCURVE",
"347 112 CURVE SMOOTH",
"299 112 OFFCURVE",
"253 133 OFFCURVE",
"222 165 CURVE SMOOTH",
"200 187 OFFCURVE",
"187 220 OFFCURVE",
"182 241 CURVE",
"40 220 LINE",
"47 174 OFFCURVE",
"64 126 OFFCURVE",
"103 82 CURVE SMOOTH",
"165 13 OFFCURVE",
"246 -15 OFFCURVE",
"342 -15 CURVE SMOOTH",
"424 -15 OFFCURVE",
"498 2 OFFCURVE",
"557 54 CURVE SMOOTH",
"601 93 OFFCURVE",
"631 143 OFFCURVE",
"631 198 CURVE SMOOTH",
"631 261 OFFCURVE",
"622 301 OFFCURVE",
"583 342 CURVE SMOOTH",
"556 371 OFFCURVE",
"497 397 OFFCURVE",
"432 415 CURVE SMOOTH",
"307 449 LINE SMOOTH",
"268 460 OFFCURVE",
"238 473 OFFCURVE",
"225 488 CURVE SMOOTH",
"214 500 OFFCURVE",
"211 514 OFFCURVE",
"211 528 CURVE SMOOTH",
"211 552 OFFCURVE",
"228 574 OFFCURVE",
"250 587 CURVE SMOOTH",
"272 600 OFFCURVE",
"301 608 OFFCURVE",
"335 607 CURVE SMOOTH",
"368 607 OFFCURVE",
"397 596 OFFCURVE",
"420 581 CURVE SMOOTH",
"448 562 OFFCURVE",
"471 531 OFFCURVE",
"478 498 CURVE",
"625 523 LINE"
);
}
);
};
layerId = "0DA27741-1AFD-43F2-A947-40AFBF8D6498";
paths = (
{
closed = 1;
nodes = (
"489 -15 OFFCURVE",
"631 59 OFFCURVE",
"631 214 CURVE SMOOTH",
"631 359 OFFCURVE",
"506 395 OFFCURVE",
"432 415 CURVE SMOOTH",
"307 449 LINE SMOOTH",
"261 461 OFFCURVE",
"211 479 OFFCURVE",
"211 526 CURVE SMOOTH",
"211 577 OFFCURVE",
"271 609 OFFCURVE",
"335 607 CURVE SMOOTH",
"400 605 OFFCURVE",
"462 568 OFFCURVE",
"478 498 CURVE",
"625 523 LINE",
"590 658 OFFCURVE",
"486 732 OFFCURVE",
"337 734 CURVE SMOOTH",
"189 735 OFFCURVE",
"68 664 OFFCURVE",
"68 519 CURVE SMOOTH",
"68 382 OFFCURVE",
"175 347 OFFCURVE",
"231 331 CURVE SMOOTH",
"418 276 LINE SMOOTH",
"474 259 OFFCURVE",
"488 233 OFFCURVE",
"488 204 CURVE SMOOTH",
"488 144 OFFCURVE",
"418 112 OFFCURVE",
"351 112 CURVE SMOOTH",
"271 112 OFFCURVE",
"202 158 OFFCURVE",
"182 241 CURVE",
"40 220 LINE",
"62 74 OFFCURVE",
"182 -15 OFFCURVE",
"342 -15 CURVE SMOOTH"
);
}
);
width = 671;
},
{
associatedMasterId = "0DA27741-1AFD-43F2-A947-40AFBF8D6498";
layerId = "A2873047-0ED6-4C67-9B4D-3870B51BD5C6";
width = 600;
},
{
associatedMasterId = "0DA27741-1AFD-43F2-A947-40AFBF8D6498";
layerId = "55314CA7-5524-4D70-B802-98D4FAE25636";
width = 616;
},
{
associatedMasterId = "0DA27741-1AFD-43F2-A947-40AFBF8D6498";
layerId = "13A3DD5D-E91B-4961-8595-F8141D3FA442";
width = 603;
}
);
leftKerningGroup = S;
note = S;
rightKerningGroup = S;
unicode = 0053;
},
{
glyphname = Germandbls;
lastChange = "2019-11-12 02:41:12 +0000";
layers = (
{
layerId = "0DA27741-1AFD-43F2-A947-40AFBF8D6498";
paths = (
{
closed = 1;
nodes = (
"503 -15 OFFCURVE",
"586 76 OFFCURVE",
"586 214 CURVE SMOOTH",
"586 338 OFFCURVE",
"526 398 OFFCURVE",
"436 425 CURVE",
"544 545 LINE",
"523 657 OFFCURVE",
"437 735 OFFCURVE",
"308 735 CURVE SMOOTH",
"191 735 OFFCURVE",
"115 682 OFFCURVE",
"84 586 CURVE SMOOTH",
"72 549 OFFCURVE",
"69 505 OFFCURVE",
"69 460 CURVE SMOOTH",
"69 0 LINE",
"206 0 LINE",
"206 463 LINE SMOOTH",
"206 502 OFFCURVE",
"208 531 OFFCURVE",
"223 557 CURVE SMOOTH",
"242 590 OFFCURVE",
"274 608 OFFCURVE",
"308 608 CURVE SMOOTH",
"359 608 OFFCURVE",
"391 584 OFFCURVE",
"402 545 CURVE",
"282 411 LINE",
"324 307 LINE",
"395 320 OFFCURVE",
"447 276 OFFCURVE",
"447 219 CURVE SMOOTH",
"447 152 OFFCURVE",
"402 118 OFFCURVE",
"335 118 CURVE SMOOTH",
"304 118 OFFCURVE",
"279 126 OFFCURVE",
"262 133 CURVE",
"262 0 LINE",
"285 -10 OFFCURVE",
"311 -15 OFFCURVE",
"355 -15 CURVE SMOOTH"
);
}
);
width = 646;
},
{
layerId = "CAA188E2-8C62-414B-93AE-B576BEB044DB";
paths = (
{
closed = 1;
nodes = (
"443 -15 OFFCURVE",
"515 74 OFFCURVE",
"515 209 CURVE SMOOTH",
"515 341 OFFCURVE",
"402 447 OFFCURVE",
"275 418 CURVE",
"432 576 LINE",
"421 669 OFFCURVE",
"352 735 OFFCURVE",
"254 735 CURVE SMOOTH",
"177 735 OFFCURVE",
"122 700 OFFCURVE",
"90 631 CURVE SMOOTH",
"75 599 OFFCURVE",
"70 556 OFFCURVE",
"70 512 CURVE SMOOTH",
"70 0 LINE",
"116 0 LINE",
"116 491 LINE SMOOTH",
"116 535 OFFCURVE",
"118 577 OFFCURVE",
"131 608 CURVE SMOOTH",
"155 666 OFFCURVE",
"204 693 OFFCURVE",
"254 693 CURVE SMOOTH",
"315 693 OFFCURVE",
"369 656 OFFCURVE",
"385 592 CURVE",
"213 413 LINE",
"224 364 LINE",
"388 410 OFFCURVE",
"470 309 OFFCURVE",
"470 209 CURVE SMOOTH",
"470 95 OFFCURVE",
"411 29 OFFCURVE",
"299 29 CURVE SMOOTH",
"265 29 OFFCURVE",
"235 33 OFFCURVE",
"200 42 CURVE",
"200 0 LINE",
"229 -9 OFFCURVE",
"258 -15 OFFCURVE",
"297 -15 CURVE SMOOTH"
);
}
);
width = 575;
}
);
leftKerningGroup = b;
leftMetricsKey = b;
rightKerningGroup = b;
rightMetricsKey = n;
unicode = 1E9E;
},
{
glyphname = T;
lastChange = "2019-11-13 04:41:48 +0000";
layers = (
{
layerId = "CAA188E2-8C62-414B-93AE-B576BEB044DB";
paths = (
{
closed = 1;
nodes = (
"316 0 LINE",
"316 678 LINE",
"580 678 LINE",
"580 720 LINE",
"10 720 LINE",
"10 678 LINE",
"274 678 LINE",
"274 0 LINE"
);
}
);
width = 590;
},
{
layerId = "0DA27741-1AFD-43F2-A947-40AFBF8D6498";
paths = (
{
closed = 1;
nodes = (
"373 0 LINE",
"373 593 LINE",
"600 593 LINE",
"600 720 LINE",
"10 720 LINE",
"10 593 LINE",
"237 593 LINE",
"237 0 LINE"
);
}
);
width = 610;
},
{
associatedMasterId = "0DA27741-1AFD-43F2-A947-40AFBF8D6498";
layerId = "A2873047-0ED6-4C67-9B4D-3870B51BD5C6";
width = 600;
},
{
associatedMasterId = "0DA27741-1AFD-43F2-A947-40AFBF8D6498";
layerId = "55314CA7-5524-4D70-B802-98D4FAE25636";
width = 513;
},
{
associatedMasterId = "0DA27741-1AFD-43F2-A947-40AFBF8D6498";
layerId = "13A3DD5D-E91B-4961-8595-F8141D3FA442";
width = 586;
}
);
leftKerningGroup = T;
note = T;
rightKerningGroup = T;
unicode = 0054;
},
{
glyphname = Tbar;
lastChange = "2019-11-12 02:41:12 +0000";
layers = (
{
components = (
{
name = T;
}
);
layerId = "CAA188E2-8C62-414B-93AE-B576BEB044DB";
paths = (
{
closed = 1;
nodes = (
"505 339 LINE",
"505 381 LINE",
"85 381 LINE",
"85 339 LINE"
);
}
);
width = 590;
},
{
components = (
{
name = T;
}
);
layerId = "0DA27741-1AFD-43F2-A947-40AFBF8D6498";
paths = (
{
closed = 1;
nodes = (
"545 292 LINE",
"545 428 LINE",
"65 428 LINE",
"65 292 LINE"
);
}
);
width = 610;
},
{
associatedMasterId = "0DA27741-1AFD-43F2-A947-40AFBF8D6498";
layerId = "A2873047-0ED6-4C67-9B4D-3870B51BD5C6";
width = 600;
},
{
associatedMasterId = "0DA27741-1AFD-43F2-A947-40AFBF8D6498";
layerId = "55314CA7-5524-4D70-B802-98D4FAE25636";
width = 513;
},
{
associatedMasterId = "0DA27741-1AFD-43F2-A947-40AFBF8D6498";
layerId = "13A3DD5D-E91B-4961-8595-F8141D3FA442";
width = 586;
}
);
leftKerningGroup = X;
leftMetricsKey = T;
rightKerningGroup = X;
rightMetricsKey = T;
unicode = 0166;
},
{
glyphname = U;
lastChange = "2019-11-12 02:41:12 +0000";
layers = (
{
background = {
paths = (
{
closed = 1;
nodes = (
"578 720 LINE",
"578 305 LINE SMOOTH",
"578 262 OFFCURVE",
"576 226 OFFCURVE",
"568 193 CURVE SMOOTH",
"545 97 OFFCURVE",
"451 25 OFFCURVE",
"345 25 CURVE SMOOTH",
"239 25 OFFCURVE",
"145 97 OFFCURVE",
"122 193 CURVE SMOOTH",
"114 226 OFFCURVE",
"112 262 OFFCURVE",
"112 305 CURVE SMOOTH",
"112 720 LINE",
"70 720 LINE",
"70 253 LINE SMOOTH",
"70 213 OFFCURVE",
"76 178 OFFCURVE",
"89 147 CURVE SMOOTH",
"129 50 OFFCURVE",
"217 -15 OFFCURVE",
"345 -15 CURVE SMOOTH",
"473 -15 OFFCURVE",
"561 50 OFFCURVE",
"601 147 CURVE SMOOTH",
"614 178 OFFCURVE",
"620 213 OFFCURVE",
"620 253 CURVE SMOOTH",
"620 720 LINE"
);
}
);
};
layerId = "CAA188E2-8C62-414B-93AE-B576BEB044DB";
paths = (
{
closed = 1;
nodes = (
"505 -15 OFFCURVE",
"620 93 OFFCURVE",
"620 255 CURVE SMOOTH",
"620 720 LINE",
"578 720 LINE",
"578 269 LINE SMOOTH",
"578 91 OFFCURVE",
"441 25 OFFCURVE",
"345 25 CURVE SMOOTH",
"249 25 OFFCURVE",
"112 91 OFFCURVE",
"112 269 CURVE SMOOTH",
"112 720 LINE",
"70 720 LINE",
"70 255 LINE SMOOTH",
"70 92 OFFCURVE",
"185 -15 OFFCURVE",
"345 -15 CURVE SMOOTH"
);
}
);
width = 690;
},
{
background = {
paths = (
{
closed = 1;
nodes = (
"518 720 LINE",
"518 272 LINE SMOOTH",
"518 256 OFFCURVE",
"517 240 OFFCURVE",
"512 222 CURVE SMOOTH",
"494 158 OFFCURVE",
"434 113 OFFCURVE",
"363 113 CURVE SMOOTH",
"292 113 OFFCURVE",
"232 158 OFFCURVE",
"214 222 CURVE SMOOTH",
"209 240 OFFCURVE",
"208 256 OFFCURVE",
"208 272 CURVE SMOOTH",
"208 720 LINE",
"70 719 LINE",
"70 270 LINE SMOOTH",
"70 246 OFFCURVE",
"72 223 OFFCURVE",
"77 200 CURVE SMOOTH",
"106 64 OFFCURVE",
"217 -15 OFFCURVE",
"363 -15 CURVE SMOOTH",
"509 -15 OFFCURVE",
"620 64 OFFCURVE",
"649 200 CURVE SMOOTH",
"654 223 OFFCURVE",
"656 246 OFFCURVE",
"656 270 CURVE SMOOTH",
"656 720 LINE"
);
}
);
};
layerId = "0DA27741-1AFD-43F2-A947-40AFBF8D6498";
paths = (
{
closed = 1;
nodes = (
"537 -15 OFFCURVE",
"656 97 OFFCURVE",
"656 270 CURVE SMOOTH",
"656 720 LINE",
"518 720 LINE",
"518 271 LINE SMOOTH",
"518 178 OFFCURVE",
"451 113 OFFCURVE",
"363 113 CURVE SMOOTH",
"277 113 OFFCURVE",
"208 176 OFFCURVE",
"208 271 CURVE SMOOTH",
"208 720 LINE",
"70 719 LINE",
"70 270 LINE SMOOTH",
"70 97 OFFCURVE",
"189 -15 OFFCURVE",
"363 -15 CURVE SMOOTH"
);
}
);
width = 726;
},
{
associatedMasterId = "0DA27741-1AFD-43F2-A947-40AFBF8D6498";
layerId = "A2873047-0ED6-4C67-9B4D-3870B51BD5C6";
width = 600;
},
{
associatedMasterId = "0DA27741-1AFD-43F2-A947-40AFBF8D6498";
layerId = "55314CA7-5524-4D70-B802-98D4FAE25636";
width = 725;
},
{
associatedMasterId = "0DA27741-1AFD-43F2-A947-40AFBF8D6498";
layerId = "13A3DD5D-E91B-4961-8595-F8141D3FA442";
width = 620;
}
);
leftKerningGroup = U;
leftMetricsKey = H;
note = U;
rightKerningGroup = U;
rightMetricsKey = H;
unicode = 0055;
},
{
glyphname = V;
lastChange = "2019-11-12 02:41:12 +0000";
layers = (
{
layerId = "CAA188E2-8C62-414B-93AE-B576BEB044DB";
paths = (
{
closed = 1;
nodes = (
"312 0 LINE",
"574 720 LINE",
"529 720 LINE",
"289 61 LINE",
"50 720 LINE",
"5 720 LINE",
"267 0 LINE"
);
}
);
width = 579;
},
{
layerId = "0DA27741-1AFD-43F2-A947-40AFBF8D6498";
paths = (
{
closed = 1;
nodes = (
"428 0 LINE",
"648 720 LINE",
"508 720 LINE",
"325 128 LINE",
"145 720 LINE",
"5 720 LINE",
"225 0 LINE"
);
}
);
width = 653;
},
{
associatedMasterId = "0DA27741-1AFD-43F2-A947-40AFBF8D6498";
layerId = "A2873047-0ED6-4C67-9B4D-3870B51BD5C6";
width = 600;
},
{
associatedMasterId = "0DA27741-1AFD-43F2-A947-40AFBF8D6498";
layerId = "55314CA7-5524-4D70-B802-98D4FAE25636";
width = 623;
},
{
associatedMasterId = "0DA27741-1AFD-43F2-A947-40AFBF8D6498";
layerId = "13A3DD5D-E91B-4961-8595-F8141D3FA442";
width = 604;
}
);
leftKerningGroup = V;
note = V;
rightKerningGroup = V;
unicode = 0056;
},
{
glyphname = W;
lastChange = "2019-11-13 04:49:07 +0000";
layers = (
{
layerId = "CAA188E2-8C62-414B-93AE-B576BEB044DB";
paths = (
{
closed = 1;
nodes = (
"270 0 LINE",
"454 643 LINE",
"639 0 LINE",
"683 0 LINE",
"889 720 LINE",
"845 720 LINE",
"661 76 LINE",
"476 720 LINE",
"432 720 LINE",
"248 76 LINE",
"63 720 LINE",
"20 720 LINE",
"226 0 LINE"
);
}
);
width = 909;
},
{
layerId = "0DA27741-1AFD-43F2-A947-40AFBF8D6498";
paths = (
{
closed = 1;
nodes = (
"355 0 LINE",
"494 486 LINE",
"634 0 LINE",
"768 0 LINE",
"979 720 LINE",
"836 720 LINE",
"700 225 LINE",
"565 720 LINE",
"422 719 LINE",
"288 225 LINE",
"153 720 LINE",
"10 720 LINE",
"221 0 LINE"
);
}
);
width = 989;
},
{
associatedMasterId = "0DA27741-1AFD-43F2-A947-40AFBF8D6498";
layerId = "A2873047-0ED6-4C67-9B4D-3870B51BD5C6";
width = 600;
},
{
associatedMasterId = "0DA27741-1AFD-43F2-A947-40AFBF8D6498";
layerId = "55314CA7-5524-4D70-B802-98D4FAE25636";
width = 906;
},
{
associatedMasterId = "0DA27741-1AFD-43F2-A947-40AFBF8D6498";
layerId = "13A3DD5D-E91B-4961-8595-F8141D3FA442";
width = 649;
}
);
leftKerningGroup = V;
note = W;
rightKerningGroup = V;
unicode = 0057;
},
{
glyphname = X;
lastChange = "2019-11-12 02:41:12 +0000";
layers = (
{
layerId = "CAA188E2-8C62-414B-93AE-B576BEB044DB";
paths = (
{
closed = 1;
nodes = (
"60 0 LINE",
"286 330 LINE",
"513 0 LINE",
"563 0 LINE",
"310 365 LINE",
"557 720 LINE",
"507 720 LINE",
"286 399 LINE",
"66 720 LINE",
"16 720 LINE",
"263 365 LINE",
"10 0 LINE"
);
}
);
width = 573;
},
{
layerId = "0DA27741-1AFD-43F2-A947-40AFBF8D6498";
paths = (
{
closed = 1;
nodes = (
"178 0 LINE",
"337 248 LINE",
"495 0 LINE",
"662 0 LINE",
"421 364 LINE",
"656 720 LINE",
"488 720 LINE",
"337 480 LINE",
"184 720 LINE",
"17 720 LINE",
"252 364 LINE",
"10 0 LINE"
);
}
);
width = 672;
},
{
associatedMasterId = "0DA27741-1AFD-43F2-A947-40AFBF8D6498";
layerId = "A2873047-0ED6-4C67-9B4D-3870B51BD5C6";
width = 600;
},
{
associatedMasterId = "0DA27741-1AFD-43F2-A947-40AFBF8D6498";
layerId = "55314CA7-5524-4D70-B802-98D4FAE25636";
width = 766;
},
{
associatedMasterId = "0DA27741-1AFD-43F2-A947-40AFBF8D6498";
layerId = "13A3DD5D-E91B-4961-8595-F8141D3FA442";
width = 627;
}
);
leftKerningGroup = X;
note = X;
rightKerningGroup = X;
unicode = 0058;
},
{
glyphname = Y;
lastChange = "2019-11-13 04:41:59 +0000";
layers = (
{
layerId = "CAA188E2-8C62-414B-93AE-B576BEB044DB";
paths = (
{
closed = 1;
nodes = (
"281 0 LINE",
"281 306 LINE",
"519 720 LINE",
"471 720 LINE",
"260 354 LINE",
"48 720 LINE",
"0 720 LINE",
"239 306 LINE",
"239 0 LINE"
);
}
);
width = 519;
},
{
layerId = "0DA27741-1AFD-43F2-A947-40AFBF8D6498";
paths = (
{
closed = 1;
nodes = (
"384 0 LINE",
"384 293 LINE",
"630 720 LINE",
"471 720 LINE",
"315 449 LINE",
"159 720 LINE",
"0 720 LINE",
"246 293 LINE",
"246 0 LINE"
);
}
);
width = 630;
},
{
associatedMasterId = "0DA27741-1AFD-43F2-A947-40AFBF8D6498";
layerId = "A2873047-0ED6-4C67-9B4D-3870B51BD5C6";
width = 600;
},
{
associatedMasterId = "0DA27741-1AFD-43F2-A947-40AFBF8D6498";
layerId = "55314CA7-5524-4D70-B802-98D4FAE25636";
width = 569;
},
{
associatedMasterId = "0DA27741-1AFD-43F2-A947-40AFBF8D6498";
layerId = "13A3DD5D-E91B-4961-8595-F8141D3FA442";
width = 595;
}
);
leftKerningGroup = Y;
note = Y;
rightKerningGroup = Y;
unicode = 0059;
},
{
glyphname = Z;
lastChange = "2019-11-12 02:41:12 +0000";
layers = (
{
layerId = "CAA188E2-8C62-414B-93AE-B576BEB044DB";
paths = (
{
closed = 1;
nodes = (
"531 0 LINE",
"531 41 LINE",
"114 41 LINE",
"531 703 LINE",
"531 720 LINE",
"50 720 LINE",
"50 678 LINE",
"469 678 LINE",
"50 15 LINE",
"50 0 LINE"
);
}
);
width = 581;
},
{
layerId = "0DA27741-1AFD-43F2-A947-40AFBF8D6498";
paths = (
{
closed = 1;
nodes = (
"620 0 LINE",
"620 128 LINE",
"290 128 LINE",
"630 703 LINE",
"630 720 LINE",
"80 720 LINE",
"80 593 LINE",
"392 593 LINE",
"50 17 LINE",
"50 0 LINE"
);
}
);
width = 680;
},
{
associatedMasterId = "0DA27741-1AFD-43F2-A947-40AFBF8D6498";
layerId = "A2873047-0ED6-4C67-9B4D-3870B51BD5C6";
width = 600;
},
{
associatedMasterId = "0DA27741-1AFD-43F2-A947-40AFBF8D6498";
layerId = "55314CA7-5524-4D70-B802-98D4FAE25636";
width = 600;
},
{
associatedMasterId = "0DA27741-1AFD-43F2-A947-40AFBF8D6498";
layerId = "13A3DD5D-E91B-4961-8595-F8141D3FA442";
width = 600;
}
);
leftKerningGroup = Z;
note = Z;
rightKerningGroup = Z;
unicode = 005A;
},
{
glyphname = a;
lastChange = "2019-11-13 06:18:44 +0000";
layers = (
{
background = {
paths = (
{
closed = 1;
nodes = (
"314 -15 OFFCURVE",
"398 18 OFFCURVE",
"443 98 CURVE",
"443 0 LINE",
"482 0 LINE",
"482 338 LINE",
"482 366 OFFCURVE",
"480 391 OFFCURVE",
"473 417 CURVE SMOOTH",
"449 504 OFFCURVE",
"383 555 OFFCURVE",
"283 555 CURVE SMOOTH",
"168 555 OFFCURVE",
"83 510 OFFCURVE",
"61 411 CURVE",
"105 397 LINE",
"127 482 OFFCURVE",
"191 513 OFFCURVE",
"280 513 CURVE SMOOTH",
"386 513 OFFCURVE",
"440 448 OFFCURVE",
"440 332 CURVE",
"338 319 OFFCURVE",
"254 312 OFFCURVE",
"176 294 CURVE SMOOTH",
"78 271 OFFCURVE",
"40 213 OFFCURVE",
"40 146 CURVE SMOOTH",
"40 46 OFFCURVE",
"117 -15 OFFCURVE",
"217 -15 CURVE SMOOTH"
);
},
{
closed = 1;
nodes = (
"140 27 OFFCURVE",
"84 70 OFFCURVE",
"84 146 CURVE SMOOTH",
"84 202 OFFCURVE",
"125 238 OFFCURVE",
"190 256 CURVE SMOOTH",
"264 277 OFFCURVE",
"344 281 OFFCURVE",
"440 291 CURVE",
"440 251 OFFCURVE",
"439 181 OFFCURVE",
"416 134 CURVE SMOOTH",
"380 61 OFFCURVE",
"309 27 OFFCURVE",
"218 27 CURVE SMOOTH"
);
}
);
};
hints = (
{
horizontal = 1;
origin = "{0, 32}";
target = "{1, 15}";
type = Stem;
},
{
horizontal = 1;
place = "{290, 42}";
type = Stem;
},
{
horizontal = 1;
origin = "{0, 12}";
target = "{0, 19}";
type = Stem;
},
{
horizontal = 1;
origin = "{0, 4}";
target = up;
type = BottomGhost;
},
{
origin = "{0, 29}";
target = "{1, 2}";
type = Stem;
},
{
origin = "{1, 12}";
target = "{0, 5}";
type = Stem;
},
{
origin = "{0, 4}";
target = "{0, 5}";
type = Stem;
}
);
layerId = "CAA188E2-8C62-414B-93AE-B576BEB044DB";
paths = (
{
closed = 1;
nodes = (
"342 -15 OFFCURVE",
"434 44 OFFCURVE",
"463 147 CURVE",
"443 148 LINE",
"443 0 LINE",
"482 0 LINE",
"482 338 LINE SMOOTH",
"482 374 OFFCURVE",
"478 415 OFFCURVE",
"469 442 CURVE SMOOTH",
"445 511 OFFCURVE",
"376 555 OFFCURVE",
"276 555 CURVE SMOOTH",
"162 555 OFFCURVE",
"85 502 OFFCURVE",
"61 402 CURVE",
"107 390 LINE",
"129 473 OFFCURVE",
"183 513 OFFCURVE",
"274 513 CURVE SMOOTH",
"399 513 OFFCURVE",
"443 451 OFFCURVE",
"440 324 CURVE",
"455 334 LINE",
"410 328 OFFCURVE",
"281 316 OFFCURVE",
"187 297 CURVE SMOOTH",
"110 281 OFFCURVE",
"40 238 OFFCURVE",
"40 143 CURVE SMOOTH",
"40 59 OFFCURVE",
"101 -15 OFFCURVE",
"227 -15 CURVE SMOOTH"
);
},
{
closed = 1;
nodes = (
"118 27 OFFCURVE",
"84 90 OFFCURVE",
"84 142 CURVE SMOOTH",
"84 216 OFFCURVE",
"147 246 OFFCURVE",
"196 258 CURVE SMOOTH",
"280 279 OFFCURVE",
"409 288 OFFCURVE",
"462 293 CURVE",
"440 310 LINE",
"440 291 OFFCURVE",
"441 241 OFFCURVE",
"436 204 CURVE SMOOTH",
"421 93 OFFCURVE",
"342 27 OFFCURVE",
"225 27 CURVE SMOOTH"
);
}
);
width = 542;
},
{
background = {
paths = (
{
closed = 1;
nodes = (
"310 -15 OFFCURVE",
"357 12 OFFCURVE",
"404 66 CURVE",
"404 0 LINE",
"523 0 LINE",
"523 322 LINE SMOOTH",
"523 359 OFFCURVE",
"520 392 OFFCURVE",
"511 420 CURVE SMOOTH",
"482 509 OFFCURVE",
"407 555 OFFCURVE",
"294 555 CURVE",
"174 555 OFFCURVE",
"95 484 OFFCURVE",
"59 402 CURVE",
"181 365 LINE",
"200 410 OFFCURVE",
"243 431 OFFCURVE",
"290 431 CURVE SMOOTH",
"337 431 OFFCURVE",
"381 412 OFFCURVE",
"388 357 CURVE",
"300 344 OFFCURVE",
"207 334 OFFCURVE",
"137 303 CURVE SMOOTH",
"81 278 OFFCURVE",
"40 233 OFFCURVE",
"40 154 CURVE SMOOTH",
"40 53 OFFCURVE",
"109 -15 OFFCURVE",
"218 -15 CURVE SMOOTH"
);
},
{
closed = 1;
nodes = (
"197 91 OFFCURVE",
"173 122 OFFCURVE",
"173 151 CURVE SMOOTH",
"173 187 OFFCURVE",
"202 206 OFFCURVE",
"242 217 CURVE SMOOTH",
"284 229 OFFCURVE",
"316 235 OFFCURVE",
"388 247 CURVE",
"388 222 OFFCURVE",
"386 183 OFFCURVE",
"370 156 CURVE SMOOTH",
"348 120 OFFCURVE",
"300 91 OFFCURVE",
"250 91 CURVE SMOOTH"
);
}
);
};
hints = (
{
horizontal = 1;
origin = "{0, 32}";
target = "{0, 29}";
type = Stem;
},
{
horizontal = 1;
place = "{247, 97}";
type = Stem;
},
{
horizontal = 1;
origin = "{0, 12}";
target = "{0, 19}";
type = Stem;
},
{
horizontal = 1;
origin = "{0, 4}";
target = up;
type = BottomGhost;
},
{
origin = "{0, 4}";
target = "{0, 5}";
type = Stem;
},
{
origin = "{0, 29}";
target = "{1, 2}";
type = Stem;
},
{
origin = "{0, 22}";
target = "{0, 5}";
type = Stem;
},
{
origin = "{1, 12}";
target = "{0, 5}";
type = Stem;
}
);
layerId = "0DA27741-1AFD-43F2-A947-40AFBF8D6498";
paths = (
{
closed = 1;
nodes = (
"313 -15 OFFCURVE",
"368 15 OFFCURVE",
"421 88 CURVE",
"404 111 LINE",
"404 0 LINE",
"523 0 LINE",
"523 330 LINE SMOOTH",
"523 379 OFFCURVE",
"522 417 OFFCURVE",
"501 457 CURVE SMOOTH",
"463 529 OFFCURVE",
"385 555 OFFCURVE",
"290 555 CURVE SMOOTH",
"160 555 OFFCURVE",
"86 493 OFFCURVE",
"59 404 CURVE",
"182 365 LINE",
"199 414 OFFCURVE",
"250 431 OFFCURVE",
"290 431 CURVE SMOOTH",
"362 431 OFFCURVE",
"390 402 OFFCURVE",
"390 338 CURVE",
"439 365 LINE",
"313 346 OFFCURVE",
"218 334 OFFCURVE",
"158 312 CURVE SMOOTH",
"71 280 OFFCURVE",
"40 224 OFFCURVE",
"40 149 CURVE SMOOTH",
"40 59 OFFCURVE",
"104 -15 OFFCURVE",
"220 -15 CURVE SMOOTH"
);
},
{
closed = 1;
nodes = (
"202 92 OFFCURVE",
"173 114 OFFCURVE",
"173 151 CURVE SMOOTH",
"173 178 OFFCURVE",
"189 197 OFFCURVE",
"229 213 CURVE SMOOTH",
"264 226 OFFCURVE",
"307 234 OFFCURVE",
"428 254 CURVE",
"388 264 LINE",
"388 238 OFFCURVE",
"388 193 OFFCURVE",
"374 164 CURVE SMOOTH",
"363 141 OFFCURVE",
"324 92 OFFCURVE",
"249 92 CURVE SMOOTH"
);
}
);
width = 583;
},
{
associatedMasterId = "0DA27741-1AFD-43F2-A947-40AFBF8D6498";
layerId = "A2873047-0ED6-4C67-9B4D-3870B51BD5C6";
width = 600;
},
{
associatedMasterId = "0DA27741-1AFD-43F2-A947-40AFBF8D6498";
layerId = "55314CA7-5524-4D70-B802-98D4FAE25636";
width = 535;
},
{
associatedMasterId = "0DA27741-1AFD-43F2-A947-40AFBF8D6498";
layerId = "13A3DD5D-E91B-4961-8595-F8141D3FA442";
width = 590;
}
);
leftKerningGroup = a;
note = a;
rightKerningGroup = a;
rightMetricsKey = n;
unicode = 0061;
},
{
glyphname = ae;
lastChange = "2019-11-12 02:41:12 +0000";
layers = (
{
background = {
paths = (
{
closed = 1;
nodes = (
"773.385 -15 OFFCURVE",
"851.82 35 OFFCURVE",
"893.4 129 CURVE",
"860.325 149 LINE",
"822.525 68 OFFCURVE",
"758.265 27 OFFCURVE",
"673.215 27 CURVE SMOOTH",
"547.53 27 OFFCURVE",
"482.325 123 OFFCURVE",
"482.325 270 CURVE SMOOTH",
"482.325 413 OFFCURVE",
"545.64 515 OFFCURVE",
"673.215 513 CURVE SMOOTH",
"797.955 515 OFFCURVE",
"859.38 420 OFFCURVE",
"863.16 272 CURVE",
"863.16 258 LINE",
"905.685 258 LINE",
"905.685 435 OFFCURVE",
"831.03 555 OFFCURVE",
"673.215 555 CURVE SMOOTH",
"523.905 555 OFFCURVE",
"439.8 440 OFFCURVE",
"439.8 270 CURVE SMOOTH",
"439.8 103 OFFCURVE",
"522.96 -15 OFFCURVE",
"673.215 -15 CURVE SMOOTH"
);
},
{
closed = 1;
nodes = (
"140 27 OFFCURVE",
"84 70 OFFCURVE",
"84 146 CURVE SMOOTH",
"84 202 OFFCURVE",
"118 232 OFFCURVE",
"150 246 CURVE SMOOTH",
"194 265 OFFCURVE",
"350 260 OFFCURVE",
"441 260 CURVE",
"440 220 OFFCURVE",
"437 180 OFFCURVE",
"415 134 CURVE SMOOTH",
"381 61 OFFCURVE",
"309 27 OFFCURVE",
"218 27 CURVE SMOOTH"
);
},
{
closed = 1;
nodes = (
"354 -16 OFFCURVE",
"435 41 OFFCURVE",
"469 150 CURVE",
"473 417 LINE",
"450 504 OFFCURVE",
"383 555 OFFCURVE",
"283 555 CURVE SMOOTH",
"168 555 OFFCURVE",
"83 510 OFFCURVE",
"61 411 CURVE",
"105 397 LINE",
"127 482 OFFCURVE",
"191 513 OFFCURVE",
"280 513 CURVE SMOOTH",
"426 513 OFFCURVE",
"443 396 OFFCURVE",
"441 300 CURVE",
"330 300 OFFCURVE",
"196 305 OFFCURVE",
"134 283 CURVE SMOOTH",
"75 262 OFFCURVE",
"40 211 OFFCURVE",
"40 146 CURVE SMOOTH",
"40 46 OFFCURVE",
"117 -14 OFFCURVE",
"217 -15 CURVE SMOOTH"
);
},
{
closed = 1;
nodes = (
"881.115 258 LINE",
"881.115 300 LINE",
"465.315 300 LINE",
"465.315 258 LINE"
);
}
);
};
layerId = "CAA188E2-8C62-414B-93AE-B576BEB044DB";
paths = (
{
closed = 1;
nodes = (
"773 -15 OFFCURVE",
"852 35 OFFCURVE",
"893 129 CURVE",
"860 149 LINE",
"822 66 OFFCURVE",
"755 27 OFFCURVE",
"674 27 CURVE SMOOTH",
"547 27 OFFCURVE",
"482 124 OFFCURVE",
"482 270 CURVE SMOOTH",
"482 414 OFFCURVE",
"546 513 OFFCURVE",
"674 513 CURVE SMOOTH",
"799 513 OFFCURVE",
"859 420 OFFCURVE",
"863 272 CURVE",
"863 258 LINE",
"906 258 LINE",
"906 436 OFFCURVE",
"830 555 OFFCURVE",
"676 555 CURVE SMOOTH",
"524 555 OFFCURVE",
"440 440 OFFCURVE",
"440 271 CURVE SMOOTH",
"440 104 OFFCURVE",
"522 -15 OFFCURVE",
"674 -15 CURVE SMOOTH"
);
},
{
closed = 1;
nodes = (
"138 27 OFFCURVE",
"84 68 OFFCURVE",
"84 145 CURVE SMOOTH",
"84 260 OFFCURVE",
"204 260 OFFCURVE",
"267 260 CURVE SMOOTH",
"442 260 LINE",
"440 280 LINE",
"440 273 OFFCURVE",
"443 191 OFFCURVE",
"416 134 CURVE SMOOTH",
"386 69 OFFCURVE",
"313 27 OFFCURVE",
"225 27 CURVE SMOOTH"
);
},
{
closed = 1;
nodes = (
"325 -15 OFFCURVE",
"430 22 OFFCURVE",
"469 150 CURVE",
"482 338 LINE",
"482 366 OFFCURVE",
"480 391 OFFCURVE",
"473 417 CURVE SMOOTH",
"450 504 OFFCURVE",
"385 555 OFFCURVE",
"276 555 CURVE SMOOTH",
"173 555 OFFCURVE",
"82 510 OFFCURVE",
"61 411 CURVE",
"105 397 LINE",
"126 482 OFFCURVE",
"195 513 OFFCURVE",
"277 513 CURVE SMOOTH",
"402 513 OFFCURVE",
"446 435 OFFCURVE",
"440 294 CURVE",
"441 300 LINE",
"267 300 LINE SMOOTH",
"206 300 OFFCURVE",
"40 300 OFFCURVE",
"40 146 CURVE SMOOTH",
"40 45 OFFCURVE",
"112 -15 OFFCURVE",
"231 -15 CURVE SMOOTH"
);
},
{
closed = 1;
nodes = (
"881 258 LINE",
"881 300 LINE",
"465 300 LINE",
"465 258 LINE"
);
}
);
width = 946;
},
{
background = {
paths = (
{
closed = 1;
nodes = (
"755.79 -15 OFFCURVE",
"849.345 43 OFFCURVE",
"887.145 141 CURVE",
"758.625 180 LINE",
"738.78 135 OFFCURVE",
"700.035 112 OFFCURVE",
"652.785 112 CURVE SMOOTH",
"572.46 112 OFFCURVE",
"530.88 173 OFFCURVE",
"530.88 270 CURVE SMOOTH",
"530.88 366 OFFCURVE",
"561.12 437 OFFCURVE",
"652.785 437 CURVE SMOOTH",
"744.45 437 OFFCURVE",
"764.295 380 OFFCURVE",
"764.295 282 CURVE SMOOTH",
"764.295 232 LINE",
"891.87 232 LINE",
"906.045 420 OFFCURVE",
"820.05 555 OFFCURVE",
"652.785 555 CURVE SMOOTH",
"497.805 555 OFFCURVE",
"394.8 438 OFFCURVE",
"394.8 263 CURVE SMOOTH",
"394.8 102 OFFCURVE",
"500.64 -15 OFFCURVE",
"660.345 -15 CURVE SMOOTH"
);
},
{
closed = 1;
nodes = (
"195 91 OFFCURVE",
"173 122 OFFCURVE",
"173 151 CURVE SMOOTH",
"173 190 OFFCURVE",
"199 206 OFFCURVE",
"224 213 CURVE SMOOTH",
"260 223 OFFCURVE",
"343 222 OFFCURVE",
"395 222 CURVE",
"388 197 OFFCURVE",
"384 182 OFFCURVE",
"368 157 CURVE SMOOTH",
"346 122 OFFCURVE",
"300 91 OFFCURVE",
"250 91 CURVE SMOOTH"
);
},
{
closed = 1;
nodes = (
"323 -15 OFFCURVE",
"394 14 OFFCURVE",
"454 106 CURVE",
"511 420 LINE",
"482 509 OFFCURVE",
"407 555 OFFCURVE",
"294 555 CURVE",
"174 555 OFFCURVE",
"95 484 OFFCURVE",
"59 402 CURVE",
"181 365 LINE",
"200 410 OFFCURVE",
"243 431 OFFCURVE",
"290 431 CURVE SMOOTH",
"337 431 OFFCURVE",
"397 398 OFFCURVE",
"397 339 CURVE",
"275 339 OFFCURVE",
"200 346 OFFCURVE",
"128 305 CURVE SMOOTH",
"89 283 OFFCURVE",
"40 233 OFFCURVE",
"40 154 CURVE SMOOTH",
"40 53 OFFCURVE",
"111 -15 OFFCURVE",
"225 -15 CURVE SMOOTH"
);
},
{
closed = 1;
nodes = (
"829.5 232 LINE",
"829.5 337 LINE",
"491.19 337 LINE",
"491.19 232 LINE"
);
}
);
};
layerId = "0DA27741-1AFD-43F2-A947-40AFBF8D6498";
paths = (
{
closed = 1;
nodes = (
"755.79 -15 OFFCURVE",
"849.345 43 OFFCURVE",
"887.145 141 CURVE",
"758.625 180 LINE",
"738.78 135 OFFCURVE",
"700.035 112 OFFCURVE",
"652.785 112 CURVE SMOOTH",
"572.46 112 OFFCURVE",
"530.88 173 OFFCURVE",
"530.88 270 CURVE SMOOTH",
"530.88 366 OFFCURVE",
"561.12 437 OFFCURVE",
"652.785 437 CURVE SMOOTH",
"744.45 437 OFFCURVE",
"764.295 380 OFFCURVE",
"764.295 282 CURVE SMOOTH",
"764.295 232 LINE",
"891.87 232 LINE",
"906.045 420 OFFCURVE",
"820.05 555 OFFCURVE",
"652.785 555 CURVE SMOOTH",
"497.805 555 OFFCURVE",
"394.8 438 OFFCURVE",
"394.8 263 CURVE SMOOTH",
"394.8 102 OFFCURVE",
"500.64 -15 OFFCURVE",
"660.345 -15 CURVE SMOOTH"
);
},
{
closed = 1;
nodes = (
"201 91 OFFCURVE",
"173 116 OFFCURVE",
"173 150 CURVE SMOOTH",
"173 214 OFFCURVE",
"272 229 OFFCURVE",
"324 235 CURVE SMOOTH",
"438 249 LINE",
"389 266 LINE",
"391 220 OFFCURVE",
"386 184 OFFCURVE",
"370 156 CURVE SMOOTH",
"351 124 OFFCURVE",
"304 91 OFFCURVE",
"249 91 CURVE SMOOTH"
);
},
{
closed = 1;
nodes = (
"326 -15 OFFCURVE",
"401 20 OFFCURVE",
"454 106 CURVE",
"523 322 LINE",
"523 341 OFFCURVE",
"523 381 OFFCURVE",
"511 420 CURVE SMOOTH",
"485 504 OFFCURVE",
"411 555 OFFCURVE",
"294 555 CURVE SMOOTH",
"174 555 OFFCURVE",
"95 484 OFFCURVE",
"59 402 CURVE",
"181 365 LINE",
"200 410 OFFCURVE",
"243 431 OFFCURVE",
"290 431 CURVE SMOOTH",
"347 431 OFFCURVE",
"398 403 OFFCURVE",
"387 315 CURVE",
"419 341 LINE",
"296 325 LINE SMOOTH",
"201 313 OFFCURVE",
"40 289 OFFCURVE",
"40 145 CURVE SMOOTH",
"40 53 OFFCURVE",
"106 -15 OFFCURVE",
"227 -15 CURVE SMOOTH"
);
},
{
closed = 1;
nodes = (
"829.5 232 LINE",
"829.5 337 LINE",
"491.19 337 LINE",
"491.19 232 LINE"
);
}
);
width = 933;
},
{
associatedMasterId = "0DA27741-1AFD-43F2-A947-40AFBF8D6498";
layerId = "A2873047-0ED6-4C67-9B4D-3870B51BD5C6";
width = 600;
},
{
associatedMasterId = "0DA27741-1AFD-43F2-A947-40AFBF8D6498";
layerId = "55314CA7-5524-4D70-B802-98D4FAE25636";
width = 1029;
},
{
associatedMasterId = "0DA27741-1AFD-43F2-A947-40AFBF8D6498";
layerId = "13A3DD5D-E91B-4961-8595-F8141D3FA442";
width = 669;
}
);
leftKerningGroup = a;
leftMetricsKey = a;
rightKerningGroup = e;
rightMetricsKey = e;
unicode = 00E6;
},
{
glyphname = b;
lastChange = "2019-11-12 02:41:12 +0000";
layers = (
{
layerId = "CAA188E2-8C62-414B-93AE-B576BEB044DB";
paths = (
{
closed = 1;
nodes = (
"454 -15 OFFCURVE",
"536 109 OFFCURVE",
"536 271 CURVE SMOOTH",
"536 430 OFFCURVE",
"454 555 OFFCURVE",
"309 555 CURVE SMOOTH",
"158 555 OFFCURVE",
"77 435 OFFCURVE",
"77 271 CURVE SMOOTH",
"77 110 OFFCURVE",
"158 -15 OFFCURVE",
"301 -15 CURVE SMOOTH"
);
},
{
closed = 1;
nodes = (
"109 0 LINE",
"109 425 LINE",
"112 425 LINE",
"112 720 LINE",
"70 720 LINE",
"70 0 LINE"
);
},
{
closed = 1;
nodes = (
"174 27 OFFCURVE",
"109 132 OFFCURVE",
"109 271 CURVE SMOOTH",
"109 412 OFFCURVE",
"175 513 OFFCURVE",
"301 513 CURVE SMOOTH",
"430 513 OFFCURVE",
"491 409 OFFCURVE",
"491 271 CURVE SMOOTH",
"491 132 OFFCURVE",
"426 27 OFFCURVE",
"301 27 CURVE SMOOTH"
);
}
);
width = 576;
},
{
layerId = "0DA27741-1AFD-43F2-A947-40AFBF8D6498";
paths = (
{
closed = 1;
nodes = (
"484 -15 OFFCURVE",
"584 108 OFFCURVE",
"584 270 CURVE SMOOTH",
"584 435 OFFCURVE",
"483 555 OFFCURVE",
"328 555 CURVE SMOOTH",
"174 555 OFFCURVE",
"92 432 OFFCURVE",
"92 270 CURVE SMOOTH",
"92 108 OFFCURVE",
"174 -15 OFFCURVE",
"335 -15 CURVE SMOOTH"
);
},
{
closed = 1;
nodes = (
"189 0 LINE",
"189 370 LINE",
"206 370 LINE",
"206 720 LINE",
"69 720 LINE",
"69 0 LINE"
);
},
{
closed = 1;
nodes = (
"222 106 OFFCURVE",
"189 172 OFFCURVE",
"189 270 CURVE SMOOTH",
"189 368 OFFCURVE",
"223 434 OFFCURVE",
"308 434 CURVE SMOOTH",
"399 434 OFFCURVE",
"440 360 OFFCURVE",
"440 270 CURVE SMOOTH",
"440 179 OFFCURVE",
"401 106 OFFCURVE",
"313 106 CURVE SMOOTH"
);
}
);
width = 624;
},
{
associatedMasterId = "0DA27741-1AFD-43F2-A947-40AFBF8D6498";
layerId = "A2873047-0ED6-4C67-9B4D-3870B51BD5C6";
width = 600;
},
{
associatedMasterId = "0DA27741-1AFD-43F2-A947-40AFBF8D6498";
layerId = "55314CA7-5524-4D70-B802-98D4FAE25636";
width = 575;
},
{
associatedMasterId = "0DA27741-1AFD-43F2-A947-40AFBF8D6498";
layerId = "13A3DD5D-E91B-4961-8595-F8141D3FA442";
width = 596;
}
);
leftKerningGroup = n;
leftMetricsKey = n;
note = b;
rightKerningGroup = o;
rightMetricsKey = o;
unicode = 0062;
},
{
glyphname = c;
lastChange = "2019-11-12 02:41:12 +0000";
layers = (
{
layerId = "CAA188E2-8C62-414B-93AE-B576BEB044DB";
paths = (
{
closed = 1;
nodes = (
"385 -15 OFFCURVE",
"459 30 OFFCURVE",
"504 117 CURVE",
"463 135 LINE",
"430 64 OFFCURVE",
"366 27 OFFCURVE",
"287 27 CURVE SMOOTH",
"154 27 OFFCURVE",
"87 123 OFFCURVE",
"85 270 CURVE SMOOTH",
"87 414 OFFCURVE",
"151 513 OFFCURVE",
"287 513 CURVE SMOOTH",
"368 513 OFFCURVE",
"434 473 OFFCURVE",
"464 404 CURVE",
"504 421 LINE",
"471 504 OFFCURVE",
"387 555 OFFCURVE",
"287 555 CURVE SMOOTH",
"127 555 OFFCURVE",
"43 443 OFFCURVE",
"40 270 CURVE SMOOTH",
"43 101 OFFCURVE",
"126 -15 OFFCURVE",
"287 -15 CURVE SMOOTH"
);
}
);
width = 539;
},
{
layerId = "0DA27741-1AFD-43F2-A947-40AFBF8D6498";
paths = (
{
closed = 1;
nodes = (
"433 -15 OFFCURVE",
"522 49 OFFCURVE",
"553 164 CURVE",
"414 193 LINE",
"398 141 OFFCURVE",
"369 112 OFFCURVE",
"308 112 CURVE SMOOTH",
"226 112 OFFCURVE",
"184 176 OFFCURVE",
"184 270 CURVE SMOOTH",
"184 360 OFFCURVE",
"222 428 OFFCURVE",
"308 428 CURVE SMOOTH",
"358 428 OFFCURVE",
"401 395 OFFCURVE",
"417 339 CURVE",
"553 375 LINE",
"529 486 OFFCURVE",
"437 555 OFFCURVE",
"310 555 CURVE SMOOTH",
"145 555 OFFCURVE",
"40 434 OFFCURVE",
"40 270 CURVE SMOOTH",
"40 108 OFFCURVE",
"140 -15 OFFCURVE",
"308 -15 CURVE SMOOTH"
);
}
);
width = 583;
},
{
associatedMasterId = "0DA27741-1AFD-43F2-A947-40AFBF8D6498";
layerId = "A2873047-0ED6-4C67-9B4D-3870B51BD5C6";
width = 600;
},
{
associatedMasterId = "0DA27741-1AFD-43F2-A947-40AFBF8D6498";
layerId = "55314CA7-5524-4D70-B802-98D4FAE25636";
width = 566;
},
{
associatedMasterId = "0DA27741-1AFD-43F2-A947-40AFBF8D6498";
layerId = "13A3DD5D-E91B-4961-8595-F8141D3FA442";
width = 595;
}
);
leftKerningGroup = o;
leftMetricsKey = o;
note = c;
rightKerningGroup = c;
unicode = 0063;
},
{
glyphname = d;
lastChange = "2019-11-12 02:41:12 +0000";
layers = (
{
layerId = "CAA188E2-8C62-414B-93AE-B576BEB044DB";
paths = (
{
closed = 1;
nodes = (
"418 -15 OFFCURVE",
"499 110 OFFCURVE",
"499 271 CURVE SMOOTH",
"499 435 OFFCURVE",
"418 555 OFFCURVE",
"267 555 CURVE SMOOTH",
"122 555 OFFCURVE",
"40 430 OFFCURVE",
"40 271 CURVE SMOOTH",
"40 109 OFFCURVE",
"122 -15 OFFCURVE",
"275 -15 CURVE SMOOTH"
);
},
{
closed = 1;
nodes = (
"150 27 OFFCURVE",
"85 132 OFFCURVE",
"85 271 CURVE SMOOTH",
"85 409 OFFCURVE",
"146 513 OFFCURVE",
"275 513 CURVE SMOOTH",
"401 513 OFFCURVE",
"467 412 OFFCURVE",
"467 271 CURVE SMOOTH",
"467 132 OFFCURVE",
"402 27 OFFCURVE",
"275 27 CURVE SMOOTH"
);
},
{
closed = 1;
nodes = (
"506 0 LINE",
"506 720 LINE",
"464 720 LINE",
"464 425 LINE",
"467 425 LINE",
"467 0 LINE"
);
}
);
width = 576;
},
{
layerId = "0DA27741-1AFD-43F2-A947-40AFBF8D6498";
paths = (
{
closed = 1;
nodes = (
"450 -15 OFFCURVE",
"532 108 OFFCURVE",
"532 270 CURVE SMOOTH",
"532 432 OFFCURVE",
"450 555 OFFCURVE",
"296 555 CURVE SMOOTH",
"141 555 OFFCURVE",
"40 435 OFFCURVE",
"40 270 CURVE SMOOTH",
"40 108 OFFCURVE",
"140 -15 OFFCURVE",
"289 -15 CURVE SMOOTH"
);
},
{
closed = 1;
nodes = (
"223 106 OFFCURVE",
"184 179 OFFCURVE",
"184 270 CURVE SMOOTH",
"184 360 OFFCURVE",
"225 434 OFFCURVE",
"316 434 CURVE SMOOTH",
"401 434 OFFCURVE",
"435 368 OFFCURVE",
"435 270 CURVE SMOOTH",
"435 172 OFFCURVE",
"402 106 OFFCURVE",
"311 106 CURVE SMOOTH"
);
},
{
closed = 1;
nodes = (
"555 0 LINE",
"555 720 LINE",
"418 720 LINE",
"418 370 LINE",
"435 370 LINE",
"435 0 LINE"
);
}
);
width = 625;
},
{
associatedMasterId = "0DA27741-1AFD-43F2-A947-40AFBF8D6498";
layerId = "A2873047-0ED6-4C67-9B4D-3870B51BD5C6";
width = 600;
},
{
associatedMasterId = "0DA27741-1AFD-43F2-A947-40AFBF8D6498";
layerId = "55314CA7-5524-4D70-B802-98D4FAE25636";
width = 575;
},
{
associatedMasterId = "0DA27741-1AFD-43F2-A947-40AFBF8D6498";
layerId = "13A3DD5D-E91B-4961-8595-F8141D3FA442";
width = 596;
}
);
leftKerningGroup = o;
note = d;
rightKerningGroup = u;
unicode = 0064;
},
{
glyphname = eth;
lastChange = "2019-11-12 02:41:12 +0000";
layers = (
{
layerId = "CAA188E2-8C62-414B-93AE-B576BEB044DB";
paths = (
{
closed = 1;
nodes = (
"439 -17 OFFCURVE",
"533 90 OFFCURVE",
"533 253 CURVE SMOOTH",
"533 421 OFFCURVE",
"527 497 OFFCURVE",
"488 572 CURVE SMOOTH",
"440 670 OFFCURVE",
"352 726 OFFCURVE",
"235 733 CURVE",
"230 692 LINE",
"381 681 OFFCURVE",
"467 585 OFFCURVE",
"485 425 CURVE",
"443 488 OFFCURVE",
"365 520 OFFCURVE",
"287 519 CURVE SMOOTH",
"133 521 OFFCURVE",
"42 416 OFFCURVE",
"40 252 CURVE SMOOTH",
"42 90 OFFCURVE",
"131 -17 OFFCURVE",
"287 -15 CURVE SMOOTH"
);
},
{
closed = 1;
nodes = (
"157 27 OFFCURVE",
"85 111 OFFCURVE",
"85 252 CURVE SMOOTH",
"85 389 OFFCURVE",
"156 479 OFFCURVE",
"287 477 CURVE SMOOTH",
"414 479 OFFCURVE",
"488 392 OFFCURVE",
"488 253 CURVE SMOOTH",
"488 115 OFFCURVE",
"419 27 OFFCURVE",
"287 27 CURVE SMOOTH"
);
},
{
closed = 1;
nodes = (
"442 756 LINE",
"409 782 LINE",
"270 605 LINE",
"303 579 LINE"
);
}
);
width = 573;
},
{
layerId = "0DA27741-1AFD-43F2-A947-40AFBF8D6498";
paths = (
{
closed = 1;
nodes = (
"460 -15 OFFCURVE",
"561 90 OFFCURVE",
"561 255 CURVE SMOOTH",
"561 449 OFFCURVE",
"532 564 OFFCURVE",
"460 652 CURVE SMOOTH",
"405 720 OFFCURVE",
"324 757 OFFCURVE",
"222 760 CURVE",
"201 657 LINE",
"311 649 OFFCURVE",
"420 568 OFFCURVE",
"433 483 CURVE",
"380 509 OFFCURVE",
"345 518 OFFCURVE",
"301 518 CURVE SMOOTH",
"147 518 OFFCURVE",
"40 409 OFFCURVE",
"40 251 CURVE SMOOTH",
"40 94 OFFCURVE",
"147 -15 OFFCURVE",
"301 -15 CURVE SMOOTH"
);
},
{
closed = 1;
nodes = (
"221 105 OFFCURVE",
"176 158 OFFCURVE",
"176 252 CURVE SMOOTH",
"176 346 OFFCURVE",
"220 398 OFFCURVE",
"301 398 CURVE SMOOTH",
"379 398 OFFCURVE",
"425 344 OFFCURVE",
"425 252 CURVE SMOOTH",
"425 159 OFFCURVE",
"379 105 OFFCURVE",
"301 105 CURVE SMOOTH"
);
},
{
closed = 1;
nodes = (
"485 717 LINE",
"411 783 LINE",
"246 595 LINE",
"320 529 LINE"
);
}
);
width = 601;
},
{
associatedMasterId = "0DA27741-1AFD-43F2-A947-40AFBF8D6498";
layerId = "A2873047-0ED6-4C67-9B4D-3870B51BD5C6";
width = 600;
},
{
associatedMasterId = "0DA27741-1AFD-43F2-A947-40AFBF8D6498";
layerId = "55314CA7-5524-4D70-B802-98D4FAE25636";
width = 585;
},
{
associatedMasterId = "0DA27741-1AFD-43F2-A947-40AFBF8D6498";
layerId = "13A3DD5D-E91B-4961-8595-F8141D3FA442";
width = 598;
}
);
leftKerningGroup = d;
leftMetricsKey = d;
rightKerningGroup = b;
rightMetricsKey = b;
unicode = 00F0;
},
{
glyphname = e;
lastChange = "2019-11-27 10:35:20 +0000";
layers = (
{
layerId = "CAA188E2-8C62-414B-93AE-B576BEB044DB";
paths = (
{
closed = 1;
nodes = (
"392 -15 OFFCURVE",
"476 37 OFFCURVE",
"520 129 CURVE",
"485 149 LINE",
"445 70 OFFCURVE",
"376 27 OFFCURVE",
"287 27 CURVE SMOOTH",
"159 27 OFFCURVE",
"85 116 OFFCURVE",
"85 270 CURVE SMOOTH",
"85 424 OFFCURVE",
"159 513 OFFCURVE",
"287 513 CURVE SMOOTH",
"413 513 OFFCURVE",
"484 427 OFFCURVE",
"488 272 CURVE",
"488 258 LINE",
"533 258 LINE",
"533 446 OFFCURVE",
"442 555 OFFCURVE",
"287 555 CURVE SMOOTH",
"133 555 OFFCURVE",
"40 447 OFFCURVE",
"40 270 CURVE SMOOTH",
"40 94 OFFCURVE",
"134 -15 OFFCURVE",
"287 -15 CURVE SMOOTH"
);
},
{
closed = 1;
nodes = (
"507 258 LINE",
"507 300 LINE",
"67 300 LINE",
"67 258 LINE"
);
}
);
width = 573;
},
{
background = {
paths = (
{
closed = 1;
nodes = (
"427 -15 OFFCURVE",
"523 47 OFFCURVE",
"561 141 CURVE",
"425 180 LINE",
"405 136 OFFCURVE",
"365 112 OFFCURVE",
"313 112 CURVE SMOOTH",
"231 112 OFFCURVE",
"184 169 OFFCURVE",
"184 270 CURVE SMOOTH",
"184 381 OFFCURVE",
"227 437 OFFCURVE",
"313 437 CURVE SMOOTH",
"399 437 OFFCURVE",
"431 395 OFFCURVE",
"431 282 CURVE SMOOTH",
"431 232 LINE",
"565.535 232 LINE",
"582 428 OFFCURVE",
"483 555 OFFCURVE",
"313 555 CURVE SMOOTH",
"149 555 OFFCURVE",
"40 438 OFFCURVE",
"40 263 CURVE SMOOTH",
"40 99 OFFCURVE",
"155 -15 OFFCURVE",
"321 -15 CURVE SMOOTH"
);
},
{
closed = 1;
nodes = (
"500 232 LINE",
"500 333 LINE",
"142 333 LINE",
"142 232 LINE"
);
}
);
};
layerId = "0DA27741-1AFD-43F2-A947-40AFBF8D6498";
paths = (
{
closed = 1;
nodes = (
"425 -15 OFFCURVE",
"520 42 OFFCURVE",
"561 141 CURVE",
"425 180 LINE",
"405 136 OFFCURVE",
"366 112 OFFCURVE",
"313 112 CURVE SMOOTH",
"228 112 OFFCURVE",
"184 169 OFFCURVE",
"184 270 CURVE SMOOTH",
"184 380 OFFCURVE",
"226 437 OFFCURVE",
"319 437 CURVE SMOOTH",
"398 437 OFFCURVE",
"431 392 OFFCURVE",
"431 282 CURVE SMOOTH",
"431 232 LINE",
"565.535 232 LINE",
"582 428 OFFCURVE",
"483 555 OFFCURVE",
"313 555 CURVE SMOOTH",
"153 555 OFFCURVE",
"40 440 OFFCURVE",
"40 263 CURVE SMOOTH",
"40 101 OFFCURVE",
"155 -15 OFFCURVE",
"321 -15 CURVE SMOOTH"
);
},
{
closed = 1;
nodes = (
"500 232 LINE",
"500 333 LINE",
"142 333 LINE",
"142 232 LINE"
);
}
);
width = 608;
},
{
associatedMasterId = "0DA27741-1AFD-43F2-A947-40AFBF8D6498";
layerId = "A2873047-0ED6-4C67-9B4D-3870B51BD5C6";
width = 600;
},
{
associatedMasterId = "0DA27741-1AFD-43F2-A947-40AFBF8D6498";
layerId = "55314CA7-5524-4D70-B802-98D4FAE25636";
width = 584;
},
{
associatedMasterId = "0DA27741-1AFD-43F2-A947-40AFBF8D6498";
layerId = "13A3DD5D-E91B-4961-8595-F8141D3FA442";
width = 597;
}
);
leftKerningGroup = o;
leftMetricsKey = o;
note = e;
rightKerningGroup = e;
unicode = 0065;
},
{
glyphname = eogonek;
lastChange = "2019-11-12 02:41:12 +0000";
layers = (
{
components = (
{
name = e;
}
);
layerId = "CAA188E2-8C62-414B-93AE-B576BEB044DB";
paths = (
{
closed = 1;
nodes = (
"444 -224 OFFCURVE",
"459 -213 OFFCURVE",
"471 -201 CURVE",
"445 -172 LINE",
"421 -194 OFFCURVE",
"386 -212 OFFCURVE",
"359 -185 CURVE SMOOTH",
"345 -171 OFFCURVE",
"346 -153 OFFCURVE",
"351 -134 CURVE SMOOTH",
"358 -108 OFFCURVE",
"375 -81 OFFCURVE",
"392 -56 CURVE SMOOTH",
"408 -33 OFFCURVE",
"488 59 OFFCURVE",
"516 121 CURVE",
"474 118 LINE",
"445 52 OFFCURVE",
"375 -13 OFFCURVE",
"355 -40 CURVE SMOOTH",
"335 -66 OFFCURVE",
"319 -94 OFFCURVE",
"311 -123 CURVE SMOOTH",
"301 -159 OFFCURVE",
"306 -191 OFFCURVE",
"330 -215 CURVE SMOOTH",
"353 -238 OFFCURVE",
"390 -247 OFFCURVE",
"426 -232 CURVE SMOOTH"
);
}
);
width = 573;
},
{
components = (
{
name = e;
}
);
layerId = "0DA27741-1AFD-43F2-A947-40AFBF8D6498";
paths = (
{
closed = 1;
nodes = (
"511 -220 OFFCURVE",
"527 -205 OFFCURVE",
"537 -187 CURVE",
"490 -125 LINE",
"474 -138 OFFCURVE",
"448 -145 OFFCURVE",
"436 -131 CURVE SMOOTH",
"427 -121 OFFCURVE",
"430 -103 OFFCURVE",
"432 -97 CURVE SMOOTH",
"438 -78 OFFCURVE",
"450 -50 OFFCURVE",
"468 -18 CURVE SMOOTH",
"486 14 OFFCURVE",
"509 53 OFFCURVE",
"540 102 CURVE",
"455 116 LINE",
"430 89 OFFCURVE",
"402 46 OFFCURVE",
"388 24 CURVE SMOOTH",
"374 2 OFFCURVE",
"351 -32 OFFCURVE",
"338 -62 CURVE SMOOTH",
"318 -108 OFFCURVE",
"327 -162 OFFCURVE",
"353 -195 CURVE SMOOTH",
"384 -235 OFFCURVE",
"442 -251 OFFCURVE",
"489 -230 CURVE SMOOTH"
);
}
);
width = 608;
},
{
associatedMasterId = "0DA27741-1AFD-43F2-A947-40AFBF8D6498";
layerId = "A2873047-0ED6-4C67-9B4D-3870B51BD5C6";
width = 600;
},
{
associatedMasterId = "0DA27741-1AFD-43F2-A947-40AFBF8D6498";
layerId = "55314CA7-5524-4D70-B802-98D4FAE25636";
width = 584;
},
{
associatedMasterId = "0DA27741-1AFD-43F2-A947-40AFBF8D6498";
layerId = "13A3DD5D-E91B-4961-8595-F8141D3FA442";
width = 597;
}
);
leftKerningGroup = e;
leftMetricsKey = e;
rightKerningGroup = e;
rightMetricsKey = e;
unicode = 0119;
},
{
glyphname = f;
lastChange = "2019-11-12 02:41:12 +0000";
layers = (
{
layerId = "CAA188E2-8C62-414B-93AE-B576BEB044DB";
paths = (
{
closed = 1;
nodes = (
"170 0 LINE",
"170 597 LINE SMOOTH",
"170 670 OFFCURVE",
"201 697 OFFCURVE",
"264 697 CURVE SMOOTH",
"329 697 LINE",
"329 735 LINE",
"259 735 LINE SMOOTH",
"216 735 OFFCURVE",
"184 726 OFFCURVE",
"160 701 CURVE SMOOTH",
"135 674 OFFCURVE",
"128 643 OFFCURVE",
"128 601 CURVE SMOOTH",
"128 0 LINE"
);
},
{
closed = 1;
nodes = (
"329 498 LINE",
"329 540 LINE",
"30 540 LINE",
"30 498 LINE"
);
}
);
width = 339;
},
{
layerId = "0DA27741-1AFD-43F2-A947-40AFBF8D6498";
paths = (
{
closed = 1;
nodes = (
"251 0 LINE",
"251 570 LINE SMOOTH",
"251 600 OFFCURVE",
"271 625 OFFCURVE",
"314 625 CURVE",
"376 625 LINE",
"376 735 LINE",
"309 735 LINE",
"270 735 OFFCURVE",
"201 741 OFFCURVE",
"151 685 CURVE SMOOTH",
"112 642 OFFCURVE",
"115 579 OFFCURVE",
"115 538 CURVE SMOOTH",
"115 0 LINE"
);
},
{
closed = 1;
nodes = (
"376 435 LINE",
"376 540 LINE",
"30 540 LINE",
"30 435 LINE"
);
}
);
width = 386;
},
{
associatedMasterId = "0DA27741-1AFD-43F2-A947-40AFBF8D6498";
layerId = "A2873047-0ED6-4C67-9B4D-3870B51BD5C6";
width = 600;
},
{
associatedMasterId = "0DA27741-1AFD-43F2-A947-40AFBF8D6498";
layerId = "55314CA7-5524-4D70-B802-98D4FAE25636";
width = 298;
},
{
associatedMasterId = "0DA27741-1AFD-43F2-A947-40AFBF8D6498";
layerId = "13A3DD5D-E91B-4961-8595-F8141D3FA442";
width = 552;
}
);
leftKerningGroup = f;
note = f;
rightKerningGroup = f;
unicode = 0066;
},
{
glyphname = g;
lastChange = "2019-11-13 04:42:42 +0000";
layers = (
{
layerId = "CAA188E2-8C62-414B-93AE-B576BEB044DB";
paths = (
{
closed = 1;
nodes = (
"415 -255 OFFCURVE",
"485 -194 OFFCURVE",
"501 -63 CURVE SMOOTH",
"505 -33 OFFCURVE",
"506 -3 OFFCURVE",
"506 30 CURVE SMOOTH",
"506 540 LINE",
"467 540 LINE",
"467 168 LINE",
"463 168 LINE",
"463 30 LINE SMOOTH",
"463 -130 OFFCURVE",
"421 -212 OFFCURVE",
"276 -212 CURVE SMOOTH",
"209 -212 OFFCURVE",
"137 -184 OFFCURVE",
"101 -110 CURVE",
"64 -135 LINE",
"113 -226 OFFCURVE",
"198 -255 OFFCURVE",
"276 -255 CURVE SMOOTH"
);
},
{
closed = 1;
nodes = (
"418 -15 OFFCURVE",
"499 110 OFFCURVE",
"499 271 CURVE SMOOTH",
"499 435 OFFCURVE",
"418 555 OFFCURVE",
"267 555 CURVE SMOOTH",
"122 555 OFFCURVE",
"40 430 OFFCURVE",
"40 271 CURVE SMOOTH",
"40 109 OFFCURVE",
"122 -15 OFFCURVE",
"275 -15 CURVE SMOOTH"
);
},
{
closed = 1;
nodes = (
"150 27 OFFCURVE",
"85 132 OFFCURVE",
"85 271 CURVE SMOOTH",
"85 409 OFFCURVE",
"146 513 OFFCURVE",
"275 513 CURVE SMOOTH",
"401 513 OFFCURVE",
"467 412 OFFCURVE",
"467 271 CURVE SMOOTH",
"467 132 OFFCURVE",
"402 27 OFFCURVE",
"275 27 CURVE SMOOTH"
);
}
);
width = 576;
},
{
layerId = "0DA27741-1AFD-43F2-A947-40AFBF8D6498";
paths = (
{
closed = 1;
nodes = (
"420 -255 OFFCURVE",
"520 -209 OFFCURVE",
"546 -110 CURVE SMOOTH",
"552 -87 OFFCURVE",
"554 -64 OFFCURVE",
"554 -37 CURVE SMOOTH",
"554 540 LINE",
"435 540 LINE",
"435 122 LINE",
"418 122 LINE",
"418 -35 LINE SMOOTH",
"420 -95 OFFCURVE",
"363 -126 OFFCURVE",
"302 -126 CURVE SMOOTH",
"264 -126 OFFCURVE",
"229 -109 OFFCURVE",
"212 -77 CURVE",
"86 -138 LINE",
"127 -208 OFFCURVE",
"209 -255 OFFCURVE",
"301 -255 CURVE SMOOTH"
);
},
{
closed = 1;
nodes = (
"450 -15 OFFCURVE",
"532 108 OFFCURVE",
"532 270 CURVE SMOOTH",
"532 432 OFFCURVE",
"450 555 OFFCURVE",
"296 555 CURVE SMOOTH",
"141 555 OFFCURVE",
"40 435 OFFCURVE",
"40 270 CURVE SMOOTH",
"40 108 OFFCURVE",
"140 -15 OFFCURVE",
"289 -15 CURVE SMOOTH"
);
},
{
closed = 1;
nodes = (
"223 106 OFFCURVE",
"184 179 OFFCURVE",
"184 270 CURVE SMOOTH",
"184 360 OFFCURVE",
"225 434 OFFCURVE",
"316 434 CURVE SMOOTH",
"401 434 OFFCURVE",
"435 368 OFFCURVE",
"435 270 CURVE SMOOTH",
"435 172 OFFCURVE",
"402 106 OFFCURVE",
"311 106 CURVE SMOOTH"
);
}
);
width = 624;
},
{
associatedMasterId = "0DA27741-1AFD-43F2-A947-40AFBF8D6498";
layerId = "A2873047-0ED6-4C67-9B4D-3870B51BD5C6";
width = 600;
},
{
associatedMasterId = "0DA27741-1AFD-43F2-A947-40AFBF8D6498";
layerId = "55314CA7-5524-4D70-B802-98D4FAE25636";
width = 575;
},
{
associatedMasterId = "0DA27741-1AFD-43F2-A947-40AFBF8D6498";
layerId = "13A3DD5D-E91B-4961-8595-F8141D3FA442";
width = 596;
}
);
leftKerningGroup = g;
leftMetricsKey = o;
note = g;
rightKerningGroup = g;
rightMetricsKey = u;
unicode = 0067;
},
{
glyphname = h;
lastChange = "2019-11-12 02:41:12 +0000";
layers = (
{
background = {
paths = (
{
closed = 1;
nodes = (
"513 0 LINE",
"513 263 LINE SMOOTH",
"515 365 OFFCURVE",
"499 461 OFFCURVE",
"417 517 CURVE SMOOTH",
"375 545 OFFCURVE",
"325 555 OFFCURVE",
"278 551 CURVE SMOOTH",
"230 549 OFFCURVE",
"181 532 OFFCURVE",
"145 498 CURVE SMOOTH",
"109 464 OFFCURVE",
"89 417 OFFCURVE",
"80 372 CURVE SMOOTH",
"73 338 OFFCURVE",
"74 335 OFFCURVE",
"73 237 CURVE",
"112 237 LINE",
"112 281 OFFCURVE",
"110 324 OFFCURVE",
"119 364 CURVE SMOOTH",
"126 404 OFFCURVE",
"144 442 OFFCURVE",
"173 468 CURVE SMOOTH",
"201 495 OFFCURVE",
"240 509 OFFCURVE",
"280 511 CURVE SMOOTH",
"321 513 OFFCURVE",
"361 504 OFFCURVE",
"394 483 CURVE SMOOTH",
"462 437 OFFCURVE",
"471 360 OFFCURVE",
"471 263 CURVE SMOOTH",
"471 0 LINE"
);
},
{
closed = 1;
nodes = (
"112 0 LINE",
"112 295 LINE",
"109 295 LINE",
"109 720 LINE",
"70 720 LINE",
"70 0 LINE"
);
}
);
};
layerId = "CAA188E2-8C62-414B-93AE-B576BEB044DB";
paths = (
{
closed = 1;
nodes = (
"513 0 LINE",
"513 294 LINE SMOOTH",
"513 454 OFFCURVE",
"431 552 OFFCURVE",
"294 552 CURVE SMOOTH",
"175 552 OFFCURVE",
"73 479 OFFCURVE",
"73 294 CURVE",
"112 295 LINE",
"112 411 OFFCURVE",
"162 511 OFFCURVE",
"294 511 CURVE SMOOTH",
"406 511 OFFCURVE",
"471 440 OFFCURVE",
"471 286 CURVE SMOOTH",
"471 0 LINE"
);
},
{
closed = 1;
nodes = (
"112 0 LINE",
"112 295 LINE",
"109 295 LINE",
"109 720 LINE",
"70 720 LINE",
"70 0 LINE"
);
}
);
width = 573;
},
{
background = {
paths = (
{
closed = 1;
nodes = (
"576 0 LINE",
"576 261 LINE",
"576 345 OFFCURVE",
"576 439 OFFCURVE",
"517 497 CURVE SMOOTH",
"465 548 OFFCURVE",
"400 559 OFFCURVE",
"336 555 CURVE SMOOTH",
"287 552 OFFCURVE",
"232 534 OFFCURVE",
"197 492 CURVE SMOOTH",
"157 445 OFFCURVE",
"141 410 OFFCURVE",
"132 357 CURVE",
"129 334 OFFCURVE",
"129 253 OFFCURVE",
"129 235 CURVE",
"207 235 LINE",
"207 272 OFFCURVE",
"208 314 OFFCURVE",
"213 338 CURVE",
"219 368 OFFCURVE",
"233 392 OFFCURVE",
"253 407 CURVE SMOOTH",
"271 420 OFFCURVE",
"292 427 OFFCURVE",
"317 428 CURVE SMOOTH",
"354 429 OFFCURVE",
"383 418 OFFCURVE",
"402 397 CURVE SMOOTH",
"430 367 OFFCURVE",
"438 311 OFFCURVE",
"438 255 CURVE",
"438 0 LINE"
);
},
{
closed = 1;
nodes = (
"207 0 LINE",
"207 350 LINE",
"190 350 LINE",
"190 720 LINE",
"70 720 LINE",
"70 0 LINE"
);
}
);
};
layerId = "0DA27741-1AFD-43F2-A947-40AFBF8D6498";
paths = (
{
closed = 1;
nodes = (
"576 0 LINE",
"576 303 LINE SMOOTH",
"576 348 OFFCURVE",
"576 556 OFFCURVE",
"365 556 CURVE SMOOTH",
"206 556 OFFCURVE",
"129 439 OFFCURVE",
"129 311 CURVE",
"207 274 LINE",
"207 408 OFFCURVE",
"275 428 OFFCURVE",
"322 428 CURVE SMOOTH",
"438 428 OFFCURVE",
"438 304 OFFCURVE",
"438 255 CURVE SMOOTH",
"438 0 LINE"
);
},
{
closed = 1;
nodes = (
"207 0 LINE",
"207 350 LINE",
"190 350 LINE",
"190 720 LINE",
"69 720 LINE",
"69 0 LINE"
);
}
);
width = 636;
},
{
associatedMasterId = "0DA27741-1AFD-43F2-A947-40AFBF8D6498";
layerId = "A2873047-0ED6-4C67-9B4D-3870B51BD5C6";
width = 600;
},
{
associatedMasterId = "0DA27741-1AFD-43F2-A947-40AFBF8D6498";
layerId = "55314CA7-5524-4D70-B802-98D4FAE25636";
width = 564;
},
{
associatedMasterId = "0DA27741-1AFD-43F2-A947-40AFBF8D6498";
layerId = "13A3DD5D-E91B-4961-8595-F8141D3FA442";
width = 594;
}
);
leftKerningGroup = h;
leftMetricsKey = n;
note = h;
rightKerningGroup = h;
rightMetricsKey = n;
unicode = 0068;
},
{
glyphname = i;
lastChange = "2019-11-12 02:41:12 +0000";
layers = (
{
components = (
{
name = idotless;
}
);
layerId = "CAA188E2-8C62-414B-93AE-B576BEB044DB";
paths = (
{
closed = 1;
nodes = (
"122 666 LINE",
"122 730 LINE",
"80 730 LINE",
"80 666 LINE"
);
}
);
width = 202;
},
{
components = (
{
name = idotless;
}
);
layerId = "0DA27741-1AFD-43F2-A947-40AFBF8D6498";
paths = (
{
closed = 1;
nodes = (
"216 615 LINE",
"216 735 LINE",
"80 735 LINE",
"80 615 LINE"
);
}
);
width = 296;
},
{
associatedMasterId = "0DA27741-1AFD-43F2-A947-40AFBF8D6498";
layerId = "A2873047-0ED6-4C67-9B4D-3870B51BD5C6";
width = 600;
},
{
associatedMasterId = "0DA27741-1AFD-43F2-A947-40AFBF8D6498";
layerId = "55314CA7-5524-4D70-B802-98D4FAE25636";
width = 163;
},
{
associatedMasterId = "0DA27741-1AFD-43F2-A947-40AFBF8D6498";
layerId = "13A3DD5D-E91B-4961-8595-F8141D3FA442";
width = 530;
}
);
leftKerningGroup = i;
leftMetricsKey = l;
note = i;
rightMetricsKey = l;
unicode = 0069;
},
{
glyphname = idotless;
lastChange = "2019-11-12 02:41:12 +0000";
layers = (
{
layerId = "CAA188E2-8C62-414B-93AE-B576BEB044DB";
paths = (
{
closed = 1;
nodes = (
"122 0 LINE",
"122 540 LINE",
"80 540 LINE",
"80 0 LINE"
);
}
);
width = 202;
},
{
layerId = "0DA27741-1AFD-43F2-A947-40AFBF8D6498";
paths = (
{
closed = 1;
nodes = (
"216 0 LINE",
"216 540 LINE",
"80 540 LINE",
"80 0 LINE"
);
}
);
width = 296;
},
{
associatedMasterId = "0DA27741-1AFD-43F2-A947-40AFBF8D6498";
layerId = "A2873047-0ED6-4C67-9B4D-3870B51BD5C6";
width = 600;
},
{
associatedMasterId = "0DA27741-1AFD-43F2-A947-40AFBF8D6498";
layerId = "55314CA7-5524-4D70-B802-98D4FAE25636";
width = 163;
},
{
associatedMasterId = "0DA27741-1AFD-43F2-A947-40AFBF8D6498";
layerId = "13A3DD5D-E91B-4961-8595-F8141D3FA442";
width = 530;
}
);
leftKerningGroup = i;
rightKerningGroup = i;
unicode = 0131;
},
{
glyphname = j;
lastChange = "2019-11-12 02:41:12 +0000";
layers = (
{
layerId = "CAA188E2-8C62-414B-93AE-B576BEB044DB";
paths = (
{
closed = 1;
nodes = (
"23 -240 LINE SMOOTH",
"110 -240 OFFCURVE",
"145 -202 OFFCURVE",
"145 -110 CURVE SMOOTH",
"145 540 LINE",
"103 540 LINE",
"103 -115 LINE SMOOTH",
"103 -177 OFFCURVE",
"66 -197 OFFCURVE",
"24 -197 CURVE SMOOTH",
"-10 -197 LINE",
"-10 -240 LINE"
);
},
{
closed = 1;
nodes = (
"145 671 LINE",
"145 735 LINE",
"103 735 LINE",
"103 671 LINE"
);
}
);
width = 225;
},
{
layerId = "0DA27741-1AFD-43F2-A947-40AFBF8D6498";
paths = (
{
closed = 1;
nodes = (
"82 -240 LINE SMOOTH",
"173 -240 OFFCURVE",
"231 -184 OFFCURVE",
"231 -98 CURVE SMOOTH",
"231 540 LINE",
"95 540 LINE",
"95 -32 LINE SMOOTH",
"95 -84 OFFCURVE",
"76 -113 OFFCURVE",
"14 -113 CURVE SMOOTH",
"-10 -113 LINE",
"-10 -240 LINE"
);
},
{
closed = 1;
nodes = (
"231 615 LINE",
"231 735 LINE",
"95 735 LINE",
"95 615 LINE"
);
}
);
width = 301;
},
{
associatedMasterId = "0DA27741-1AFD-43F2-A947-40AFBF8D6498";
layerId = "A2873047-0ED6-4C67-9B4D-3870B51BD5C6";
width = 600;
},
{
associatedMasterId = "0DA27741-1AFD-43F2-A947-40AFBF8D6498";
layerId = "55314CA7-5524-4D70-B802-98D4FAE25636";
width = 189;
},
{
associatedMasterId = "0DA27741-1AFD-43F2-A947-40AFBF8D6498";
layerId = "13A3DD5D-E91B-4961-8595-F8141D3FA442";
width = 534;
}
);
note = j;
unicode = 006A;
},
{
glyphname = k;
lastChange = "2019-11-12 02:41:12 +0000";
layers = (
{
layerId = "CAA188E2-8C62-414B-93AE-B576BEB044DB";
paths = (
{
closed = 1;
nodes = (
"112 0 LINE",
"112 260 LINE",
"416 0 LINE",
"488 0 LINE",
"163 270 LINE",
"445 540 LINE",
"382 540 LINE",
"112 280 LINE",
"112 720 LINE",
"70 720 LINE",
"70 0 LINE"
);
}
);
width = 468;
},
{
layerId = "0DA27741-1AFD-43F2-A947-40AFBF8D6498";
paths = (
{
closed = 1;
nodes = (
"208 0 LINE",
"208 260 LINE",
"395 0 LINE",
"572 0 LINE",
"364 270 LINE",
"559 540 LINE",
"391 540 LINE",
"208 280 LINE",
"208 720 LINE",
"70 720 LINE",
"69 0 LINE"
);
}
);
width = 552;
},
{
associatedMasterId = "0DA27741-1AFD-43F2-A947-40AFBF8D6498";
layerId = "A2873047-0ED6-4C67-9B4D-3870B51BD5C6";
width = 600;
},
{
associatedMasterId = "0DA27741-1AFD-43F2-A947-40AFBF8D6498";
layerId = "55314CA7-5524-4D70-B802-98D4FAE25636";
width = 500;
},
{
associatedMasterId = "0DA27741-1AFD-43F2-A947-40AFBF8D6498";
layerId = "13A3DD5D-E91B-4961-8595-F8141D3FA442";
width = 584;
}
);
leftKerningGroup = k;
leftMetricsKey = n;
note = k;
rightKerningGroup = k;
unicode = 006B;
},
{
glyphname = l;
lastChange = "2019-11-12 02:41:12 +0000";
layers = (
{
layerId = "CAA188E2-8C62-414B-93AE-B576BEB044DB";
paths = (
{
closed = 1;
nodes = (
"122 0 LINE",
"122 735 LINE",
"80 735 LINE",
"80 0 LINE"
);
}
);
width = 202;
},
{
layerId = "0DA27741-1AFD-43F2-A947-40AFBF8D6498";
paths = (
{
closed = 1;
nodes = (
"216 0 LINE",
"216 735 LINE",
"80 735 LINE",
"80 0 LINE"
);
}
);
width = 296;
},
{
associatedMasterId = "0DA27741-1AFD-43F2-A947-40AFBF8D6498";
layerId = "A2873047-0ED6-4C67-9B4D-3870B51BD5C6";
width = 600;
},
{
associatedMasterId = "0DA27741-1AFD-43F2-A947-40AFBF8D6498";
layerId = "55314CA7-5524-4D70-B802-98D4FAE25636";
width = 163;
},
{
associatedMasterId = "0DA27741-1AFD-43F2-A947-40AFBF8D6498";
layerId = "13A3DD5D-E91B-4961-8595-F8141D3FA442";
width = 530;
}
);
leftKerningGroup = n;
note = l;
rightKerningGroup = u;
unicode = 006C;
},
{
glyphname = m;
lastChange = "2019-11-12 02:41:12 +0000";
layers = (
{
background = {
paths = (
{
closed = 1;
nodes = (
"70 0 LINE",
"112 0 LINE",
"112 430 LINE",
"109 430 LINE",
"109 540 LINE",
"70 540 LINE"
);
},
{
closed = 1;
nodes = (
"432 0 LINE",
"433 334 LINE SMOOTH",
"433 417 OFFCURVE",
"431 472 OFFCURVE",
"366 521 CURVE SMOOTH",
"334 545 OFFCURVE",
"294 555 OFFCURVE",
"256 555 CURVE SMOOTH",
"201 555 OFFCURVE",
"148 532 OFFCURVE",
"113 490 CURVE SMOOTH",
"84 455 OFFCURVE",
"73 406 OFFCURVE",
"75 359 CURVE",
"112 359 LINE",
"112 397 OFFCURVE",
"116 430 OFFCURVE",
"142 464 CURVE SMOOTH",
"168 499 OFFCURVE",
"210 517 OFFCURVE",
"255 517 CURVE SMOOTH",
"285 517 OFFCURVE",
"316 507 OFFCURVE",
"339 488 CURVE SMOOTH",
"390 447 OFFCURVE",
"391 404 OFFCURVE",
"391 334 CURVE SMOOTH",
"390 0 LINE"
);
},
{
closed = 1;
nodes = (
"753 0 LINE",
"754 334 LINE SMOOTH",
"754 417 OFFCURVE",
"752 472 OFFCURVE",
"687 521 CURVE SMOOTH",
"655 545 OFFCURVE",
"615 555 OFFCURVE",
"577 555 CURVE SMOOTH",
"522 555 OFFCURVE",
"469 532 OFFCURVE",
"434 490 CURVE SMOOTH",
"405 455 OFFCURVE",
"394 406 OFFCURVE",
"396 359 CURVE",
"433 359 LINE",
"433 397 OFFCURVE",
"437 430 OFFCURVE",
"463 464 CURVE SMOOTH",
"489 499 OFFCURVE",
"531 517 OFFCURVE",
"576 517 CURVE SMOOTH",
"606 517 OFFCURVE",
"637 507 OFFCURVE",
"660 488 CURVE SMOOTH",
"711 447 OFFCURVE",
"712 404 OFFCURVE",
"712 334 CURVE SMOOTH",
"711 0 LINE"
);
}
);
};
layerId = "CAA188E2-8C62-414B-93AE-B576BEB044DB";
paths = (
{
closed = 1;
nodes = (
"753 0 LINE",
"754 375 LINE SMOOTH",
"754 487 OFFCURVE",
"680 555 OFFCURVE",
"578 555 CURVE SMOOTH",
"470 555 OFFCURVE",
"391 478 OFFCURVE",
"396 359 CURVE",
"433 359 LINE",
"433 479 OFFCURVE",
"511 517 OFFCURVE",
"575 517 CURVE SMOOTH",
"652 517 OFFCURVE",
"712 462 OFFCURVE",
"712 372 CURVE SMOOTH",
"711 0 LINE"
);
},
{
closed = 1;
nodes = (
"112 0 LINE",
"112 430 LINE",
"109 430 LINE",
"109 540 LINE",
"70 540 LINE",
"70 0 LINE"
);
},
{
closed = 1;
nodes = (
"432 0 LINE",
"433 372 LINE SMOOTH",
"433 499 OFFCURVE",
"349 555 OFFCURVE",
"258 555 CURVE SMOOTH",
"151 555 OFFCURVE",
"75 479 OFFCURVE",
"75 375 CURVE",
"112 359 LINE",
"112 455 OFFCURVE",
"169 517 OFFCURVE",
"253 517 CURVE SMOOTH",
"335 517 OFFCURVE",
"392 458 OFFCURVE",
"392 365 CURVE SMOOTH",
"391 0 LINE"
);
}
);
width = 814;
},
{
background = {
paths = (
{
closed = 1;
nodes = (
"69 0 LINE",
"206 0 LINE",
"206 361 LINE",
"189 361 LINE",
"189 540 LINE",
"69 540 LINE"
);
},
{
closed = 1;
nodes = (
"531 0 LINE",
"531 329 LINE SMOOTH",
"531 398 OFFCURVE",
"526 454 OFFCURVE",
"479 503 CURVE SMOOTH",
"445 539 OFFCURVE",
"388 553 OFFCURVE",
"343 553 CURVE SMOOTH",
"272 553 OFFCURVE",
"207 517 OFFCURVE",
"171 457 CURVE SMOOTH",
"146 415 OFFCURVE",
"149 373 OFFCURVE",
"149 327 CURVE",
"206 327 LINE",
"206 354 OFFCURVE",
"210 378 OFFCURVE",
"231 402 CURVE SMOOTH",
"248 421 OFFCURVE",
"274 432 OFFCURVE",
"300 432 CURVE SMOOTH",
"326 432 OFFCURVE",
"352 422 OFFCURVE",
"369 403 CURVE SMOOTH",
"388 382 OFFCURVE",
"395 358 OFFCURVE",
"395 319 CURVE SMOOTH",
"395 0 LINE"
);
},
{
closed = 1;
nodes = (
"856 0 LINE",
"856 329 LINE SMOOTH",
"856 398 OFFCURVE",
"851 454 OFFCURVE",
"804 503 CURVE SMOOTH",
"770 539 OFFCURVE",
"713 553 OFFCURVE",
"668 553 CURVE SMOOTH",
"597 553 OFFCURVE",
"532 517 OFFCURVE",
"496 457 CURVE SMOOTH",
"471 415 OFFCURVE",
"474 373 OFFCURVE",
"474 327 CURVE",
"531 327 LINE",
"531 354 OFFCURVE",
"535 378 OFFCURVE",
"556 402 CURVE SMOOTH",
"573 421 OFFCURVE",
"599 432 OFFCURVE",
"625 432 CURVE SMOOTH",
"651 432 OFFCURVE",
"677 422 OFFCURVE",
"694 403 CURVE SMOOTH",
"713 382 OFFCURVE",
"720 358 OFFCURVE",
"720 319 CURVE SMOOTH",
"720 0 LINE"
);
}
);
};
layerId = "0DA27741-1AFD-43F2-A947-40AFBF8D6498";
paths = (
{
closed = 1;
nodes = (
"856 0 LINE",
"856 355 LINE SMOOTH",
"856 473 OFFCURVE",
"792 553 OFFCURVE",
"669 553 CURVE SMOOTH",
"561 553 OFFCURVE",
"474 476 OFFCURVE",
"474 365 CURVE",
"531 327 LINE",
"531 389 OFFCURVE",
"568 432 OFFCURVE",
"625 432 CURVE SMOOTH",
"684 432 OFFCURVE",
"720 390 OFFCURVE",
"720 319 CURVE SMOOTH",
"720 0 LINE"
);
},
{
closed = 1;
nodes = (
"206 0 LINE",
"206 361 LINE",
"189 361 LINE",
"189 540 LINE",
"69 540 LINE",
"69 0 LINE"
);
},
{
closed = 1;
nodes = (
"531 0 LINE",
"531 355 LINE SMOOTH",
"531 463 OFFCURVE",
"474 553 OFFCURVE",
"347 553 CURVE SMOOTH",
"236 553 OFFCURVE",
"149 473 OFFCURVE",
"149 367 CURVE",
"206 327 LINE",
"206 389 OFFCURVE",
"243 432 OFFCURVE",
"300 432 CURVE SMOOTH",
"359 432 OFFCURVE",
"395 390 OFFCURVE",
"395 319 CURVE SMOOTH",
"395 0 LINE"
);
}
);
width = 916;
},
{
associatedMasterId = "0DA27741-1AFD-43F2-A947-40AFBF8D6498";
layerId = "A2873047-0ED6-4C67-9B4D-3870B51BD5C6";
width = 600;
},
{
associatedMasterId = "0DA27741-1AFD-43F2-A947-40AFBF8D6498";
layerId = "55314CA7-5524-4D70-B802-98D4FAE25636";
width = 858;
},
{
associatedMasterId = "0DA27741-1AFD-43F2-A947-40AFBF8D6498";
layerId = "13A3DD5D-E91B-4961-8595-F8141D3FA442";
width = 641;
}
);
leftKerningGroup = m;
leftMetricsKey = n;
note = m;
rightKerningGroup = m;
rightMetricsKey = n;
unicode = 006D;
},
{
glyphname = n;
lastChange = "2019-11-12 02:41:12 +0000";
layers = (
{
layerId = "CAA188E2-8C62-414B-93AE-B576BEB044DB";
paths = (
{
closed = 1;
nodes = (
"513 0 LINE",
"513 294 LINE SMOOTH",
"513 454 OFFCURVE",
"431 552 OFFCURVE",
"294 552 CURVE SMOOTH",
"175 552 OFFCURVE",
"73 479 OFFCURVE",
"73 294 CURVE",
"112 295 LINE",
"112 411 OFFCURVE",
"162 511 OFFCURVE",
"294 511 CURVE SMOOTH",
"406 511 OFFCURVE",
"471 440 OFFCURVE",
"471 286 CURVE SMOOTH",
"471 0 LINE"
);
},
{
closed = 1;
nodes = (
"112 0 LINE",
"112 430 LINE",
"109 430 LINE",
"109 540 LINE",
"70 540 LINE",
"70 0 LINE"
);
}
);
width = 573;
},
{
layerId = "0DA27741-1AFD-43F2-A947-40AFBF8D6498";
paths = (
{
closed = 1;
nodes = (
"576 0 LINE",
"576 303 LINE SMOOTH",
"576 348 OFFCURVE",
"576 556 OFFCURVE",
"365 556 CURVE SMOOTH",
"206 556 OFFCURVE",
"129 439 OFFCURVE",
"129 311 CURVE",
"207 274 LINE",
"207 408 OFFCURVE",
"275 428 OFFCURVE",
"322 428 CURVE SMOOTH",
"438 428 OFFCURVE",
"438 304 OFFCURVE",
"438 255 CURVE SMOOTH",
"438 0 LINE"
);
},
{
closed = 1;
nodes = (
"207 0 LINE",
"207 361 LINE",
"190 361 LINE",
"190 540 LINE",
"69 540 LINE",
"69 0 LINE"
);
}
);
width = 636;
},
{
associatedMasterId = "0DA27741-1AFD-43F2-A947-40AFBF8D6498";
layerId = "A2873047-0ED6-4C67-9B4D-3870B51BD5C6";
width = 600;
},
{
associatedMasterId = "0DA27741-1AFD-43F2-A947-40AFBF8D6498";
layerId = "55314CA7-5524-4D70-B802-98D4FAE25636";
width = 564;
},
{
associatedMasterId = "0DA27741-1AFD-43F2-A947-40AFBF8D6498";
layerId = "13A3DD5D-E91B-4961-8595-F8141D3FA442";
width = 594;
}
);
leftKerningGroup = m;
note = n;
rightKerningGroup = m;
unicode = 006E;
},
{
glyphname = eng;
lastChange = "2019-11-12 02:41:12 +0000";
layers = (
{
components = (
{
name = n;
}
);
layerId = "CAA188E2-8C62-414B-93AE-B576BEB044DB";
paths = (
{
closed = 1;
nodes = (
"491 -172 OFFCURVE",
"513 -152 OFFCURVE",
"513 -95 CURVE SMOOTH",
"513 1 LINE",
"471 1 LINE",
"471 -55 LINE SMOOTH",
"471 -126 OFFCURVE",
"461 -143 OFFCURVE",
"396 -133 CURVE",
"396 -174 LINE",
"416 -179 OFFCURVE",
"433 -181 OFFCURVE",
"461 -178 CURVE SMOOTH"
);
}
);
width = 573;
},
{
components = (
{
name = n;
}
);
layerId = "0DA27741-1AFD-43F2-A947-40AFBF8D6498";
paths = (
{
closed = 1;
nodes = (
"537 -221 OFFCURVE",
"576 -167 OFFCURVE",
"576 -88 CURVE SMOOTH",
"576 2 LINE",
"438 2 LINE",
"438 -66 LINE SMOOTH",
"438 -147 OFFCURVE",
"377 -136 OFFCURVE",
"346 -134 CURVE",
"346 -229 LINE",
"382 -238 OFFCURVE",
"422 -244 OFFCURVE",
"471 -234 CURVE SMOOTH"
);
}
);
width = 636;
},
{
associatedMasterId = "0DA27741-1AFD-43F2-A947-40AFBF8D6498";
layerId = "A2873047-0ED6-4C67-9B4D-3870B51BD5C6";
width = 600;
},
{
associatedMasterId = "0DA27741-1AFD-43F2-A947-40AFBF8D6498";
layerId = "55314CA7-5524-4D70-B802-98D4FAE25636";
width = 564;
},
{
associatedMasterId = "0DA27741-1AFD-43F2-A947-40AFBF8D6498";
layerId = "13A3DD5D-E91B-4961-8595-F8141D3FA442";
width = 594;
}
);
leftKerningGroup = n;
leftMetricsKey = n;
rightKerningGroup = n;
rightMetricsKey = n;
unicode = 014B;
},
{
glyphname = o;
lastChange = "2019-11-12 02:41:12 +0000";
layers = (
{
layerId = "CAA188E2-8C62-414B-93AE-B576BEB044DB";
paths = (
{
closed = 1;
nodes = (
"446 -15 OFFCURVE",
"534 100 OFFCURVE",
"534 271 CURVE SMOOTH",
"534 438 OFFCURVE",
"448 555 OFFCURVE",
"287 555 CURVE SMOOTH",
"130 555 OFFCURVE",
"40 441 OFFCURVE",
"40 271 CURVE SMOOTH",
"40 103 OFFCURVE",
"127 -15 OFFCURVE",
"287 -15 CURVE SMOOTH"
);
},
{
closed = 1;
nodes = (
"154 27 OFFCURVE",
"85 124 OFFCURVE",
"85 271 CURVE SMOOTH",
"85 413 OFFCURVE",
"150 513 OFFCURVE",
"287 513 CURVE SMOOTH",
"422 513 OFFCURVE",
"489 418 OFFCURVE",
"489 271 CURVE SMOOTH",
"489 126 OFFCURVE",
"423 27 OFFCURVE",
"287 27 CURVE SMOOTH"
);
}
);
width = 574;
},
{
layerId = "0DA27741-1AFD-43F2-A947-40AFBF8D6498";
paths = (
{
closed = 1;
nodes = (
"475 -15 OFFCURVE",
"587 102 OFFCURVE",
"587 270 CURVE SMOOTH",
"587 437 OFFCURVE",
"476 555 OFFCURVE",
"313 555 CURVE SMOOTH",
"153 555 OFFCURVE",
"40 439 OFFCURVE",
"40 270 CURVE SMOOTH",
"40 103 OFFCURVE",
"150 -15 OFFCURVE",
"313 -15 CURVE SMOOTH"
);
},
{
closed = 1;
nodes = (
"228 112 OFFCURVE",
"184 173 OFFCURVE",
"184 270 CURVE SMOOTH",
"184 364 OFFCURVE",
"224 428 OFFCURVE",
"313 428 CURVE SMOOTH",
"399 428 OFFCURVE",
"443 366 OFFCURVE",
"443 270 CURVE SMOOTH",
"443 177 OFFCURVE",
"400 112 OFFCURVE",
"313 112 CURVE SMOOTH"
);
}
);
width = 627;
},
{
associatedMasterId = "0DA27741-1AFD-43F2-A947-40AFBF8D6498";
layerId = "A2873047-0ED6-4C67-9B4D-3870B51BD5C6";
width = 600;
},
{
associatedMasterId = "0DA27741-1AFD-43F2-A947-40AFBF8D6498";
layerId = "55314CA7-5524-4D70-B802-98D4FAE25636";
width = 589;
},
{
associatedMasterId = "0DA27741-1AFD-43F2-A947-40AFBF8D6498";
layerId = "13A3DD5D-E91B-4961-8595-F8141D3FA442";
width = 598;
}
);
leftKerningGroup = o;
note = o;
rightKerningGroup = o;
unicode = 006F;
},
{
glyphname = oslash;
lastChange = "2019-11-12 02:41:12 +0000";
layers = (
{
components = (
{
name = o;
}
);
layerId = "CAA188E2-8C62-414B-93AE-B576BEB044DB";
paths = (
{
closed = 1;
nodes = (
"125 79 LINE",
"136 90 LINE",
"467 421 LINE",
"478 432 LINE",
"558 511 LINE",
"528 540 LINE",
"460 473 LINE",
"447 460 LINE",
"109 123 LINE",
"98 112 LINE",
"16 30 LINE",
"46 0 LINE"
);
}
);
width = 574;
},
{
components = (
{
name = o;
}
);
layerId = "0DA27741-1AFD-43F2-A947-40AFBF8D6498";
paths = (
{
closed = 1;
nodes = (
"203 70 LINE",
"228 114 LINE",
"479 365 LINE",
"512 378 LINE",
"599 464 LINE",
"509 555 LINE",
"426 472 LINE",
"416 441 LINE",
"160 186 LINE",
"119 166 LINE",
"28 75 LINE",
"118 -15 LINE"
);
}
);
width = 627;
},
{
associatedMasterId = "0DA27741-1AFD-43F2-A947-40AFBF8D6498";
layerId = "A2873047-0ED6-4C67-9B4D-3870B51BD5C6";
width = 600;
},
{
associatedMasterId = "0DA27741-1AFD-43F2-A947-40AFBF8D6498";
layerId = "55314CA7-5524-4D70-B802-98D4FAE25636";
width = 588;
},
{
associatedMasterId = "0DA27741-1AFD-43F2-A947-40AFBF8D6498";
layerId = "13A3DD5D-E91B-4961-8595-F8141D3FA442";
width = 598;
}
);
leftKerningGroup = o;
rightKerningGroup = o;
unicode = 00F8;
},
{
glyphname = p;
lastChange = "2019-11-12 02:41:12 +0000";
layers = (
{
layerId = "CAA188E2-8C62-414B-93AE-B576BEB044DB";
paths = (
{
closed = 1;
nodes = (
"454 -15 OFFCURVE",
"536 109 OFFCURVE",
"536 271 CURVE SMOOTH",
"536 430 OFFCURVE",
"454 555 OFFCURVE",
"309 555 CURVE SMOOTH",
"158 555 OFFCURVE",
"77 435 OFFCURVE",
"77 271 CURVE SMOOTH",
"77 110 OFFCURVE",
"158 -15 OFFCURVE",
"301 -15 CURVE SMOOTH"
);
},
{
closed = 1;
nodes = (
"112 -240 LINE",
"112 115 LINE",
"109 115 LINE",
"109 540 LINE",
"70 540 LINE",
"70 -240 LINE"
);
},
{
closed = 1;
nodes = (
"174 27 OFFCURVE",
"109 132 OFFCURVE",
"109 271 CURVE SMOOTH",
"109 412 OFFCURVE",
"175 513 OFFCURVE",
"301 513 CURVE SMOOTH",
"430 513 OFFCURVE",
"491 409 OFFCURVE",
"491 271 CURVE SMOOTH",
"491 132 OFFCURVE",
"426 27 OFFCURVE",
"301 27 CURVE SMOOTH"
);
}
);
width = 576;
},
{
layerId = "0DA27741-1AFD-43F2-A947-40AFBF8D6498";
paths = (
{
closed = 1;
nodes = (
"484 -15 OFFCURVE",
"584 108 OFFCURVE",
"584 270 CURVE SMOOTH",
"584 435 OFFCURVE",
"483 555 OFFCURVE",
"328 555 CURVE SMOOTH",
"174 555 OFFCURVE",
"92 432 OFFCURVE",
"92 270 CURVE SMOOTH",
"92 108 OFFCURVE",
"174 -15 OFFCURVE",
"335 -15 CURVE SMOOTH"
);
},
{
closed = 1;
nodes = (
"206 -240 LINE",
"206 170 LINE",
"189 170 LINE",
"189 540 LINE",
"69 540 LINE",
"69 -240 LINE"
);
},
{
closed = 1;
nodes = (
"222 106 OFFCURVE",
"189 172 OFFCURVE",
"189 270 CURVE SMOOTH",
"189 368 OFFCURVE",
"223 434 OFFCURVE",
"308 434 CURVE SMOOTH",
"399 434 OFFCURVE",
"440 360 OFFCURVE",
"440 270 CURVE SMOOTH",
"440 179 OFFCURVE",
"401 106 OFFCURVE",
"313 106 CURVE SMOOTH"
);
}
);
width = 624;
},
{
associatedMasterId = "0DA27741-1AFD-43F2-A947-40AFBF8D6498";
layerId = "A2873047-0ED6-4C67-9B4D-3870B51BD5C6";
width = 600;
},
{
associatedMasterId = "0DA27741-1AFD-43F2-A947-40AFBF8D6498";
layerId = "55314CA7-5524-4D70-B802-98D4FAE25636";
width = 573;
},
{
associatedMasterId = "0DA27741-1AFD-43F2-A947-40AFBF8D6498";
layerId = "13A3DD5D-E91B-4961-8595-F8141D3FA442";
width = 596;
}
);
leftKerningGroup = m;
leftMetricsKey = n;
note = p;
rightKerningGroup = o;
rightMetricsKey = o;
unicode = 0070;
},
{
glyphname = thorn;
lastChange = "2019-11-12 02:41:12 +0000";
layers = (
{
components = (
{
name = p;
}
);
layerId = "CAA188E2-8C62-414B-93AE-B576BEB044DB";
paths = (
{
closed = 1;
nodes = (
"112 391 LINE",
"112 720 LINE",
"70 720 LINE",
"70 391 LINE"
);
}
);
width = 576;
},
{
components = (
{
name = p;
}
);
layerId = "0DA27741-1AFD-43F2-A947-40AFBF8D6498";
paths = (
{
closed = 1;
nodes = (
"207 432 LINE",
"207 720 LINE",
"70 720 LINE",
"70 432 LINE"
);
}
);
width = 624;
},
{
associatedMasterId = "0DA27741-1AFD-43F2-A947-40AFBF8D6498";
layerId = "A2873047-0ED6-4C67-9B4D-3870B51BD5C6";
width = 600;
},
{
associatedMasterId = "0DA27741-1AFD-43F2-A947-40AFBF8D6498";
layerId = "55314CA7-5524-4D70-B802-98D4FAE25636";
width = 573;
},
{
associatedMasterId = "0DA27741-1AFD-43F2-A947-40AFBF8D6498";
layerId = "13A3DD5D-E91B-4961-8595-F8141D3FA442";
width = 596;
}
);
leftKerningGroup = p;
leftMetricsKey = p;
rightKerningGroup = p;
rightMetricsKey = p;
unicode = 00FE;
},
{
glyphname = q;
lastChange = "2019-11-13 04:43:35 +0000";
layers = (
{
layerId = "CAA188E2-8C62-414B-93AE-B576BEB044DB";
paths = (
{
closed = 1;
nodes = (
"418 -15 OFFCURVE",
"499 110 OFFCURVE",
"499 271 CURVE SMOOTH",
"499 435 OFFCURVE",
"418 555 OFFCURVE",
"267 555 CURVE SMOOTH",
"122 555 OFFCURVE",
"40 430 OFFCURVE",
"40 271 CURVE SMOOTH",
"40 109 OFFCURVE",
"122 -15 OFFCURVE",
"275 -15 CURVE SMOOTH"
);
},
{
closed = 1;
nodes = (
"150 27 OFFCURVE",
"85 132 OFFCURVE",
"85 271 CURVE SMOOTH",
"85 409 OFFCURVE",
"146 513 OFFCURVE",
"275 513 CURVE SMOOTH",
"401 513 OFFCURVE",
"467 412 OFFCURVE",
"467 271 CURVE SMOOTH",
"467 132 OFFCURVE",
"402 27 OFFCURVE",
"275 27 CURVE SMOOTH"
);
},
{
closed = 1;
nodes = (
"506 -240 LINE",
"506 540 LINE",
"467 540 LINE",
"467 115 LINE",
"464 115 LINE",
"464 -240 LINE"
);
}
);
width = 576;
},
{
layerId = "0DA27741-1AFD-43F2-A947-40AFBF8D6498";
paths = (
{
closed = 1;
nodes = (
"450 -15 OFFCURVE",
"532 108 OFFCURVE",
"532 270 CURVE SMOOTH",
"532 432 OFFCURVE",
"450 555 OFFCURVE",
"296 555 CURVE SMOOTH",
"141 555 OFFCURVE",
"40 435 OFFCURVE",
"40 270 CURVE SMOOTH",
"40 108 OFFCURVE",
"140 -15 OFFCURVE",
"289 -15 CURVE SMOOTH"
);
},
{
closed = 1;
nodes = (
"223 106 OFFCURVE",
"184 179 OFFCURVE",
"184 270 CURVE SMOOTH",
"184 360 OFFCURVE",
"225 434 OFFCURVE",
"316 434 CURVE SMOOTH",
"401 434 OFFCURVE",
"435 368 OFFCURVE",
"435 270 CURVE SMOOTH",
"435 172 OFFCURVE",
"402 106 OFFCURVE",
"311 106 CURVE SMOOTH"
);
},
{
closed = 1;
nodes = (
"555 -240 LINE",
"555 540 LINE",
"435 540 LINE",
"435 170 LINE",
"418 170 LINE",
"418 -240 LINE"
);
}
);
width = 625;
},
{
associatedMasterId = "0DA27741-1AFD-43F2-A947-40AFBF8D6498";
layerId = "A2873047-0ED6-4C67-9B4D-3870B51BD5C6";
width = 600;
},
{
associatedMasterId = "0DA27741-1AFD-43F2-A947-40AFBF8D6498";
layerId = "55314CA7-5524-4D70-B802-98D4FAE25636";
width = 573;
},
{
associatedMasterId = "0DA27741-1AFD-43F2-A947-40AFBF8D6498";
layerId = "13A3DD5D-E91B-4961-8595-F8141D3FA442";
width = 596;
}
);
leftKerningGroup = q;
note = q;
rightKerningGroup = q;
rightMetricsKey = u;
unicode = 0071;
},
{
glyphname = r;
lastChange = "2019-11-12 02:41:12 +0000";
layers = (
{
layerId = "CAA188E2-8C62-414B-93AE-B576BEB044DB";
paths = (
{
closed = 1;
nodes = (
"112 0 LINE",
"112 266 LINE SMOOTH",
"112 332 OFFCURVE",
"112 415 OFFCURVE",
"169 468 CURVE SMOOTH",
"212 508 OFFCURVE",
"265 510 OFFCURVE",
"310 500 CURVE",
"310 540 LINE",
"263 555 OFFCURVE",
"187 543 OFFCURVE",
"143 500 CURVE SMOOTH",
"126 484 OFFCURVE",
"107 457 OFFCURVE",
"96 428 CURVE",
"109 411 LINE",
"109 540 LINE",
"70 540 LINE",
"70 0 LINE"
);
}
);
width = 335;
},
{
layerId = "0DA27741-1AFD-43F2-A947-40AFBF8D6498";
paths = (
{
closed = 1;
nodes = (
"207 0 LINE",
"207 276 LINE SMOOTH",
"207 338 OFFCURVE",
"233 382 OFFCURVE",
"281 404 CURVE SMOOTH",
"313 419 OFFCURVE",
"357 422 OFFCURVE",
"387 413 CURVE",
"387 540 LINE",
"338 546 OFFCURVE",
"287 538 OFFCURVE",
"248 514 CURVE SMOOTH",
"214 494 OFFCURVE",
"191 462 OFFCURVE",
"177 425 CURVE",
"190 408 LINE",
"190 540 LINE",
"70 540 LINE",
"70 0 LINE"
);
}
);
width = 412;
},
{
associatedMasterId = "0DA27741-1AFD-43F2-A947-40AFBF8D6498";
layerId = "A2873047-0ED6-4C67-9B4D-3870B51BD5C6";
width = 600;
},
{
associatedMasterId = "0DA27741-1AFD-43F2-A947-40AFBF8D6498";
layerId = "55314CA7-5524-4D70-B802-98D4FAE25636";
width = 324;
},
{
associatedMasterId = "0DA27741-1AFD-43F2-A947-40AFBF8D6498";
layerId = "13A3DD5D-E91B-4961-8595-F8141D3FA442";
width = 556;
}
);
leftKerningGroup = r;
note = r;
rightKerningGroup = r;
unicode = 0072;
},
{
glyphname = s;
lastChange = "2019-11-13 04:43:49 +0000";
layers = (
{
background = {
paths = (
{
closed = 1;
nodes = (
"465 488 OFFCURVE",
"379 555 OFFCURVE",
"254 555 CURVE SMOOTH",
"153 555 OFFCURVE",
"56 506 OFFCURVE",
"56 410 CURVE SMOOTH",
"56 330 OFFCURVE",
"124 299 OFFCURVE",
"202 277 CURVE SMOOTH",
"244 265 OFFCURVE",
"276 256 OFFCURVE",
"301 249 CURVE SMOOTH",
"371 230 OFFCURVE",
"428 213 OFFCURVE",
"428 142 CURVE SMOOTH",
"428 69 OFFCURVE",
"358 28 OFFCURVE",
"272 28 CURVE SMOOTH",
"189 28 OFFCURVE",
"104 58 OFFCURVE",
"83 138 CURVE",
"40 130 LINE",
"62 28 OFFCURVE",
"161 -14 OFFCURVE",
"268 -14 CURVE SMOOTH",
"388 -14 OFFCURVE",
"473 39 OFFCURVE",
"473 146 CURVE SMOOTH",
"473 230 OFFCURVE",
"406 266 OFFCURVE",
"318 289 CURVE SMOOTH",
"265 303 OFFCURVE",
"228 312 OFFCURVE",
"202 320 CURVE SMOOTH",
"136 338 OFFCURVE",
"100 366 OFFCURVE",
"100 410 CURVE SMOOTH",
"100 471 OFFCURVE",
"163 515 OFFCURVE",
"253 513 CURVE SMOOTH",
"336 511 OFFCURVE",
"415 482 OFFCURVE",
"431 391 CURVE",
"474 399 LINE"
);
}
);
};
layerId = "CAA188E2-8C62-414B-93AE-B576BEB044DB";
paths = (
{
closed = 1;
nodes = (
"395 -14 OFFCURVE",
"473 45 OFFCURVE",
"473 143 CURVE SMOOTH",
"473 226 OFFCURVE",
"427 262 OFFCURVE",
"265 303 CURVE SMOOTH",
"137 335 OFFCURVE",
"100 360 OFFCURVE",
"100 411 CURVE SMOOTH",
"100 472 OFFCURVE",
"163 514 OFFCURVE",
"253 513 CURVE SMOOTH",
"349 513 OFFCURVE",
"418 466 OFFCURVE",
"431 391 CURVE",
"474 399 LINE",
"465 491 OFFCURVE",
"375 555 OFFCURVE",
"256 555 CURVE SMOOTH",
"138 555 OFFCURVE",
"56 495 OFFCURVE",
"56 409 CURVE SMOOTH",
"56 337 OFFCURVE",
"99 305 OFFCURVE",
"253 263 CURVE SMOOTH",
"400 223 OFFCURVE",
"428 204 OFFCURVE",
"428 145 CURVE SMOOTH",
"428 73 OFFCURVE",
"366 28 OFFCURVE",
"268 28 CURVE SMOOTH",
"172 28 OFFCURVE",
"101 71 OFFCURVE",
"83 138 CURVE",
"40 130 LINE",
"59 40 OFFCURVE",
"145 -14 OFFCURVE",
"267 -14 CURVE SMOOTH"
);
}
);
width = 514;
},
{
background = {
paths = (
{
closed = 1;
nodes = (
"487 502 OFFCURVE",
"388 555 OFFCURVE",
"272 555 CURVE SMOOTH",
"160 555 OFFCURVE",
"58 500 OFFCURVE",
"58 390 CURVE SMOOTH",
"58 314 OFFCURVE",
"102 264 OFFCURVE",
"173 244 CURVE SMOOTH",
"211 233 OFFCURVE",
"256 221 OFFCURVE",
"307 207 CURVE SMOOTH",
"346 196 OFFCURVE",
"368 182 OFFCURVE",
"368 154 CURVE SMOOTH",
"368 119 OFFCURVE",
"334 102 OFFCURVE",
"291 102 CURVE SMOOTH",
"233 102 OFFCURVE",
"190 130 OFFCURVE",
"179 183 CURVE",
"40 162 LINE",
"61 39 OFFCURVE",
"152 -15 OFFCURVE",
"288 -15 CURVE SMOOTH",
"411 -15 OFFCURVE",
"507 48 OFFCURVE",
"507 160 CURVE SMOOTH",
"507 252 OFFCURVE",
"452 294 OFFCURVE",
"337 323 CURVE SMOOTH",
"298 333 OFFCURVE",
"272 340 OFFCURVE",
"245 348 CURVE SMOOTH",
"212 358 OFFCURVE",
"193 370 OFFCURVE",
"193 397 CURVE SMOOTH",
"193 424 OFFCURVE",
"230 440 OFFCURVE",
"276 438 CURVE SMOOTH",
"325 436 OFFCURVE",
"358 408 OFFCURVE",
"363 370 CURVE",
"502 395 LINE"
);
}
);
};
layerId = "0DA27741-1AFD-43F2-A947-40AFBF8D6498";
paths = (
{
closed = 1;
nodes = (
"422 -15 OFFCURVE",
"507 52 OFFCURVE",
"507 163 CURVE SMOOTH",
"507 247 OFFCURVE",
"460 291 OFFCURVE",
"337 323 CURVE SMOOTH",
"211 355 OFFCURVE",
"193 364 OFFCURVE",
"193 392 CURVE SMOOTH",
"193 423 OFFCURVE",
"226 441 OFFCURVE",
"276 438 CURVE SMOOTH",
"327 434 OFFCURVE",
"358 410 OFFCURVE",
"363 370 CURVE",
"502 395 LINE",
"488 493 OFFCURVE",
"400 555 OFFCURVE",
"273 555 CURVE SMOOTH",
"142 555 OFFCURVE",
"58 489 OFFCURVE",
"58 385 CURVE SMOOTH",
"58 302 OFFCURVE",
"106 260 OFFCURVE",
"238 226 CURVE SMOOTH",
"355 195 OFFCURVE",
"368 188 OFFCURVE",
"368 156 CURVE SMOOTH",
"368 122 OFFCURVE",
"340 102 OFFCURVE",
"291 102 CURVE SMOOTH",
"231 102 OFFCURVE",
"190 132 OFFCURVE",
"179 183 CURVE",
"40 162 LINE",
"58 49 OFFCURVE",
"145 -15 OFFCURVE",
"281 -15 CURVE SMOOTH"
);
}
);
width = 547;
},
{
associatedMasterId = "0DA27741-1AFD-43F2-A947-40AFBF8D6498";
layerId = "A2873047-0ED6-4C67-9B4D-3870B51BD5C6";
width = 600;
},
{
associatedMasterId = "0DA27741-1AFD-43F2-A947-40AFBF8D6498";
layerId = "55314CA7-5524-4D70-B802-98D4FAE25636";
width = 516;
},
{
associatedMasterId = "0DA27741-1AFD-43F2-A947-40AFBF8D6498";
layerId = "13A3DD5D-E91B-4961-8595-F8141D3FA442";
width = 587;
}
);
leftKerningGroup = s;
note = s;
rightKerningGroup = s;
unicode = 0073;
},
{
glyphname = germandbls;
lastChange = "2019-11-12 02:41:12 +0000";
layers = (
{
layerId = "CAA188E2-8C62-414B-93AE-B576BEB044DB";
paths = (
{
closed = 1;
nodes = (
"437 -14 OFFCURVE",
"515 72 OFFCURVE",
"515 201 CURVE SMOOTH",
"515 327 OFFCURVE",
"405 389 OFFCURVE",
"345 392 CURVE",
"412 409 OFFCURVE",
"449 472 OFFCURVE",
"449 549 CURVE SMOOTH",
"449 671 OFFCURVE",
"374 735 OFFCURVE",
"260 735 CURVE SMOOTH",
"170 735 OFFCURVE",
"113 697 OFFCURVE",
"85 628 CURVE SMOOTH",
"75 603 OFFCURVE",
"70 569 OFFCURVE",
"70 532 CURVE SMOOTH",
"70 0 LINE",
"116 0 LINE",
"116 521 LINE SMOOTH",
"116 550 OFFCURVE",
"118 580 OFFCURVE",
"126 606 CURVE SMOOTH",
"144 665 OFFCURVE",
"199 693 OFFCURVE",
"261 693 CURVE SMOOTH",
"350 693 OFFCURVE",
"404 640 OFFCURVE",
"404 550 CURVE SMOOTH",
"404 457 OFFCURVE",
"333 415 OFFCURVE",
"260 406 CURVE",
"260 364 LINE",
"386 361 OFFCURVE",
"470 298 OFFCURVE",
"470 201 CURVE SMOOTH",
"470 92 OFFCURVE",
"397 29 OFFCURVE",
"291 29 CURVE SMOOTH",
"257 29 OFFCURVE",
"232 31 OFFCURVE",
"200 42 CURVE",
"200 0 LINE",
"229 -12 OFFCURVE",
"261 -14 OFFCURVE",
"291 -14 CURVE SMOOTH"
);
}
);
width = 575;
},
{
layerId = "0DA27741-1AFD-43F2-A947-40AFBF8D6498";
paths = (
{
closed = 1;
nodes = (
"504 -15 OFFCURVE",
"586 71 OFFCURVE",
"586 214 CURVE SMOOTH",
"586 298 OFFCURVE",
"547 370 OFFCURVE",
"477 399 CURVE",
"513 433 OFFCURVE",
"529 478 OFFCURVE",
"529 529 CURVE SMOOTH",
"529 646 OFFCURVE",
"426 735 OFFCURVE",
"298 735 CURVE SMOOTH",
"201 735 OFFCURVE",
"108 695 OFFCURVE",
"77 594 CURVE SMOOTH",
"71 574 OFFCURVE",
"69 555 OFFCURVE",
"69 530 CURVE SMOOTH",
"69 0 LINE",
"206 0 LINE",
"206 493 LINE SMOOTH",
"206 522 OFFCURVE",
"210 550 OFFCURVE",
"219 566 CURVE SMOOTH",
"237 598 OFFCURVE",
"266 608 OFFCURVE",
"298 608 CURVE SMOOTH",
"346 608 OFFCURVE",
"392 578 OFFCURVE",
"392 526 CURVE SMOOTH",
"392 475 OFFCURVE",
"360 444 OFFCURVE",
"299 440 CURVE",
"299 322 LINE",
"388 322 OFFCURVE",
"450 292 OFFCURVE",
"450 216 CURVE SMOOTH",
"450 149 OFFCURVE",
"405 118 OFFCURVE",
"335 118 CURVE SMOOTH",
"304 118 OFFCURVE",
"279 126 OFFCURVE",
"262 133 CURVE",
"262 0 LINE",
"285 -10 OFFCURVE",
"311 -15 OFFCURVE",
"355 -15 CURVE SMOOTH"
);
}
);
width = 646;
},
{
associatedMasterId = "0DA27741-1AFD-43F2-A947-40AFBF8D6498";
layerId = "A2873047-0ED6-4C67-9B4D-3870B51BD5C6";
width = 600;
},
{
associatedMasterId = "0DA27741-1AFD-43F2-A947-40AFBF8D6498";
layerId = "55314CA7-5524-4D70-B802-98D4FAE25636";
width = 628;
},
{
associatedMasterId = "0DA27741-1AFD-43F2-A947-40AFBF8D6498";
layerId = "13A3DD5D-E91B-4961-8595-F8141D3FA442";
width = 604;
}
);
leftKerningGroup = b;
leftMetricsKey = b;
rightKerningGroup = b;
rightMetricsKey = n;
unicode = 00DF;
},
{
glyphname = t;
lastChange = "2019-11-12 02:41:12 +0000";
layers = (
{
layerId = "CAA188E2-8C62-414B-93AE-B576BEB044DB";
paths = (
{
closed = 1;
nodes = (
"349 40 LINE",
"265 26 OFFCURVE",
"214 34 OFFCURVE",
"190 82 CURVE SMOOTH",
"177 107 OFFCURVE",
"179 132 OFFCURVE",
"179 179 CURVE SMOOTH",
"179 690 LINE",
"137 690 LINE",
"137 179 LINE SMOOTH",
"137 132 OFFCURVE",
"136 98 OFFCURVE",
"152 63 CURVE SMOOTH",
"183 -5 OFFCURVE",
"268 -18 OFFCURVE",
"349 0 CURVE"
);
},
{
closed = 1;
nodes = (
"349 498 LINE",
"349 540 LINE",
"10 540 LINE",
"10 498 LINE"
);
}
);
width = 379;
},
{
layerId = "0DA27741-1AFD-43F2-A947-40AFBF8D6498";
paths = (
{
closed = 1;
nodes = (
"394 113 LINE",
"330 104 OFFCURVE",
"273 102 OFFCURVE",
"249 140 CURVE SMOOTH",
"236 160 OFFCURVE",
"238 195 OFFCURVE",
"238 237 CURVE SMOOTH",
"238 690 LINE",
"102 690 LINE",
"102 229 LINE SMOOTH",
"102 164 OFFCURVE",
"97 116 OFFCURVE",
"124 67 CURVE SMOOTH",
"168 -12 OFFCURVE",
"282 -21 OFFCURVE",
"394 0 CURVE"
);
},
{
closed = 1;
nodes = (
"394 435 LINE",
"394 540 LINE",
"10 540 LINE",
"10 435 LINE"
);
}
);
width = 444;
},
{
associatedMasterId = "0DA27741-1AFD-43F2-A947-40AFBF8D6498";
layerId = "A2873047-0ED6-4C67-9B4D-3870B51BD5C6";
width = 600;
},
{
associatedMasterId = "0DA27741-1AFD-43F2-A947-40AFBF8D6498";
layerId = "55314CA7-5524-4D70-B802-98D4FAE25636";
width = 316;
},
{
associatedMasterId = "0DA27741-1AFD-43F2-A947-40AFBF8D6498";
layerId = "13A3DD5D-E91B-4961-8595-F8141D3FA442";
width = 555;
}
);
leftKerningGroup = t;
note = t;
rightKerningGroup = t;
unicode = 0074;
},
{
glyphname = tbar;
lastChange = "2019-11-12 02:41:12 +0000";
layers = (
{
components = (
{
name = t;
}
);
layerId = "CAA188E2-8C62-414B-93AE-B576BEB044DB";
paths = (
{
closed = 1;
nodes = (
"349 249 LINE",
"349 291 LINE",
"10 291 LINE",
"10 249 LINE"
);
}
);
width = 399;
},
{
components = (
{
name = t;
}
);
layerId = "0DA27741-1AFD-43F2-A947-40AFBF8D6498";
paths = (
{
closed = 1;
nodes = (
"414 228 LINE",
"414 333 LINE",
"10 333 LINE",
"10 228 LINE"
);
}
);
width = 464;
},
{
associatedMasterId = "0DA27741-1AFD-43F2-A947-40AFBF8D6498";
layerId = "A2873047-0ED6-4C67-9B4D-3870B51BD5C6";
width = 600;
},
{
associatedMasterId = "0DA27741-1AFD-43F2-A947-40AFBF8D6498";
layerId = "55314CA7-5524-4D70-B802-98D4FAE25636";
width = 316;
},
{
associatedMasterId = "0DA27741-1AFD-43F2-A947-40AFBF8D6498";
layerId = "13A3DD5D-E91B-4961-8595-F8141D3FA442";
width = 555;
}
);
leftKerningGroup = t;
leftMetricsKey = t;
rightKerningGroup = t;
unicode = 0167;
},
{
glyphname = u;
lastChange = "2019-11-12 02:41:12 +0000";
layers = (
{
layerId = "CAA188E2-8C62-414B-93AE-B576BEB044DB";
paths = (
{
closed = 1;
nodes = (
"398 -12 OFFCURVE",
"500 61 OFFCURVE",
"500 246 CURVE",
"461 245 LINE",
"461 129 OFFCURVE",
"411 29 OFFCURVE",
"279 29 CURVE SMOOTH",
"167 29 OFFCURVE",
"102 100 OFFCURVE",
"102 254 CURVE SMOOTH",
"102 540 LINE",
"60 540 LINE",
"60 246 LINE SMOOTH",
"60 86 OFFCURVE",
"142 -12 OFFCURVE",
"279 -12 CURVE SMOOTH"
);
},
{
closed = 1;
nodes = (
"503 0 LINE",
"503 540 LINE",
"461 540 LINE",
"461 110 LINE",
"464 110 LINE",
"464 0 LINE"
);
}
);
width = 573;
},
{
layerId = "0DA27741-1AFD-43F2-A947-40AFBF8D6498";
paths = (
{
closed = 1;
nodes = (
"430 -16 OFFCURVE",
"507 101 OFFCURVE",
"507 229 CURVE",
"429 266 LINE",
"429 132 OFFCURVE",
"361 112 OFFCURVE",
"314 112 CURVE SMOOTH",
"198 112 OFFCURVE",
"198 236 OFFCURVE",
"198 285 CURVE SMOOTH",
"198 540 LINE",
"60 540 LINE",
"60 237 LINE SMOOTH",
"60 192 OFFCURVE",
"60 -16 OFFCURVE",
"271 -16 CURVE SMOOTH"
);
},
{
closed = 1;
nodes = (
"566 0 LINE",
"566 540 LINE",
"429 540 LINE",
"429 179 LINE",
"446 179 LINE",
"446 0 LINE"
);
}
);
width = 636;
},
{
associatedMasterId = "0DA27741-1AFD-43F2-A947-40AFBF8D6498";
layerId = "A2873047-0ED6-4C67-9B4D-3870B51BD5C6";
width = 600;
},
{
associatedMasterId = "0DA27741-1AFD-43F2-A947-40AFBF8D6498";
layerId = "55314CA7-5524-4D70-B802-98D4FAE25636";
width = 564;
},
{
associatedMasterId = "0DA27741-1AFD-43F2-A947-40AFBF8D6498";
layerId = "13A3DD5D-E91B-4961-8595-F8141D3FA442";
width = 594;
}
);
leftKerningGroup = u;
note = u;
rightKerningGroup = u;
unicode = 0075;
},
{
glyphname = v;
lastChange = "2019-11-12 02:41:12 +0000";
layers = (
{
layerId = "CAA188E2-8C62-414B-93AE-B576BEB044DB";
paths = (
{
closed = 1;
nodes = (
"262 0 LINE",
"458 540 LINE",
"413 540 LINE",
"239 61 LINE",
"64 540 LINE",
"20 540 LINE",
"216 0 LINE"
);
}
);
width = 478;
},
{
layerId = "0DA27741-1AFD-43F2-A947-40AFBF8D6498";
paths = (
{
closed = 1;
nodes = (
"352 0 LINE",
"548 540 LINE",
"412 540 LINE",
"284 166 LINE",
"156 540 LINE",
"20 540 LINE",
"216 0 LINE"
);
}
);
width = 568;
},
{
associatedMasterId = "0DA27741-1AFD-43F2-A947-40AFBF8D6498";
layerId = "A2873047-0ED6-4C67-9B4D-3870B51BD5C6";
width = 600;
},
{
associatedMasterId = "0DA27741-1AFD-43F2-A947-40AFBF8D6498";
layerId = "55314CA7-5524-4D70-B802-98D4FAE25636";
width = 476;
},
{
associatedMasterId = "0DA27741-1AFD-43F2-A947-40AFBF8D6498";
layerId = "13A3DD5D-E91B-4961-8595-F8141D3FA442";
width = 580;
}
);
leftKerningGroup = v;
rightKerningGroup = v;
unicode = 0076;
},
{
glyphname = w;
lastChange = "2019-11-13 04:43:21 +0000";
layers = (
{
layerId = "CAA188E2-8C62-414B-93AE-B576BEB044DB";
paths = (
{
closed = 1;
nodes = (
"229 0 LINE",
"372 469 LINE",
"515 0 LINE",
"559 0 LINE",
"724 540 LINE",
"681 540 LINE",
"537 72 LINE",
"394 540 LINE",
"350 540 LINE",
"207 72 LINE",
"64 540 LINE",
"20 540 LINE",
"185 0 LINE"
);
}
);
width = 744;
},
{
layerId = "0DA27741-1AFD-43F2-A947-40AFBF8D6498";
paths = (
{
closed = 1;
nodes = (
"289 0 LINE",
"407 352 LINE",
"516 0 LINE",
"629 0 LINE",
"794 540 LINE",
"661 540 LINE",
"563 218 LINE",
"464 540 LINE",
"351 540 LINE",
"252 218 LINE",
"154 540 LINE",
"20 541 LINE",
"185 0 LINE"
);
}
);
width = 814;
},
{
associatedMasterId = "0DA27741-1AFD-43F2-A947-40AFBF8D6498";
layerId = "A2873047-0ED6-4C67-9B4D-3870B51BD5C6";
width = 600;
},
{
associatedMasterId = "0DA27741-1AFD-43F2-A947-40AFBF8D6498";
layerId = "55314CA7-5524-4D70-B802-98D4FAE25636";
width = 809;
},
{
associatedMasterId = "0DA27741-1AFD-43F2-A947-40AFBF8D6498";
layerId = "13A3DD5D-E91B-4961-8595-F8141D3FA442";
width = 633;
}
);
leftKerningGroup = v;
note = w;
rightKerningGroup = v;
unicode = 0077;
},
{
glyphname = x;
lastChange = "2019-11-12 02:41:12 +0000";
layers = (
{
layerId = "CAA188E2-8C62-414B-93AE-B576BEB044DB";
paths = (
{
closed = 1;
nodes = (
"63 0 LINE",
"255 242 LINE",
"446 0 LINE",
"499 0 LINE",
"279 273 LINE",
"494 540 LINE",
"442 540 LINE",
"255 304 LINE",
"67 540 LINE",
"15 540 LINE",
"230 273 LINE",
"10 0 LINE"
);
}
);
width = 509;
},
{
layerId = "0DA27741-1AFD-43F2-A947-40AFBF8D6498";
paths = (
{
closed = 1;
nodes = (
"170 0 LINE",
"282 166 LINE",
"393 0 LINE",
"553 0 LINE",
"359 273 LINE",
"548 540 LINE",
"388 540 LINE",
"282 380 LINE",
"174 540 LINE",
"14 540 LINE",
"203 273 LINE",
"10 0 LINE"
);
}
);
width = 563;
},
{
associatedMasterId = "0DA27741-1AFD-43F2-A947-40AFBF8D6498";
layerId = "A2873047-0ED6-4C67-9B4D-3870B51BD5C6";
width = 600;
},
{
associatedMasterId = "0DA27741-1AFD-43F2-A947-40AFBF8D6498";
layerId = "55314CA7-5524-4D70-B802-98D4FAE25636";
width = 484;
},
{
associatedMasterId = "0DA27741-1AFD-43F2-A947-40AFBF8D6498";
layerId = "13A3DD5D-E91B-4961-8595-F8141D3FA442";
width = 581;
}
);
leftKerningGroup = x;
note = x;
rightKerningGroup = x;
unicode = 0078;
},
{
glyphname = y;
lastChange = "2019-11-13 04:43:58 +0000";
layers = (
{
layerId = "CAA188E2-8C62-414B-93AE-B576BEB044DB";
paths = (
{
closed = 1;
nodes = (
"198 -240 LINE",
"481 540 LINE",
"436 540 LINE",
"246 16 LINE",
"278 16 LINE",
"66 540 LINE",
"20 540 LINE",
"257 -42 LINE",
"256 42 LINE",
"151 -240 LINE"
);
}
);
width = 506;
},
{
layerId = "0DA27741-1AFD-43F2-A947-40AFBF8D6498";
paths = (
{
closed = 1;
nodes = (
"265 -240 LINE",
"570 540 LINE",
"434 540 LINE",
"277 131 LINE",
"309 131 LINE",
"151 540 LINE",
"10 540 LINE",
"245 -38 LINE",
"243 46 LINE",
"139 -240 LINE"
);
}
);
width = 570;
},
{
associatedMasterId = "0DA27741-1AFD-43F2-A947-40AFBF8D6498";
layerId = "A2873047-0ED6-4C67-9B4D-3870B51BD5C6";
width = 600;
},
{
associatedMasterId = "0DA27741-1AFD-43F2-A947-40AFBF8D6498";
layerId = "55314CA7-5524-4D70-B802-98D4FAE25636";
width = 456;
},
{
associatedMasterId = "0DA27741-1AFD-43F2-A947-40AFBF8D6498";
layerId = "13A3DD5D-E91B-4961-8595-F8141D3FA442";
width = 577;
},
{
associatedMasterId = "0DA27741-1AFD-43F2-A947-40AFBF8D6498";
components = (
{
name = y2.alt;
transform = "{1, 0, 0, 1, 13, 0}";
}
);
layerId = "0945A77F-B33F-4B17-8B55-225B30755A13";
name = "Dec 28 18, 16:43";
paths = (
{
closed = 1;
nodes = (
"303 157 LINE",
"169 540 LINE",
"33 540 LINE",
"240 -15 LINE",
"143 -240 LINE",
"279 -240 LINE",
"576 540 LINE",
"440 540 LINE"
);
}
);
width = 586;
}
);
leftKerningGroup = y;
note = y;
rightKerningGroup = y;
unicode = 0079;
},
{
glyphname = z;
lastChange = "2019-11-12 02:41:12 +0000";
layers = (
{
layerId = "CAA188E2-8C62-414B-93AE-B576BEB044DB";
paths = (
{
closed = 1;
nodes = (
"463 0 LINE",
"463 44 LINE",
"97 44 LINE",
"487 523 LINE",
"487 540 LINE",
"44 540 LINE",
"44 496 LINE",
"410 496 LINE",
"20 15 LINE",
"20 0 LINE"
);
}
);
width = 527;
},
{
layerId = "0DA27741-1AFD-43F2-A947-40AFBF8D6498";
paths = (
{
closed = 1;
nodes = (
"485 0 LINE",
"485 118 LINE",
"231 118 LINE",
"495 523 LINE",
"495 540 LINE",
"50 540 LINE",
"50 422 LINE",
"285 422 LINE",
"20 17 LINE",
"20 0 LINE"
);
}
);
width = 535;
},
{
associatedMasterId = "0DA27741-1AFD-43F2-A947-40AFBF8D6498";
layerId = "A2873047-0ED6-4C67-9B4D-3870B51BD5C6";
width = 600;
},
{
associatedMasterId = "0DA27741-1AFD-43F2-A947-40AFBF8D6498";
layerId = "55314CA7-5524-4D70-B802-98D4FAE25636";
width = 535;
},
{
associatedMasterId = "0DA27741-1AFD-43F2-A947-40AFBF8D6498";
layerId = "13A3DD5D-E91B-4961-8595-F8141D3FA442";
width = 590;
}
);
leftKerningGroup = z;
note = z;
rightKerningGroup = z;
unicode = 007A;
},
{
glyphname = fl;
lastChange = "2019-11-12 02:41:12 +0000";
layers = (
{
components = (
{
name = f;
},
{
name = l;
transform = "{1, 0, 0, 1, 379, 0}";
}
);
layerId = "CAA188E2-8C62-414B-93AE-B576BEB044DB";
paths = (
{
closed = 1;
nodes = (
"469 498 LINE",
"469 540 LINE",
"309 540 LINE",
"309 498 LINE"
);
}
);
width = 581;
},
{
components = (
{
name = f;
},
{
name = l;
transform = "{1, 0, 0, 1, 415, 0}";
}
);
layerId = "0DA27741-1AFD-43F2-A947-40AFBF8D6498";
paths = (
{
closed = 1;
nodes = (
"500 435 LINE",
"500 540 LINE",
"370 540 LINE",
"370 435 LINE"
);
}
);
width = 711;
},
{
associatedMasterId = "0DA27741-1AFD-43F2-A947-40AFBF8D6498";
layerId = "A2873047-0ED6-4C67-9B4D-3870B51BD5C6";
width = 600;
},
{
associatedMasterId = "0DA27741-1AFD-43F2-A947-40AFBF8D6498";
layerId = "55314CA7-5524-4D70-B802-98D4FAE25636";
width = 660;
},
{
associatedMasterId = "0DA27741-1AFD-43F2-A947-40AFBF8D6498";
layerId = "13A3DD5D-E91B-4961-8595-F8141D3FA442";
width = 610;
}
);
leftKerningGroup = f;
leftMetricsKey = f;
rightKerningGroup = l;
rightMetricsKey = l;
unicode = FB02;
},
{
glyphname = "Be-cy";
lastChange = "2019-11-12 02:41:12 +0000";
layers = (
{
layerId = "CAA188E2-8C62-414B-93AE-B576BEB044DB";
paths = (
{
closed = 1;
nodes = (
"335 0 LINE SMOOTH",
"349 0 OFFCURVE",
"363 1 OFFCURVE",
"381 4 CURVE SMOOTH",
"485 20 OFFCURVE",
"551 108 OFFCURVE",
"551 216 CURVE SMOOTH",
"551 324 OFFCURVE",
"485 412 OFFCURVE",
"381 428 CURVE SMOOTH",
"363 431 OFFCURVE",
"349 432 OFFCURVE",
"335 432 CURVE SMOOTH",
"112 432 LINE",
"112 678 LINE",
"490 678 LINE",
"490 720 LINE",
"70 720 LINE",
"70 0 LINE"
);
},
{
closed = 1;
nodes = (
"112 390 LINE",
"335 390 LINE SMOOTH",
"346 390 OFFCURVE",
"363 389 OFFCURVE",
"379 386 CURVE SMOOTH",
"462 370 OFFCURVE",
"506 297 OFFCURVE",
"506 216 CURVE SMOOTH",
"506 135 OFFCURVE",
"462 62 OFFCURVE",
"379 46 CURVE SMOOTH",
"363 43 OFFCURVE",
"346 42 OFFCURVE",
"335 42 CURVE SMOOTH",
"112 42 LINE"
);
}
);
width = 581;
},
{
layerId = "0DA27741-1AFD-43F2-A947-40AFBF8D6498";
paths = (
{
closed = 1;
nodes = (
"374 0 LINE SMOOTH",
"388 0 OFFCURVE",
"415 1 OFFCURVE",
"434 3 CURVE SMOOTH",
"559 16 OFFCURVE",
"620 113 OFFCURVE",
"620 228 CURVE SMOOTH",
"620 343 OFFCURVE",
"558 440 OFFCURVE",
"434 453 CURVE SMOOTH",
"415 455 OFFCURVE",
"387 456 OFFCURVE",
"374 456 CURVE SMOOTH",
"206 456 LINE",
"206 593 LINE",
"564 593 LINE",
"564 720 LINE",
"70 720 LINE",
"70 0 LINE"
);
},
{
closed = 1;
nodes = (
"206 329 LINE",
"368 329 LINE SMOOTH",
"382 329 OFFCURVE",
"400 328 OFFCURVE",
"414 325 CURVE SMOOTH",
"469 313 OFFCURVE",
"483 267 OFFCURVE",
"483 228 CURVE SMOOTH",
"483 189 OFFCURVE",
"469 143 OFFCURVE",
"414 131 CURVE SMOOTH",
"400 128 OFFCURVE",
"382 127 OFFCURVE",
"368 127 CURVE SMOOTH",
"206 127 LINE"
);
}
);
width = 650;
},
{
associatedMasterId = "0DA27741-1AFD-43F2-A947-40AFBF8D6498";
layerId = "A2873047-0ED6-4C67-9B4D-3870B51BD5C6";
width = 600;
},
{
associatedMasterId = "0DA27741-1AFD-43F2-A947-40AFBF8D6498";
layerId = "55314CA7-5524-4D70-B802-98D4FAE25636";
width = 600;
},
{
associatedMasterId = "0DA27741-1AFD-43F2-A947-40AFBF8D6498";
layerId = "13A3DD5D-E91B-4961-8595-F8141D3FA442";
width = 600;
}
);
leftKerningGroup = N;
leftMetricsKey = B;
rightKerningGroup = P;
rightMetricsKey = P;
unicode = 0411;
},
{
glyphname = "Ge-cy";
lastChange = "2019-11-12 02:41:12 +0000";
layers = (
{
layerId = "CAA188E2-8C62-414B-93AE-B576BEB044DB";
paths = (
{
closed = 1;
nodes = (
"112 0 LINE",
"112 678 LINE",
"510 678 LINE",
"510 720 LINE",
"70 720 LINE",
"70 0 LINE"
);
}
);
width = 520;
},
{
layerId = "0DA27741-1AFD-43F2-A947-40AFBF8D6498";
paths = (
{
closed = 1;
nodes = (
"206 0 LINE",
"206 593 LINE",
"540 593 LINE",
"540 720 LINE",
"70 720 LINE",
"70 0 LINE"
);
}
);
width = 550;
},
{
associatedMasterId = "0DA27741-1AFD-43F2-A947-40AFBF8D6498";
layerId = "A2873047-0ED6-4C67-9B4D-3870B51BD5C6";
width = 600;
},
{
associatedMasterId = "0DA27741-1AFD-43F2-A947-40AFBF8D6498";
layerId = "55314CA7-5524-4D70-B802-98D4FAE25636";
width = 488;
},
{
associatedMasterId = "0DA27741-1AFD-43F2-A947-40AFBF8D6498";
layerId = "13A3DD5D-E91B-4961-8595-F8141D3FA442";
width = 582;
}
);
leftKerningGroup = B;
leftMetricsKey = B;
rightKerningGroup = T;
rightMetricsKey = T;
unicode = 0413;
},
{
glyphname = "Gheupturn-cy";
lastChange = "2019-11-12 02:41:12 +0000";
layers = (
{
layerId = "CAA188E2-8C62-414B-93AE-B576BEB044DB";
paths = (
{
closed = 1;
nodes = (
"112 0 LINE",
"112 678 LINE",
"520 678 LINE",
"520 800 LINE",
"478 800 LINE",
"478 720 LINE",
"70 720 LINE",
"70 0 LINE"
);
}
);
width = 530;
},
{
layerId = "0DA27741-1AFD-43F2-A947-40AFBF8D6498";
paths = (
{
closed = 1;
nodes = (
"206 0 LINE",
"206 593 LINE",
"550 593 LINE",
"550 840 LINE",
"414 840 LINE",
"414 720 LINE",
"70 720 LINE",
"70 0 LINE"
);
}
);
width = 560;
},
{
associatedMasterId = "0DA27741-1AFD-43F2-A947-40AFBF8D6498";
layerId = "A2873047-0ED6-4C67-9B4D-3870B51BD5C6";
width = 600;
},
{
associatedMasterId = "0DA27741-1AFD-43F2-A947-40AFBF8D6498";
layerId = "55314CA7-5524-4D70-B802-98D4FAE25636";
width = 488;
},
{
associatedMasterId = "0DA27741-1AFD-43F2-A947-40AFBF8D6498";
layerId = "13A3DD5D-E91B-4961-8595-F8141D3FA442";
width = 582;
}
);
leftKerningGroup = B;
rightKerningGroup = T;
unicode = 0490;
},
{
glyphname = "De-cy";
lastChange = "2019-11-12 02:41:12 +0000";
layers = (
{
layerId = "CAA188E2-8C62-414B-93AE-B576BEB044DB";
paths = (
{
closed = 1;
nodes = (
"82 -120 LINE",
"82 0 LINE",
"646 0 LINE",
"646 -120 LINE",
"688 -120 LINE",
"688 42 LINE",
"638 42 LINE",
"638 720 LINE",
"211 720 LINE",
"203 556 OFFCURVE",
"200 443 OFFCURVE",
"184 304 CURVE SMOOTH",
"170 184 OFFCURVE",
"164 42 OFFCURVE",
"40 42 CURVE",
"40 -120 LINE"
);
},
{
closed = 1;
nodes = (
"198 78 OFFCURVE",
"214 162 OFFCURVE",
"226 282 CURVE SMOOTH",
"240 418 OFFCURVE",
"246 545 OFFCURVE",
"252 678 CURVE",
"596 678 LINE",
"596 42 LINE",
"149 42 LINE"
);
}
);
width = 728;
},
{
layerId = "0DA27741-1AFD-43F2-A947-40AFBF8D6498";
paths = (
{
closed = 1;
nodes = (
"166 -120 LINE",
"166 0 LINE",
"581 0 LINE",
"581 -120 LINE",
"717 -120 LINE",
"717 127 LINE",
"662 127 LINE",
"662 720 LINE",
"184 721 LINE",
"174 575 OFFCURVE",
"168 466 OFFCURVE",
"158 346 CURVE SMOOTH",
"147 220 OFFCURVE",
"117 127 OFFCURVE",
"30 127 CURVE",
"30 -120 LINE"
);
},
{
closed = 1;
nodes = (
"274 181 OFFCURVE",
"279 219 OFFCURVE",
"289 324 CURVE SMOOTH",
"299 429 OFFCURVE",
"301 495 OFFCURVE",
"308 594 CURVE",
"526 593 LINE",
"526 127 LINE",
"233 127 LINE"
);
}
);
width = 757;
},
{
associatedMasterId = "0DA27741-1AFD-43F2-A947-40AFBF8D6498";
layerId = "A2873047-0ED6-4C67-9B4D-3870B51BD5C6";
width = 600;
},
{
associatedMasterId = "0DA27741-1AFD-43F2-A947-40AFBF8D6498";
layerId = "55314CA7-5524-4D70-B802-98D4FAE25636";
width = 771;
},
{
associatedMasterId = "0DA27741-1AFD-43F2-A947-40AFBF8D6498";
layerId = "13A3DD5D-E91B-4961-8595-F8141D3FA442";
width = 627;
}
);
leftKerningGroup = A;
rightKerningGroup = N;
unicode = 0414;
},
{
glyphname = "Zhe-cy";
lastChange = "2019-11-12 02:41:12 +0000";
layers = (
{
layerId = "CAA188E2-8C62-414B-93AE-B576BEB044DB";
paths = (
{
closed = 1;
nodes = (
"68 0 LINE",
"416 376 LINE",
"416 0 LINE",
"458 0 LINE",
"458 376 LINE",
"806 0 LINE",
"864 0 LINE",
"513 376 LINE",
"832 720 LINE",
"774 720 LINE",
"458 376 LINE",
"458 720 LINE",
"416 720 LINE",
"416 376 LINE",
"100 720 LINE",
"42 720 LINE",
"361 376 LINE",
"10 0 LINE"
);
}
);
width = 874;
},
{
layerId = "0DA27741-1AFD-43F2-A947-40AFBF8D6498";
paths = (
{
closed = 1;
nodes = (
"177 0 LINE",
"394 318 LINE",
"394 0 LINE",
"530 0 LINE",
"530 318 LINE",
"747 0 LINE",
"914 0 LINE",
"659 365 LINE",
"895 720 LINE",
"734 720 LINE",
"530 398 LINE",
"530 720 LINE",
"394 720 LINE",
"394 398 LINE",
"190 720 LINE",
"29 720 LINE",
"265 365 LINE",
"10 0 LINE"
);
}
);
width = 924;
},
{
associatedMasterId = "0DA27741-1AFD-43F2-A947-40AFBF8D6498";
layerId = "A2873047-0ED6-4C67-9B4D-3870B51BD5C6";
width = 600;
},
{
associatedMasterId = "0DA27741-1AFD-43F2-A947-40AFBF8D6498";
layerId = "55314CA7-5524-4D70-B802-98D4FAE25636";
width = 968;
},
{
associatedMasterId = "0DA27741-1AFD-43F2-A947-40AFBF8D6498";
layerId = "13A3DD5D-E91B-4961-8595-F8141D3FA442";
width = 659;
}
);
leftKerningGroup = X;
leftMetricsKey = X;
rightKerningGroup = K;
rightMetricsKey = X;
unicode = 0416;
},
{
glyphname = "Ze-cy";
lastChange = "2019-11-12 02:41:12 +0000";
layers = (
{
layerId = "CAA188E2-8C62-414B-93AE-B576BEB044DB";
paths = (
{
closed = 1;
nodes = (
"441 -15 OFFCURVE",
"531 69 OFFCURVE",
"531 196 CURVE SMOOTH",
"531 291 OFFCURVE",
"481 349 OFFCURVE",
"402 369 CURVE",
"462 394 OFFCURVE",
"508 456 OFFCURVE",
"508 542 CURVE SMOOTH",
"508 668 OFFCURVE",
"408 735 OFFCURVE",
"289 735 CURVE SMOOTH",
"171 735 OFFCURVE",
"88 670 OFFCURVE",
"45 574 CURVE",
"89 557 LINE",
"132 643 OFFCURVE",
"191 693 OFFCURVE",
"288 693 CURVE SMOOTH",
"390 693 OFFCURVE",
"463 638 OFFCURVE",
"463 542 CURVE SMOOTH",
"463 455 OFFCURVE",
"402 396 OFFCURVE",
"294 391 CURVE SMOOTH",
"272 390 OFFCURVE",
"216 390 OFFCURVE",
"211 390 CURVE",
"211 348 LINE",
"220 348 OFFCURVE",
"220 348 OFFCURVE",
"294 345 CURVE SMOOTH",
"404 341 OFFCURVE",
"486 310 OFFCURVE",
"486 198 CURVE SMOOTH",
"486 90 OFFCURVE",
"409 27 OFFCURVE",
"285 27 CURVE SMOOTH",
"171 27 OFFCURVE",
"97 81 OFFCURVE",
"73 158 CURVE",
"30 140 LINE",
"59 55 OFFCURVE",
"140 -15 OFFCURVE",
"284 -15 CURVE SMOOTH"
);
}
);
width = 561;
},
{
layerId = "0DA27741-1AFD-43F2-A947-40AFBF8D6498";
paths = (
{
closed = 1;
nodes = (
"495 -15 OFFCURVE",
"627 73 OFFCURVE",
"627 216 CURVE SMOOTH",
"627 292 OFFCURVE",
"593 342 OFFCURVE",
"533 369 CURVE",
"574 406 OFFCURVE",
"597 464 OFFCURVE",
"597 526 CURVE SMOOTH",
"597 672 OFFCURVE",
"469 735 OFFCURVE",
"342 735 CURVE SMOOTH",
"237 735 OFFCURVE",
"150 692 OFFCURVE",
"100 640 CURVE",
"193 540 LINE",
"217 574 OFFCURVE",
"272 608 OFFCURVE",
"338 608 CURVE SMOOTH",
"408 608 OFFCURVE",
"453 574 OFFCURVE",
"453 521 CURVE SMOOTH",
"453 463 OFFCURVE",
"400 437 OFFCURVE",
"330 434 CURVE SMOOTH",
"313 433 OFFCURVE",
"276 433 OFFCURVE",
"263 433 CURVE",
"263 305 LINE",
"272 305 OFFCURVE",
"274 305 OFFCURVE",
"343 303 CURVE SMOOTH",
"414 301 OFFCURVE",
"483 285 OFFCURVE",
"483 216 CURVE SMOOTH",
"483 164 OFFCURVE",
"443 113 OFFCURVE",
"339 113 CURVE SMOOTH",
"229 113 OFFCURVE",
"179 169 OFFCURVE",
"155 219 CURVE",
"40 139 LINE",
"84 62 OFFCURVE",
"180 -15 OFFCURVE",
"333 -15 CURVE SMOOTH"
);
}
);
width = 667;
},
{
associatedMasterId = "0DA27741-1AFD-43F2-A947-40AFBF8D6498";
layerId = "A2873047-0ED6-4C67-9B4D-3870B51BD5C6";
width = 600;
},
{
associatedMasterId = "0DA27741-1AFD-43F2-A947-40AFBF8D6498";
layerId = "55314CA7-5524-4D70-B802-98D4FAE25636";
width = 594;
},
{
associatedMasterId = "0DA27741-1AFD-43F2-A947-40AFBF8D6498";
layerId = "13A3DD5D-E91B-4961-8595-F8141D3FA442";
width = 599;
}
);
leftKerningGroup = O;
leftMetricsKey = S;
rightKerningGroup = B;
rightMetricsKey = S;
unicode = 0417;
},
{
glyphname = "Iishort-cy";
lastChange = "2019-11-12 02:41:12 +0000";
layers = (
{
components = (
{
name = brevecomb;
transform = "{1, 0, 0, 1, 107, 0}";
}
);
layerId = "CAA188E2-8C62-414B-93AE-B576BEB044DB";
paths = (
{
closed = 1;
nodes = (
"112 0 LINE",
"550 646 LINE",
"550 0 LINE",
"592 0 LINE",
"592 720 LINE",
"550 720 LINE",
"112 75 LINE",
"112 720 LINE",
"70 720 LINE",
"70 0 LINE"
);
}
);
width = 662;
},
{
components = (
{
name = brevecomb;
transform = "{1, 0, 0, 1, 83, 0}";
}
);
layerId = "0DA27741-1AFD-43F2-A947-40AFBF8D6498";
paths = (
{
closed = 1;
nodes = (
"208 0 LINE",
"521 480 LINE",
"521 0 LINE",
"659 0 LINE",
"659 720 LINE",
"521 720 LINE",
"208 240 LINE",
"208 720 LINE",
"70 720 LINE",
"70 0 LINE"
);
}
);
width = 729;
},
{
associatedMasterId = "0DA27741-1AFD-43F2-A947-40AFBF8D6498";
layerId = "A2873047-0ED6-4C67-9B4D-3870B51BD5C6";
width = 600;
},
{
associatedMasterId = "0DA27741-1AFD-43F2-A947-40AFBF8D6498";
layerId = "55314CA7-5524-4D70-B802-98D4FAE25636";
width = 725;
},
{
associatedMasterId = "0DA27741-1AFD-43F2-A947-40AFBF8D6498";
layerId = "13A3DD5D-E91B-4961-8595-F8141D3FA442";
width = 620;
}
);
leftKerningGroup = N;
leftMetricsKey = N;
rightKerningGroup = N;
rightMetricsKey = N;
unicode = 0419;
},
{
glyphname = "Iigrave-cy";
lastChange = "2019-11-12 02:41:12 +0000";
layers = (
{
components = (
{
name = gravecomb;
transform = "{1, 0, 0, 1, 97, 0}";
}
);
layerId = "0DA27741-1AFD-43F2-A947-40AFBF8D6498";
paths = (
{
closed = 1;
nodes = (
"208 0 LINE",
"521 480 LINE",
"521 0 LINE",
"659 0 LINE",
"659 720 LINE",
"521 720 LINE",
"208 240 LINE",
"208 720 LINE",
"70 720 LINE",
"70 0 LINE"
);
}
);
width = 729;
},
{
components = (
{
name = gravecomb;
transform = "{1, 0, 0, 1, 98, 0}";
}
);
layerId = "CAA188E2-8C62-414B-93AE-B576BEB044DB";
paths = (
{
closed = 1;
nodes = (
"112 0 LINE",
"550 646 LINE",
"550 0 LINE",
"592 0 LINE",
"592 720 LINE",
"550 720 LINE",
"112 75 LINE",
"112 720 LINE",
"70 720 LINE",
"70 0 LINE"
);
}
);
width = 662;
}
);
unicode = 040D;
},
{
glyphname = "Kje-cy";
lastChange = "2019-11-12 02:41:12 +0000";
layers = (
{
components = (
{
name = acutecomb;
transform = "{1, 0, 0, 1, 74, 0}";
}
);
layerId = "0DA27741-1AFD-43F2-A947-40AFBF8D6498";
paths = (
{
closed = 1;
nodes = (
"206 0 LINE",
"206 328 LINE",
"493 0 LINE",
"665 0 LINE",
"345 365 LINE",
"646 720 LINE",
"480 720 LINE",
"206 388 LINE",
"206 720 LINE",
"70 720 LINE",
"70 0 LINE"
);
}
);
width = 665;
},
{
components = (
{
name = acutecomb;
transform = "{1, 0, 0, 1, 86, 0}";
}
);
layerId = "CAA188E2-8C62-414B-93AE-B576BEB044DB";
paths = (
{
closed = 1;
nodes = (
"112 0 LINE",
"112 376 LINE",
"500 0 LINE",
"558 0 LINE",
"173 376 LINE",
"526 720 LINE",
"468 720 LINE",
"112 376 LINE",
"112 720 LINE",
"70 720 LINE",
"70 0 LINE"
);
}
);
width = 558;
}
);
unicode = 040C;
},
{
glyphname = "El-cy";
lastChange = "2019-11-12 02:41:12 +0000";
layers = (
{
layerId = "CAA188E2-8C62-414B-93AE-B576BEB044DB";
paths = (
{
closed = 1;
nodes = (
"144 -36 OFFCURVE",
"164 73 OFFCURVE",
"181 194 CURVE SMOOTH",
"206 375 OFFCURVE",
"211 508 OFFCURVE",
"222 678 CURVE",
"572 678 LINE",
"572 0 LINE",
"614 0 LINE",
"614 720 LINE",
"178 720 LINE",
"168 491 OFFCURVE",
"158 373 OFFCURVE",
"136 221 CURVE SMOOTH",
"112 54 OFFCURVE",
"100 33 OFFCURVE",
"20 42 CURVE",
"20 0 LINE"
);
}
);
width = 684;
},
{
layerId = "0DA27741-1AFD-43F2-A947-40AFBF8D6498";
paths = (
{
closed = 1;
nodes = (
"177 -31 OFFCURVE",
"219 51 OFFCURVE",
"247 194 CURVE SMOOTH",
"277 341 OFFCURVE",
"289 518 OFFCURVE",
"294 593 CURVE",
"524 593 LINE",
"524 0 LINE",
"660 0 LINE",
"660 720 LINE",
"169 720 LINE",
"165 633 OFFCURVE",
"154 410 OFFCURVE",
"122 244 CURVE SMOOTH",
"102 138 OFFCURVE",
"81 109 OFFCURVE",
"20 113 CURVE",
"20 0 LINE"
);
}
);
width = 730;
},
{
associatedMasterId = "0DA27741-1AFD-43F2-A947-40AFBF8D6498";
layerId = "A2873047-0ED6-4C67-9B4D-3870B51BD5C6";
width = 600;
},
{
associatedMasterId = "0DA27741-1AFD-43F2-A947-40AFBF8D6498";
layerId = "55314CA7-5524-4D70-B802-98D4FAE25636";
width = 666;
},
{
associatedMasterId = "0DA27741-1AFD-43F2-A947-40AFBF8D6498";
layerId = "13A3DD5D-E91B-4961-8595-F8141D3FA442";
width = 611;
}
);
leftKerningGroup = A;
rightKerningGroup = H;
rightMetricsKey = H;
unicode = 041B;
},
{
glyphname = "Pe-cy";
lastChange = "2019-11-12 02:41:12 +0000";
layers = (
{
layerId = "CAA188E2-8C62-414B-93AE-B576BEB044DB";
paths = (
{
closed = 1;
nodes = (
"112 0 LINE",
"112 678 LINE",
"558 678 LINE",
"558 0 LINE",
"600 0 LINE",
"600 720 LINE",
"70 720 LINE",
"70 0 LINE"
);
}
);
width = 670;
},
{
layerId = "0DA27741-1AFD-43F2-A947-40AFBF8D6498";
paths = (
{
closed = 1;
nodes = (
"206 0 LINE",
"206 593 LINE",
"528 593 LINE",
"528 0 LINE",
"664 0 LINE",
"664 720 LINE",
"70 720 LINE",
"70 0 LINE"
);
}
);
width = 734;
},
{
associatedMasterId = "0DA27741-1AFD-43F2-A947-40AFBF8D6498";
layerId = "A2873047-0ED6-4C67-9B4D-3870B51BD5C6";
width = 600;
},
{
associatedMasterId = "0DA27741-1AFD-43F2-A947-40AFBF8D6498";
layerId = "55314CA7-5524-4D70-B802-98D4FAE25636";
width = 725;
},
{
associatedMasterId = "0DA27741-1AFD-43F2-A947-40AFBF8D6498";
layerId = "13A3DD5D-E91B-4961-8595-F8141D3FA442";
width = 620;
}
);
leftKerningGroup = H;
leftMetricsKey = H;
rightKerningGroup = H;
rightMetricsKey = H;
unicode = 041F;
},
{
glyphname = "U-cy";
lastChange = "2019-11-12 02:41:12 +0000";
layers = (
{
layerId = "CAA188E2-8C62-414B-93AE-B576BEB044DB";
paths = (
{
closed = 1;
nodes = (
"257 0 LINE",
"589 720 LINE",
"544 720 LINE",
"303 202 LINE",
"65 720 LINE",
"20 720 LINE",
"281 155 LINE",
"209 0 LINE"
);
}
);
width = 614;
},
{
layerId = "0DA27741-1AFD-43F2-A947-40AFBF8D6498";
paths = (
{
closed = 1;
nodes = (
"301 0 LINE",
"641 720 LINE",
"496 720 LINE",
"327 345 LINE",
"164 720 LINE",
"10 720 LINE",
"256 202 LINE",
"156 0 LINE"
);
}
);
width = 641;
},
{
associatedMasterId = "0DA27741-1AFD-43F2-A947-40AFBF8D6498";
layerId = "A2873047-0ED6-4C67-9B4D-3870B51BD5C6";
width = 600;
},
{
associatedMasterId = "0DA27741-1AFD-43F2-A947-40AFBF8D6498";
layerId = "55314CA7-5524-4D70-B802-98D4FAE25636";
width = 536;
},
{
associatedMasterId = "0DA27741-1AFD-43F2-A947-40AFBF8D6498";
layerId = "13A3DD5D-E91B-4961-8595-F8141D3FA442";
width = 590;
}
);
leftKerningGroup = X;
leftMetricsKey = y;
rightKerningGroup = Y;
rightMetricsKey = y;
unicode = 0423;
},
{
glyphname = "Ef-cy";
lastChange = "2019-11-12 02:41:12 +0000";
layers = (
{
layerId = "CAA188E2-8C62-414B-93AE-B576BEB044DB";
paths = (
{
closed = 1;
nodes = (
"367 0 LINE",
"367 91 LINE",
"515 66 OFFCURVE",
"662 173 OFFCURVE",
"662 383 CURVE SMOOTH",
"662 593 OFFCURVE",
"515 700 OFFCURVE",
"367 675 CURVE",
"367 720 LINE",
"325 720 LINE",
"325 675 LINE",
"177 700 OFFCURVE",
"30 593 OFFCURVE",
"30 383 CURVE SMOOTH",
"30 173 OFFCURVE",
"177 66 OFFCURVE",
"325 91 CURVE",
"325 0 LINE"
);
},
{
closed = 1;
nodes = (
"191 116 OFFCURVE",
"75 213 OFFCURVE",
"75 383 CURVE SMOOTH",
"75 553 OFFCURVE",
"191 651 OFFCURVE",
"325 633 CURVE",
"325 134 LINE"
);
},
{
closed = 1;
nodes = (
"367 633 LINE",
"501 651 OFFCURVE",
"617 553 OFFCURVE",
"617 383 CURVE SMOOTH",
"617 213 OFFCURVE",
"501 116 OFFCURVE",
"367 134 CURVE"
);
}
);
width = 692;
},
{
layerId = "0DA27741-1AFD-43F2-A947-40AFBF8D6498";
paths = (
{
closed = 1;
nodes = (
"441 0 LINE",
"441 105 LINE",
"589 80 OFFCURVE",
"718 180 OFFCURVE",
"718 380 CURVE SMOOTH",
"718 580 OFFCURVE",
"589 685 OFFCURVE",
"441 660 CURVE",
"441 720 LINE",
"306 720 LINE",
"306 660 LINE",
"158 685 OFFCURVE",
"30 580 OFFCURVE",
"30 380 CURVE SMOOTH",
"30 180 OFFCURVE",
"158 80 OFFCURVE",
"306 105 CURVE",
"306 0 LINE"
);
},
{
closed = 1;
nodes = (
"192 211 OFFCURVE",
"168 300 OFFCURVE",
"168 380 CURVE SMOOTH",
"168 460 OFFCURVE",
"192 556 OFFCURVE",
"306 538 CURVE",
"306 229 LINE"
);
},
{
closed = 1;
nodes = (
"441 538 LINE",
"554 556 OFFCURVE",
"580 451 OFFCURVE",
"580 376 CURVE SMOOTH",
"580 301 OFFCURVE",
"554 211 OFFCURVE",
"441 229 CURVE"
);
}
);
width = 748;
},
{
associatedMasterId = "0DA27741-1AFD-43F2-A947-40AFBF8D6498";
layerId = "A2873047-0ED6-4C67-9B4D-3870B51BD5C6";
width = 600;
},
{
associatedMasterId = "0DA27741-1AFD-43F2-A947-40AFBF8D6498";
layerId = "55314CA7-5524-4D70-B802-98D4FAE25636";
width = 831;
},
{
associatedMasterId = "0DA27741-1AFD-43F2-A947-40AFBF8D6498";
layerId = "13A3DD5D-E91B-4961-8595-F8141D3FA442";
width = 637;
}
);
leftKerningGroup = O;
leftMetricsKey = O;
rightKerningGroup = O;
rightMetricsKey = O;
unicode = 0424;
},
{
glyphname = "Che-cy";
lastChange = "2019-11-12 02:41:12 +0000";
layers = (
{
background = {
paths = (
{
closed = 1;
nodes = (
"557 0 LINE",
"557 720 LINE",
"515 720 LINE",
"515 313 LINE",
"531 371 LINE",
"496 338 OFFCURVE",
"423 305 OFFCURVE",
"327 305 CURVE SMOOTH",
"268 305 OFFCURVE",
"209 317 OFFCURVE",
"165 365 CURVE SMOOTH",
"115 419 OFFCURVE",
"112 484 OFFCURVE",
"112 586 CURVE SMOOTH",
"112 720 LINE",
"70 720 LINE",
"70 586 LINE SMOOTH",
"70 488 OFFCURVE",
"66 406 OFFCURVE",
"130 335 CURVE SMOOTH",
"179 281 OFFCURVE",
"244 261 OFFCURVE",
"329 261 CURVE SMOOTH",
"421 261 OFFCURVE",
"486 285 OFFCURVE",
"536 318 CURVE",
"515 350 LINE",
"515 0 LINE"
);
}
);
};
layerId = "CAA188E2-8C62-414B-93AE-B576BEB044DB";
paths = (
{
closed = 1;
nodes = (
"557 0 LINE",
"557 720 LINE",
"515 720 LINE",
"515 313 LINE",
"531 371 LINE",
"496 338 OFFCURVE",
"423 305 OFFCURVE",
"327 305 CURVE SMOOTH",
"181 305 OFFCURVE",
"112 384 OFFCURVE",
"112 542 CURVE SMOOTH",
"112 720 LINE",
"70 720 LINE",
"70 524 LINE SMOOTH",
"70 372 OFFCURVE",
"141 261 OFFCURVE",
"332 261 CURVE SMOOTH",
"421 261 OFFCURVE",
"486 285 OFFCURVE",
"536 318 CURVE",
"515 350 LINE",
"515 0 LINE"
);
}
);
width = 627;
},
{
background = {
paths = (
{
closed = 1;
nodes = (
"616 0 LINE",
"616 720 LINE",
"479 720 LINE",
"479 359 LINE",
"494 420 LINE",
"469 387 OFFCURVE",
"417 360 OFFCURVE",
"341 360 CURVE SMOOTH",
"305 360 OFFCURVE",
"264 366 OFFCURVE",
"238 402 CURVE SMOOTH",
"208 444 OFFCURVE",
"208 514 OFFCURVE",
"208 554 CURVE SMOOTH",
"208 720 LINE",
"70 720 LINE",
"70 523 LINE SMOOTH",
"70 468 OFFCURVE",
"70 383 OFFCURVE",
"122 314 CURVE SMOOTH",
"170 251 OFFCURVE",
"238 232 OFFCURVE",
"314 232 CURVE SMOOTH",
"387 232 OFFCURVE",
"461 250 OFFCURVE",
"498 283 CURVE",
"479 314 LINE",
"479 0 LINE"
);
}
);
};
layerId = "0DA27741-1AFD-43F2-A947-40AFBF8D6498";
paths = (
{
closed = 1;
nodes = (
"616 0 LINE",
"616 720 LINE",
"479 720 LINE",
"479 359 LINE",
"494 420 LINE",
"473 391 OFFCURVE",
"420 360 OFFCURVE",
"346 360 CURVE SMOOTH",
"208 360 OFFCURVE",
"208 467 OFFCURVE",
"208 554 CURVE SMOOTH",
"208 720 LINE",
"70 720 LINE",
"70 513 LINE SMOOTH",
"70 347 OFFCURVE",
"134 232 OFFCURVE",
"314 232 CURVE SMOOTH",
"387 232 OFFCURVE",
"461 250 OFFCURVE",
"498 283 CURVE",
"479 314 LINE",
"479 0 LINE"
);
}
);
width = 686;
},
{
associatedMasterId = "0DA27741-1AFD-43F2-A947-40AFBF8D6498";
layerId = "A2873047-0ED6-4C67-9B4D-3870B51BD5C6";
width = 600;
},
{
associatedMasterId = "0DA27741-1AFD-43F2-A947-40AFBF8D6498";
layerId = "55314CA7-5524-4D70-B802-98D4FAE25636";
width = 651;
},
{
associatedMasterId = "0DA27741-1AFD-43F2-A947-40AFBF8D6498";
layerId = "13A3DD5D-E91B-4961-8595-F8141D3FA442";
width = 608;
}
);
leftKerningGroup = M;
leftMetricsKey = M;
rightKerningGroup = N;
rightMetricsKey = M;
unicode = 0427;
},
{
glyphname = "Tse-cy";
lastChange = "2019-11-12 02:41:12 +0000";
layers = (
{
layerId = "CAA188E2-8C62-414B-93AE-B576BEB044DB";
paths = (
{
closed = 1;
nodes = (
"684 -80 LINE",
"684 42 LINE",
"610 42 LINE",
"610 720 LINE",
"568 720 LINE",
"568 42 LINE",
"112 42 LINE",
"112 720 LINE",
"70 720 LINE",
"70 0 LINE",
"642 0 LINE",
"642 -80 LINE"
);
}
);
width = 694;
},
{
layerId = "0DA27741-1AFD-43F2-A947-40AFBF8D6498";
paths = (
{
closed = 1;
nodes = (
"751 -120 LINE",
"751 120 LINE",
"670 120 LINE",
"670 700 LINE",
"534 700 LINE",
"534 120 LINE",
"206 120 LINE",
"206 720 LINE",
"70 720 LINE",
"70 0 LINE",
"615 0 LINE",
"615 -120 LINE"
);
}
);
width = 761;
},
{
associatedMasterId = "0DA27741-1AFD-43F2-A947-40AFBF8D6498";
layerId = "A2873047-0ED6-4C67-9B4D-3870B51BD5C6";
width = 600;
},
{
associatedMasterId = "0DA27741-1AFD-43F2-A947-40AFBF8D6498";
layerId = "55314CA7-5524-4D70-B802-98D4FAE25636";
width = 803;
},
{
associatedMasterId = "0DA27741-1AFD-43F2-A947-40AFBF8D6498";
layerId = "13A3DD5D-E91B-4961-8595-F8141D3FA442";
width = 632;
}
);
leftKerningGroup = H;
leftMetricsKey = H;
rightKerningGroup = "tse-cy";
rightMetricsKey = "tse-cy";
unicode = 0426;
},
{
glyphname = "Sha-cy";
lastChange = "2019-11-12 02:41:12 +0000";
layers = (
{
layerId = "CAA188E2-8C62-414B-93AE-B576BEB044DB";
paths = (
{
closed = 1;
nodes = (
"810 0 LINE",
"810 720 LINE",
"768 720 LINE",
"768 42 LINE",
"461 42 LINE",
"461 720 LINE",
"419 720 LINE",
"419 42 LINE",
"112 42 LINE",
"112 720 LINE",
"70 720 LINE",
"70 0 LINE"
);
}
);
width = 880;
},
{
layerId = "0DA27741-1AFD-43F2-A947-40AFBF8D6498";
paths = (
{
closed = 1;
nodes = (
"890 0 LINE",
"890 720 LINE",
"754 720 LINE",
"754 127 LINE",
"548 127 LINE",
"548 720 LINE",
"412 720 LINE",
"412 127 LINE",
"206 127 LINE",
"206 720 LINE",
"70 720 LINE",
"70 0 LINE"
);
}
);
width = 960;
},
{
associatedMasterId = "0DA27741-1AFD-43F2-A947-40AFBF8D6498";
layerId = "A2873047-0ED6-4C67-9B4D-3870B51BD5C6";
width = 600;
},
{
associatedMasterId = "0DA27741-1AFD-43F2-A947-40AFBF8D6498";
layerId = "55314CA7-5524-4D70-B802-98D4FAE25636";
width = 950;
},
{
associatedMasterId = "0DA27741-1AFD-43F2-A947-40AFBF8D6498";
layerId = "13A3DD5D-E91B-4961-8595-F8141D3FA442";
width = 656;
}
);
leftKerningGroup = H;
leftMetricsKey = H;
rightKerningGroup = H;
rightMetricsKey = H;
unicode = 0428;
},
{
glyphname = "Shcha-cy";
lastChange = "2019-11-12 02:41:12 +0000";
layers = (
{
components = (
{
name = "Sha-cy";
}
);
layerId = "CAA188E2-8C62-414B-93AE-B576BEB044DB";
paths = (
{
closed = 1;
nodes = (
"884 -80 LINE",
"884 42 LINE",
"772 42 LINE",
"772 0 LINE",
"842 0 LINE",
"842 -80 LINE"
);
}
);
width = 894;
},
{
components = (
{
name = "Sha-cy";
}
);
layerId = "0DA27741-1AFD-43F2-A947-40AFBF8D6498";
paths = (
{
closed = 1;
nodes = (
"971 -120 LINE",
"971 120 LINE",
"765 120 LINE",
"765 0 LINE",
"835 0 LINE",
"835 -120 LINE"
);
}
);
width = 981;
},
{
associatedMasterId = "0DA27741-1AFD-43F2-A947-40AFBF8D6498";
layerId = "A2873047-0ED6-4C67-9B4D-3870B51BD5C6";
width = 600;
},
{
associatedMasterId = "0DA27741-1AFD-43F2-A947-40AFBF8D6498";
layerId = "55314CA7-5524-4D70-B802-98D4FAE25636";
width = 990;
},
{
associatedMasterId = "0DA27741-1AFD-43F2-A947-40AFBF8D6498";
layerId = "13A3DD5D-E91B-4961-8595-F8141D3FA442";
width = 662;
}
);
leftKerningGroup = H;
rightKerningGroup = "tse-cy";
rightMetricsKey = "tse-cy";
unicode = 0429;
},
{
glyphname = "Dzhe-cy";
lastChange = "2019-11-12 02:41:12 +0000";
layers = (
{
layerId = "CAA188E2-8C62-414B-93AE-B576BEB044DB";
paths = (
{
closed = 1;
nodes = (
"376 -120 LINE",
"376 0 LINE",
"640 0 LINE",
"640 720 LINE",
"598 720 LINE",
"598 42 LINE",
"112 42 LINE",
"112 720 LINE",
"70 720 LINE",
"70 0 LINE",
"334 0 LINE",
"334 -120 LINE"
);
}
);
width = 710;
},
{
layerId = "0DA27741-1AFD-43F2-A947-40AFBF8D6498";
paths = (
{
closed = 1;
nodes = (
"458 -120 LINE",
"458 0 LINE",
"710 0 LINE",
"710 720 LINE",
"574 720 LINE",
"574 127 LINE",
"206 127 LINE",
"206 720 LINE",
"70 720 LINE",
"70 0 LINE",
"322 0 LINE",
"322 -120 LINE"
);
}
);
width = 780;
},
{
associatedMasterId = "0DA27741-1AFD-43F2-A947-40AFBF8D6498";
layerId = "A2873047-0ED6-4C67-9B4D-3870B51BD5C6";
width = 600;
},
{
associatedMasterId = "0DA27741-1AFD-43F2-A947-40AFBF8D6498";
layerId = "55314CA7-5524-4D70-B802-98D4FAE25636";
width = 763;
},
{
associatedMasterId = "0DA27741-1AFD-43F2-A947-40AFBF8D6498";
layerId = "13A3DD5D-E91B-4961-8595-F8141D3FA442";
width = 626;
}
);
leftKerningGroup = "Sha-cy";
leftMetricsKey = "Sha-cy";
rightKerningGroup = "Sha-cy";
rightMetricsKey = "Sha-cy";
unicode = 040F;
},
{
glyphname = "Softsign-cy";
lastChange = "2019-11-12 02:41:12 +0000";
layers = (
{
layerId = "CAA188E2-8C62-414B-93AE-B576BEB044DB";
paths = (
{
closed = 1;
nodes = (
"335 0 LINE SMOOTH",
"349 0 OFFCURVE",
"363 1 OFFCURVE",
"381 4 CURVE SMOOTH",
"485 20 OFFCURVE",
"551 108 OFFCURVE",
"551 216 CURVE SMOOTH",
"551 324 OFFCURVE",
"485 412 OFFCURVE",
"381 428 CURVE SMOOTH",
"363 431 OFFCURVE",
"349 432 OFFCURVE",
"335 432 CURVE SMOOTH",
"112 432 LINE",
"112 720 LINE",
"70 720 LINE",
"70 0 LINE"
);
},
{
closed = 1;
nodes = (
"112 390 LINE",
"335 390 LINE SMOOTH",
"346 390 OFFCURVE",
"363 389 OFFCURVE",
"379 386 CURVE SMOOTH",
"462 370 OFFCURVE",
"506 297 OFFCURVE",
"506 216 CURVE SMOOTH",
"506 135 OFFCURVE",
"462 62 OFFCURVE",
"379 46 CURVE SMOOTH",
"363 43 OFFCURVE",
"346 42 OFFCURVE",
"335 42 CURVE SMOOTH",
"112 42 LINE"
);
}
);
width = 591;
},
{
layerId = "0DA27741-1AFD-43F2-A947-40AFBF8D6498";
paths = (
{
closed = 1;
nodes = (
"373 0 LINE SMOOTH",
"387 0 OFFCURVE",
"414 1 OFFCURVE",
"433 4 CURVE SMOOTH",
"562 24 OFFCURVE",
"619 117 OFFCURVE",
"619 238 CURVE SMOOTH",
"619 359 OFFCURVE",
"561 452 OFFCURVE",
"433 472 CURVE SMOOTH",
"414 475 OFFCURVE",
"386 476 OFFCURVE",
"373 476 CURVE SMOOTH",
"205 476 LINE",
"205 720 LINE",
"69 720 LINE",
"69 0 LINE"
);
},
{
closed = 1;
nodes = (
"205 349 LINE",
"367 349 LINE SMOOTH",
"381 349 OFFCURVE",
"399 348 OFFCURVE",
"413 344 CURVE SMOOTH",
"468 329 OFFCURVE",
"482 277 OFFCURVE",
"482 238 CURVE SMOOTH",
"482 199 OFFCURVE",
"468 147 OFFCURVE",
"413 132 CURVE SMOOTH",
"399 128 OFFCURVE",
"381 127 OFFCURVE",
"367 127 CURVE SMOOTH",
"205 127 LINE"
);
}
);
width = 659;
},
{
associatedMasterId = "0DA27741-1AFD-43F2-A947-40AFBF8D6498";
layerId = "A2873047-0ED6-4C67-9B4D-3870B51BD5C6";
width = 600;
},
{
associatedMasterId = "0DA27741-1AFD-43F2-A947-40AFBF8D6498";
layerId = "55314CA7-5524-4D70-B802-98D4FAE25636";
width = 588;
},
{
associatedMasterId = "0DA27741-1AFD-43F2-A947-40AFBF8D6498";
layerId = "13A3DD5D-E91B-4961-8595-F8141D3FA442";
width = 598;
}
);
leftKerningGroup = H;
leftMetricsKey = b;
rightKerningGroup = B;
rightMetricsKey = b;
unicode = 042C;
},
{
glyphname = "Hardsign-cy";
lastChange = "2019-11-12 02:41:12 +0000";
layers = (
{
layerId = "CAA188E2-8C62-414B-93AE-B576BEB044DB";
paths = (
{
closed = 1;
nodes = (
"345 0 LINE SMOOTH",
"359 0 OFFCURVE",
"373 1 OFFCURVE",
"391 4 CURVE SMOOTH",
"495 20 OFFCURVE",
"561 108 OFFCURVE",
"561 216 CURVE SMOOTH",
"561 324 OFFCURVE",
"495 412 OFFCURVE",
"391 428 CURVE SMOOTH",
"373 431 OFFCURVE",
"359 432 OFFCURVE",
"345 432 CURVE SMOOTH",
"122 432 LINE",
"122 720 LINE",
"-10 720 LINE",
"-10 678 LINE",
"80 678 LINE",
"80 0 LINE"
);
},
{
closed = 1;
nodes = (
"122 390 LINE",
"345 390 LINE SMOOTH",
"356 390 OFFCURVE",
"373 389 OFFCURVE",
"389 386 CURVE SMOOTH",
"472 370 OFFCURVE",
"516 297 OFFCURVE",
"516 216 CURVE SMOOTH",
"516 135 OFFCURVE",
"472 62 OFFCURVE",
"389 46 CURVE SMOOTH",
"373 43 OFFCURVE",
"356 42 OFFCURVE",
"345 42 CURVE SMOOTH",
"122 42 LINE"
);
}
);
width = 591;
},
{
layerId = "0DA27741-1AFD-43F2-A947-40AFBF8D6498";
paths = (
{
closed = 1;
nodes = (
"404 0 LINE SMOOTH",
"418 0 OFFCURVE",
"445 1 OFFCURVE",
"464 4 CURVE SMOOTH",
"593 24 OFFCURVE",
"650 117 OFFCURVE",
"650 238 CURVE SMOOTH",
"650 359 OFFCURVE",
"592 452 OFFCURVE",
"464 472 CURVE SMOOTH",
"445 475 OFFCURVE",
"417 476 OFFCURVE",
"404 476 CURVE SMOOTH",
"236 476 LINE",
"236 720 LINE",
"0 720 LINE",
"0 615 LINE",
"100 615 LINE",
"100 0 LINE"
);
},
{
closed = 1;
nodes = (
"236 349 LINE",
"398 349 LINE SMOOTH",
"412 349 OFFCURVE",
"430 348 OFFCURVE",
"444 344 CURVE SMOOTH",
"499 329 OFFCURVE",
"513 277 OFFCURVE",
"513 238 CURVE SMOOTH",
"513 199 OFFCURVE",
"499 147 OFFCURVE",
"444 132 CURVE SMOOTH",
"430 128 OFFCURVE",
"412 127 OFFCURVE",
"398 127 CURVE SMOOTH",
"236 127 LINE"
);
}
);
width = 672;
},
{
associatedMasterId = "0DA27741-1AFD-43F2-A947-40AFBF8D6498";
layerId = "A2873047-0ED6-4C67-9B4D-3870B51BD5C6";
width = 600;
},
{
associatedMasterId = "0DA27741-1AFD-43F2-A947-40AFBF8D6498";
layerId = "55314CA7-5524-4D70-B802-98D4FAE25636";
width = 569;
},
{
associatedMasterId = "0DA27741-1AFD-43F2-A947-40AFBF8D6498";
layerId = "13A3DD5D-E91B-4961-8595-F8141D3FA442";
width = 595;
}
);
leftKerningGroup = T;
rightKerningGroup = B;
unicode = 042A;
},
{
glyphname = "Nje-cy";
lastChange = "2019-11-12 02:41:12 +0000";
layers = (
{
components = (
{
alignment = -1;
name = "Softsign-cy";
transform = "{1, 0, 0, 1, 438, 0}";
}
);
layerId = "CAA188E2-8C62-414B-93AE-B576BEB044DB";
paths = (
{
closed = 1;
nodes = (
"112 0 LINE",
"112 390 LINE",
"536 390 LINE",
"536 432 LINE",
"112 432 LINE",
"112 720 LINE",
"70 720 LINE",
"70 0 LINE"
);
}
);
width = 1029;
},
{
components = (
{
alignment = -1;
name = "Softsign-cy";
transform = "{1, 0, 0, 1, 458, 0}";
}
);
layerId = "0DA27741-1AFD-43F2-A947-40AFBF8D6498";
paths = (
{
closed = 1;
nodes = (
"206 0 LINE",
"206 348 LINE",
"590 348 LINE",
"590 475 LINE",
"206 475 LINE",
"206 720 LINE",
"70 720 LINE",
"70 0 LINE"
);
}
);
width = 1117;
},
{
associatedMasterId = "0DA27741-1AFD-43F2-A947-40AFBF8D6498";
layerId = "A2873047-0ED6-4C67-9B4D-3870B51BD5C6";
width = 600;
},
{
associatedMasterId = "0DA27741-1AFD-43F2-A947-40AFBF8D6498";
layerId = "55314CA7-5524-4D70-B802-98D4FAE25636";
width = 1138;
},
{
associatedMasterId = "0DA27741-1AFD-43F2-A947-40AFBF8D6498";
layerId = "13A3DD5D-E91B-4961-8595-F8141D3FA442";
width = 686;
}
);
leftKerningGroup = "En-cy";
leftMetricsKey = "En-cy";
rightKerningGroup = "Softsign-cy";
rightMetricsKey = "Softsign-cy";
unicode = 040A;
},
{
glyphname = "Ereversed-cy";
lastChange = "2019-11-12 02:41:12 +0000";
layers = (
{
layerId = "CAA188E2-8C62-414B-93AE-B576BEB044DB";
paths = (
{
closed = 1;
nodes = (
"553 -15 OFFCURVE",
"667 150 OFFCURVE",
"662 360 CURVE SMOOTH",
"657 585 OFFCURVE",
"549 735 OFFCURVE",
"339 735 CURVE SMOOTH",
"182 735 OFFCURVE",
"66 644 OFFCURVE",
"30 486 CURVE",
"74 479 LINE",
"102 611 OFFCURVE",
"199 690 OFFCURVE",
"339 692 CURVE SMOOTH",
"516 694 OFFCURVE",
"610 564 OFFCURVE",
"617 381 CURVE",
"347 381 LINE",
"347 339 LINE",
"617 339 LINE",
"615 263 OFFCURVE",
"602 192 OFFCURVE",
"551 124 CURVE SMOOTH",
"501 57 OFFCURVE",
"425 28 OFFCURVE",
"339 27 CURVE SMOOTH",
"211 25 OFFCURVE",
"112 100 OFFCURVE",
"77 228 CURVE",
"35 216 LINE",
"69 73 OFFCURVE",
"186 -15 OFFCURVE",
"339 -15 CURVE SMOOTH"
);
}
);
width = 692;
},
{
layerId = "0DA27741-1AFD-43F2-A947-40AFBF8D6498";
paths = (
{
closed = 1;
nodes = (
"567 -15 OFFCURVE",
"695 150 OFFCURVE",
"695 360 CURVE SMOOTH",
"695 583 OFFCURVE",
"564 735 OFFCURVE",
"355 735 CURVE SMOOTH",
"183 735 OFFCURVE",
"66 645 OFFCURVE",
"30 488 CURVE",
"166 469 LINE",
"190 552 OFFCURVE",
"256 606 OFFCURVE",
"346 607 CURVE SMOOTH",
"460 609 OFFCURVE",
"530 534 OFFCURVE",
"548 424 CURVE",
"295 424 LINE",
"295 297 LINE",
"547 297 LINE",
"541 256 OFFCURVE",
"528 217 OFFCURVE",
"503 185 CURVE SMOOTH",
"468 137 OFFCURVE",
"408 114 OFFCURVE",
"346 113 CURVE SMOOTH",
"258 112 OFFCURVE",
"193 168 OFFCURVE",
"168 245 CURVE",
"35 212 LINE",
"81 59 OFFCURVE",
"193 -15 OFFCURVE",
"355 -15 CURVE SMOOTH"
);
}
);
width = 725;
},
{
associatedMasterId = "0DA27741-1AFD-43F2-A947-40AFBF8D6498";
layerId = "A2873047-0ED6-4C67-9B4D-3870B51BD5C6";
width = 600;
},
{
associatedMasterId = "0DA27741-1AFD-43F2-A947-40AFBF8D6498";
layerId = "55314CA7-5524-4D70-B802-98D4FAE25636";
width = 683;
},
{
associatedMasterId = "0DA27741-1AFD-43F2-A947-40AFBF8D6498";
layerId = "13A3DD5D-E91B-4961-8595-F8141D3FA442";
width = 613;
}
);
leftKerningGroup = X;
leftMetricsKey = O;
rightKerningGroup = O;
rightMetricsKey = O;
unicode = 042D;
},
{
glyphname = "Tshe-cy";
lastChange = "2019-11-12 02:41:12 +0000";
layers = (
{
components = (
{
name = "Shha-cy";
}
);
layerId = "CAA188E2-8C62-414B-93AE-B576BEB044DB";
paths = (
{
closed = 1;
nodes = (
"270 678 LINE",
"270 720 LINE",
"0 720 LINE",
"0 678 LINE"
);
}
);
width = 627;
},
{
components = (
{
name = "Shha-cy";
}
);
layerId = "0DA27741-1AFD-43F2-A947-40AFBF8D6498";
paths = (
{
closed = 1;
nodes = (
"360 600 LINE",
"360 720 LINE",
"0 720 LINE",
"0 600 LINE"
);
}
);
width = 686;
},
{
associatedMasterId = "0DA27741-1AFD-43F2-A947-40AFBF8D6498";
layerId = "A2873047-0ED6-4C67-9B4D-3870B51BD5C6";
width = 600;
},
{
associatedMasterId = "0DA27741-1AFD-43F2-A947-40AFBF8D6498";
layerId = "55314CA7-5524-4D70-B802-98D4FAE25636";
width = 651;
},
{
associatedMasterId = "0DA27741-1AFD-43F2-A947-40AFBF8D6498";
layerId = "13A3DD5D-E91B-4961-8595-F8141D3FA442";
width = 608;
}
);
leftKerningGroup = V;
rightKerningGroup = B;
rightMetricsKey = "Shha-cy";
unicode = 040B;
},
{
glyphname = "Iu-cy";
lastChange = "2019-11-12 02:41:12 +0000";
layers = (
{
components = (
{
name = "Oval-condensed";
transform = "{1, 0, 0, 1, 280, 0}";
}
);
layerId = "CAA188E2-8C62-414B-93AE-B576BEB044DB";
paths = (
{
closed = 1;
nodes = (
"112 0 LINE",
"112 339 LINE",
"346 339 LINE",
"346 381 LINE",
"112 381 LINE",
"112 720 LINE",
"70 720 LINE",
"70 0 LINE"
);
}
);
width = 898;
},
{
components = (
{
name = "Oval-condensed";
transform = "{1, 0, 0, 1, 280, 0}";
}
);
layerId = "0DA27741-1AFD-43F2-A947-40AFBF8D6498";
paths = (
{
closed = 1;
nodes = (
"206 0 LINE",
"206 292 LINE",
"326 292 LINE",
"326 428 LINE",
"206 428 LINE",
"206 720 LINE",
"70 720 LINE",
"70 0 LINE"
);
}
);
width = 956;
},
{
associatedMasterId = "0DA27741-1AFD-43F2-A947-40AFBF8D6498";
layerId = "A2873047-0ED6-4C67-9B4D-3870B51BD5C6";
width = 600;
},
{
associatedMasterId = "0DA27741-1AFD-43F2-A947-40AFBF8D6498";
layerId = "55314CA7-5524-4D70-B802-98D4FAE25636";
width = 1084;
},
{
associatedMasterId = "0DA27741-1AFD-43F2-A947-40AFBF8D6498";
layerId = "13A3DD5D-E91B-4961-8595-F8141D3FA442";
width = 677;
}
);
leftKerningGroup = H;
leftMetricsKey = H;
rightKerningGroup = O;
rightMetricsKey = O;
unicode = 042E;
},
{
glyphname = "Dje-cy";
lastChange = "2019-11-12 02:41:12 +0000";
layers = (
{
layerId = "CAA188E2-8C62-414B-93AE-B576BEB044DB";
paths = (
{
closed = 1;
nodes = (
"112 0 LINE",
"112 238 LINE SMOOTH",
"112 283 OFFCURVE",
"112 334 OFFCURVE",
"125 380 CURVE SMOOTH",
"152 474 OFFCURVE",
"223 513 OFFCURVE",
"330 513 CURVE SMOOTH",
"472 513 OFFCURVE",
"544 445 OFFCURVE",
"544 291 CURVE SMOOTH",
"544 131 OFFCURVE",
"469 42 OFFCURVE",
"343 42 CURVE",
"343 0 LINE",
"507 0 OFFCURVE",
"586 116 OFFCURVE",
"586 284 CURVE SMOOTH",
"586 467 OFFCURVE",
"493 555 OFFCURVE",
"330 555 CURVE SMOOTH",
"230 555 OFFCURVE",
"150 522 OFFCURVE",
"109 449 CURVE",
"109 678 LINE",
"270 678 LINE",
"270 720 LINE",
"0 720 LINE",
"0 678 LINE",
"70 678 LINE",
"70 0 LINE"
);
}
);
width = 626;
},
{
layerId = "0DA27741-1AFD-43F2-A947-40AFBF8D6498";
paths = (
{
closed = 1;
nodes = (
"217 0 LINE",
"217 259 LINE SMOOTH",
"217 286 OFFCURVE",
"220 319 OFFCURVE",
"227 341 CURVE SMOOTH",
"242 389 OFFCURVE",
"289 424 OFFCURVE",
"367 424 CURVE SMOOTH",
"446 424 OFFCURVE",
"508 387 OFFCURVE",
"508 278 CURVE SMOOTH",
"508 203 OFFCURVE",
"479 138 OFFCURVE",
"373 138 CURVE",
"373 0 LINE",
"563 0 OFFCURVE",
"646 108 OFFCURVE",
"646 279 CURVE SMOOTH",
"646 459 OFFCURVE",
"553 555 OFFCURVE",
"387 555 CURVE SMOOTH",
"309 555 OFFCURVE",
"246 534 OFFCURVE",
"200 494 CURVE",
"200 600 LINE",
"360 600 LINE",
"360 720 LINE",
"0 720 LINE",
"0 600 LINE",
"80 600 LINE",
"80 0 LINE"
);
}
);
width = 686;
},
{
associatedMasterId = "0DA27741-1AFD-43F2-A947-40AFBF8D6498";
layerId = "A2873047-0ED6-4C67-9B4D-3870B51BD5C6";
width = 600;
},
{
associatedMasterId = "0DA27741-1AFD-43F2-A947-40AFBF8D6498";
layerId = "55314CA7-5524-4D70-B802-98D4FAE25636";
width = 568;
},
{
associatedMasterId = "0DA27741-1AFD-43F2-A947-40AFBF8D6498";
layerId = "13A3DD5D-E91B-4961-8595-F8141D3FA442";
width = 595;
}
);
leftKerningGroup = T;
rightKerningGroup = b;
rightMetricsKey = b;
unicode = 0402;
},
{
glyphname = "Obarred-cy";
lastChange = "2019-11-12 02:41:12 +0000";
layers = (
{
components = (
{
name = O;
}
);
layerId = "CAA188E2-8C62-414B-93AE-B576BEB044DB";
paths = (
{
closed = 1;
nodes = (
"655 339 LINE",
"655 381 LINE",
"65 381 LINE",
"65 339 LINE"
);
}
);
width = 726;
},
{
components = (
{
name = O;
}
);
layerId = "0DA27741-1AFD-43F2-A947-40AFBF8D6498";
paths = (
{
closed = 1;
nodes = (
"625 292 LINE",
"625 428 LINE",
"145 428 LINE",
"145 292 LINE"
);
}
);
width = 778;
},
{
associatedMasterId = "0DA27741-1AFD-43F2-A947-40AFBF8D6498";
layerId = "A2873047-0ED6-4C67-9B4D-3870B51BD5C6";
width = 600;
},
{
associatedMasterId = "0DA27741-1AFD-43F2-A947-40AFBF8D6498";
layerId = "55314CA7-5524-4D70-B802-98D4FAE25636";
width = 738;
},
{
associatedMasterId = "0DA27741-1AFD-43F2-A947-40AFBF8D6498";
layerId = "13A3DD5D-E91B-4961-8595-F8141D3FA442";
width = 622;
}
);
leftKerningGroup = O;
rightKerningGroup = O;
unicode = 04E8;
},
{
glyphname = "De-cy.loclBGR";
lastChange = "2019-11-12 02:41:12 +0000";
layers = (
{
components = (
{
name = V;
transform = "{1, 0, 0, -1, 57, 720}";
}
);
layerId = "0DA27741-1AFD-43F2-A947-40AFBF8D6498";
paths = (
{
closed = 1;
nodes = (
"167 -90 LINE",
"167 0 LINE",
"599 0 LINE",
"599 -90 LINE",
"727 -90 LINE",
"727 127 LINE",
"40 127 LINE",
"40 -90 LINE"
);
}
);
width = 777;
},
{
components = (
{
name = V;
transform = "{1, 0, 0, -1, 64, 720}";
}
);
layerId = "CAA188E2-8C62-414B-93AE-B576BEB044DB";
paths = (
{
closed = 1;
nodes = (
"72 -80 LINE",
"72 0 LINE",
"634 0 LINE",
"634 -80 LINE",
"676 -80 LINE",
"676 42 LINE",
"30 42 LINE",
"30 -80 LINE"
);
}
);
width = 706;
}
);
leftKerningGroup = de;
rightKerningGroup = N;
},
{
glyphname = "be-cy";
lastChange = "2019-11-12 02:41:12 +0000";
layers = (
{
layerId = "CAA188E2-8C62-414B-93AE-B576BEB044DB";
paths = (
{
closed = 1;
nodes = (
"440 -15 OFFCURVE",
"533 89 OFFCURVE",
"533 251 CURVE SMOOTH",
"533 413 OFFCURVE",
"441 519 OFFCURVE",
"294 519 CURVE SMOOTH",
"203 519 OFFCURVE",
"127 479 OFFCURVE",
"86 412 CURVE",
"94 514 OFFCURVE",
"124 590 OFFCURVE",
"182 625 CURVE SMOOTH",
"255 672 OFFCURVE",
"403 683 OFFCURVE",
"474 695 CURVE",
"468 735 LINE",
"386 718 OFFCURVE",
"241 716 OFFCURVE",
"162 664 CURVE SMOOTH",
"117 636 OFFCURVE",
"84 588 OFFCURVE",
"69 537 CURVE SMOOTH",
"55 489 OFFCURVE",
"40 373 OFFCURVE",
"40 288 CURVE SMOOTH",
"40 77 OFFCURVE",
"132 -15 OFFCURVE",
"281 -15 CURVE SMOOTH"
);
},
{
closed = 1;
nodes = (
"155 27 OFFCURVE",
"85 114 OFFCURVE",
"85 252 CURVE SMOOTH",
"85 391 OFFCURVE",
"157 477 OFFCURVE",
"285 477 CURVE SMOOTH",
"413 477 OFFCURVE",
"488 391 OFFCURVE",
"488 252 CURVE SMOOTH",
"488 116 OFFCURVE",
"418 27 OFFCURVE",
"286 27 CURVE SMOOTH"
);
}
);
width = 573;
},
{
layerId = "0DA27741-1AFD-43F2-A947-40AFBF8D6498";
paths = (
{
closed = 1;
nodes = (
"453 -18 OFFCURVE",
"564 90 OFFCURVE",
"564 249 CURVE SMOOTH",
"564 389 OFFCURVE",
"478 503 OFFCURVE",
"335 503 CURVE SMOOTH",
"277 503 OFFCURVE",
"212 484 OFFCURVE",
"171 424 CURVE",
"175 476 OFFCURVE",
"199 532 OFFCURVE",
"245 561 CURVE SMOOTH",
"313 604 OFFCURVE",
"443 595 OFFCURVE",
"519 615 CURVE",
"507 735 LINE",
"381 711 OFFCURVE",
"262 715 OFFCURVE",
"173 652 CURVE SMOOTH",
"135 625 OFFCURVE",
"99 586 OFFCURVE",
"78 540 CURVE SMOOTH",
"45 466 OFFCURVE",
"35 336 OFFCURVE",
"43 251 CURVE SMOOTH",
"58 93 OFFCURVE",
"142 -14 OFFCURVE",
"298 -16 CURVE SMOOTH"
);
},
{
closed = 1;
nodes = (
"229 111 OFFCURVE",
"187 158 OFFCURVE",
"187 243 CURVE SMOOTH",
"187 325 OFFCURVE",
"227 375 OFFCURVE",
"304 375 CURVE SMOOTH",
"379 375 OFFCURVE",
"421 325 OFFCURVE",
"421 243 CURVE SMOOTH",
"421 163 OFFCURVE",
"381 111 OFFCURVE",
"304 111 CURVE SMOOTH"
);
}
);
width = 604;
},
{
associatedMasterId = "0DA27741-1AFD-43F2-A947-40AFBF8D6498";
layerId = "A2873047-0ED6-4C67-9B4D-3870B51BD5C6";
width = 600;
},
{
associatedMasterId = "0DA27741-1AFD-43F2-A947-40AFBF8D6498";
layerId = "55314CA7-5524-4D70-B802-98D4FAE25636";
width = 585;
},
{
associatedMasterId = "0DA27741-1AFD-43F2-A947-40AFBF8D6498";
layerId = "13A3DD5D-E91B-4961-8595-F8141D3FA442";
width = 598;
}
);
leftKerningGroup = "be-cy";
leftMetricsKey = o;
rightKerningGroup = o;
rightMetricsKey = b;
unicode = 0431;
},
{
glyphname = "ve-cy";
lastChange = "2019-11-12 02:41:12 +0000";
layers = (
{
layerId = "CAA188E2-8C62-414B-93AE-B576BEB044DB";
paths = (
{
closed = 1;
nodes = (
"312 0 LINE SMOOTH",
"335 0 OFFCURVE",
"368 0 OFFCURVE",
"396 8 CURVE SMOOTH",
"450 23 OFFCURVE",
"490 68 OFFCURVE",
"490 143 CURVE SMOOTH",
"490 191 OFFCURVE",
"474 233 OFFCURVE",
"435 259 CURVE SMOOTH",
"423 267 OFFCURVE",
"411 273 OFFCURVE",
"402 275 CURVE",
"413 281 OFFCURVE",
"426 291 OFFCURVE",
"435 303 CURVE SMOOTH",
"454 327 OFFCURVE",
"464 358 OFFCURVE",
"464 392 CURVE SMOOTH",
"464 456 OFFCURVE",
"428 514 OFFCURVE",
"362 531 CURVE SMOOTH",
"330 539 OFFCURVE",
"291 540 OFFCURVE",
"277 540 CURVE SMOOTH",
"70 540 LINE",
"70 0 LINE"
);
},
{
closed = 1;
nodes = (
"112 249 LINE",
"296 249 LINE SMOOTH",
"311 249 OFFCURVE",
"330 249 OFFCURVE",
"346 247 CURVE SMOOTH",
"407 240 OFFCURVE",
"445 200 OFFCURVE",
"445 143 CURVE SMOOTH",
"445 99 OFFCURVE",
"423 59 OFFCURVE",
"373 48 CURVE SMOOTH",
"354 44 OFFCURVE",
"326 42 OFFCURVE",
"312 42 CURVE SMOOTH",
"112 42 LINE"
);
},
{
closed = 1;
nodes = (
"112 498 LINE",
"282 498 LINE SMOOTH",
"290 498 OFFCURVE",
"326 498 OFFCURVE",
"355 488 CURVE SMOOTH",
"396 474 OFFCURVE",
"419 438 OFFCURVE",
"419 393 CURVE SMOOTH",
"419 352 OFFCURVE",
"399 313 OFFCURVE",
"356 299 CURVE SMOOTH",
"338 293 OFFCURVE",
"312 291 OFFCURVE",
"297 291 CURVE SMOOTH",
"112 291 LINE"
);
}
);
width = 520;
},
{
layerId = "0DA27741-1AFD-43F2-A947-40AFBF8D6498";
paths = (
{
closed = 1;
nodes = (
"339 0 LINE SMOOTH",
"374 0 OFFCURVE",
"408 3 OFFCURVE",
"432 10 CURVE SMOOTH",
"502 30 OFFCURVE",
"537 83 OFFCURVE",
"537 155 CURVE SMOOTH",
"537 222 OFFCURVE",
"506 253 OFFCURVE",
"470 269 CURVE SMOOTH",
"459 274 OFFCURVE",
"445 278 OFFCURVE",
"432 280 CURVE",
"444 283 OFFCURVE",
"456 289 OFFCURVE",
"468 298 CURVE SMOOTH",
"493 317 OFFCURVE",
"510 345 OFFCURVE",
"510 393 CURVE SMOOTH",
"510 474 OFFCURVE",
"461 514 OFFCURVE",
"412 529 CURVE SMOOTH",
"392 535 OFFCURVE",
"362 540 OFFCURVE",
"322 540 CURVE SMOOTH",
"69 540 LINE",
"69 0 LINE"
);
},
{
closed = 1;
nodes = (
"207 217 LINE",
"329 217 LINE SMOOTH",
"338 217 OFFCURVE",
"355 217 OFFCURVE",
"368 211 CURVE SMOOTH",
"383 204 OFFCURVE",
"398 189 OFFCURVE",
"398 161 CURVE SMOOTH",
"398 141 OFFCURVE",
"390 119 OFFCURVE",
"371 111 CURVE SMOOTH",
"359 106 OFFCURVE",
"343 103 OFFCURVE",
"329 103 CURVE SMOOTH",
"207 103 LINE"
);
},
{
closed = 1;
nodes = (
"207 435 LINE",
"290 435 LINE SMOOTH",
"296 435 OFFCURVE",
"324 435 OFFCURVE",
"339 430 CURVE SMOOTH",
"361 423 OFFCURVE",
"370 402 OFFCURVE",
"370 379 CURVE SMOOTH",
"370 357 OFFCURVE",
"361 338 OFFCURVE",
"344 330 CURVE SMOOTH",
"331 324 OFFCURVE",
"311 322 OFFCURVE",
"290 322 CURVE SMOOTH",
"207 322 LINE"
);
}
);
width = 567;
},
{
associatedMasterId = "0DA27741-1AFD-43F2-A947-40AFBF8D6498";
layerId = "A2873047-0ED6-4C67-9B4D-3870B51BD5C6";
width = 600;
},
{
associatedMasterId = "0DA27741-1AFD-43F2-A947-40AFBF8D6498";
layerId = "55314CA7-5524-4D70-B802-98D4FAE25636";
width = 535;
},
{
associatedMasterId = "0DA27741-1AFD-43F2-A947-40AFBF8D6498";
layerId = "13A3DD5D-E91B-4961-8595-F8141D3FA442";
width = 590;
}
);
leftKerningGroup = n;
leftMetricsKey = n;
rightKerningGroup = ve;
unicode = 0432;
},
{
glyphname = "ge-cy";
lastChange = "2019-11-12 02:41:12 +0000";
layers = (
{
layerId = "CAA188E2-8C62-414B-93AE-B576BEB044DB";
paths = (
{
closed = 1;
nodes = (
"112 0 LINE",
"112 498 LINE",
"430 498 LINE",
"430 540 LINE",
"70 540 LINE",
"70 0 LINE"
);
}
);
width = 455;
},
{
layerId = "0DA27741-1AFD-43F2-A947-40AFBF8D6498";
paths = (
{
closed = 1;
nodes = (
"206 0 LINE",
"206 413 LINE",
"460 413 LINE",
"460 540 LINE",
"70 540 LINE",
"70 0 LINE"
);
}
);
width = 485;
},
{
associatedMasterId = "0DA27741-1AFD-43F2-A947-40AFBF8D6498";
layerId = "A2873047-0ED6-4C67-9B4D-3870B51BD5C6";
width = 600;
},
{
associatedMasterId = "0DA27741-1AFD-43F2-A947-40AFBF8D6498";
layerId = "55314CA7-5524-4D70-B802-98D4FAE25636";
width = 419;
},
{
associatedMasterId = "0DA27741-1AFD-43F2-A947-40AFBF8D6498";
layerId = "13A3DD5D-E91B-4961-8595-F8141D3FA442";
width = 571;
}
);
leftKerningGroup = r;
leftMetricsKey = r;
rightKerningGroup = r;
rightMetricsKey = r;
unicode = 0433;
},
{
glyphname = "gheupturn-cy";
lastChange = "2019-11-12 02:41:12 +0000";
layers = (
{
layerId = "CAA188E2-8C62-414B-93AE-B576BEB044DB";
paths = (
{
closed = 1;
nodes = (
"112 0 LINE",
"112 498 LINE",
"430 498 LINE",
"430 620 LINE",
"388 620 LINE",
"388 540 LINE",
"70 540 LINE",
"70 0 LINE"
);
}
);
width = 455;
},
{
layerId = "0DA27741-1AFD-43F2-A947-40AFBF8D6498";
paths = (
{
closed = 1;
nodes = (
"206 0 LINE",
"206 413 LINE",
"460 413 LINE",
"460 660 LINE",
"324 660 LINE",
"324 540 LINE",
"70 540 LINE",
"70 0 LINE"
);
}
);
width = 485;
},
{
associatedMasterId = "0DA27741-1AFD-43F2-A947-40AFBF8D6498";
layerId = "A2873047-0ED6-4C67-9B4D-3870B51BD5C6";
width = 600;
},
{
associatedMasterId = "0DA27741-1AFD-43F2-A947-40AFBF8D6498";
layerId = "55314CA7-5524-4D70-B802-98D4FAE25636";
width = 394;
},
{
associatedMasterId = "0DA27741-1AFD-43F2-A947-40AFBF8D6498";
layerId = "13A3DD5D-E91B-4961-8595-F8141D3FA442";
width = 567;
}
);
leftKerningGroup = r;
rightKerningGroup = r;
unicode = 0491;
},
{
glyphname = "de-cy";
lastChange = "2019-11-12 02:41:12 +0000";
layers = (
{
layerId = "CAA188E2-8C62-414B-93AE-B576BEB044DB";
paths = (
{
closed = 1;
nodes = (
"72 -120 LINE",
"72 0 LINE",
"503 0 LINE",
"503 -120 LINE",
"545 -120 LINE",
"545 42 LINE",
"495 42 LINE",
"495 540 LINE",
"168 540 LINE",
"159 337 OFFCURVE",
"152 244 OFFCURVE",
"133 161 CURVE SMOOTH",
"115 81 OFFCURVE",
"93 42 OFFCURVE",
"30 42 CURVE",
"30 -120 LINE"
);
},
{
closed = 1;
nodes = (
"151 61 OFFCURVE",
"161 95 OFFCURVE",
"173 137 CURVE SMOOTH",
"196 218 OFFCURVE",
"205 382 OFFCURVE",
"211 498 CURVE",
"453 498 LINE",
"453 42 LINE",
"130 42 LINE"
);
}
);
width = 575;
},
{
layerId = "0DA27741-1AFD-43F2-A947-40AFBF8D6498";
paths = (
{
closed = 1;
nodes = (
"158 -120 LINE",
"158 0 LINE",
"487 0 LINE",
"487 -120 LINE",
"615 -120 LINE",
"615 105 LINE",
"560 105 LINE",
"560 540 LINE",
"143 540 LINE",
"138 435 OFFCURVE",
"132 331 OFFCURVE",
"120 242 CURVE SMOOTH",
"106 139 OFFCURVE",
"87 105 OFFCURVE",
"30 105 CURVE",
"30 -120 LINE"
);
},
{
closed = 1;
nodes = (
"231 133 OFFCURVE",
"239 166 OFFCURVE",
"245 225 CURVE SMOOTH",
"251 286 OFFCURVE",
"257 362 OFFCURVE",
"261 435 CURVE",
"424 435 LINE",
"424 105 LINE",
"204 105 LINE"
);
}
);
width = 645;
},
{
associatedMasterId = "0DA27741-1AFD-43F2-A947-40AFBF8D6498";
layerId = "A2873047-0ED6-4C67-9B4D-3870B51BD5C6";
width = 600;
},
{
associatedMasterId = "0DA27741-1AFD-43F2-A947-40AFBF8D6498";
layerId = "55314CA7-5524-4D70-B802-98D4FAE25636";
width = 563;
},
{
associatedMasterId = "0DA27741-1AFD-43F2-A947-40AFBF8D6498";
layerId = "13A3DD5D-E91B-4961-8595-F8141D3FA442";
width = 594;
}
);
leftKerningGroup = o;
rightKerningGroup = v;
unicode = 0434;
},
{
glyphname = "zhe-cy";
lastChange = "2019-11-12 02:41:12 +0000";
layers = (
{
layerId = "CAA188E2-8C62-414B-93AE-B576BEB044DB";
paths = (
{
closed = 1;
nodes = (
"60 0 LINE",
"306 270 LINE",
"306 0 LINE",
"348 0 LINE",
"348 270 LINE",
"594 0 LINE",
"644 0 LINE",
"396 270 LINE",
"636 540 LINE",
"586 540 LINE",
"348 270 LINE",
"348 540 LINE",
"306 540 LINE",
"306 270 LINE",
"68 540 LINE",
"18 540 LINE",
"258 270 LINE",
"10 0 LINE"
);
}
);
width = 654;
},
{
layerId = "0DA27741-1AFD-43F2-A947-40AFBF8D6498";
paths = (
{
closed = 1;
nodes = (
"167 0 LINE",
"334 260 LINE",
"334 0 LINE",
"454 0 LINE",
"454 260 LINE",
"621 0 LINE",
"778 0 LINE",
"590 270 LINE",
"765 540 LINE",
"617 540 LINE",
"454 280 LINE",
"454 540 LINE",
"334 540 LINE",
"334 280 LINE",
"171 540 LINE",
"23 540 LINE",
"198 270 LINE",
"10 0 LINE"
);
}
);
width = 788;
},
{
associatedMasterId = "0DA27741-1AFD-43F2-A947-40AFBF8D6498";
layerId = "A2873047-0ED6-4C67-9B4D-3870B51BD5C6";
width = 600;
},
{
associatedMasterId = "0DA27741-1AFD-43F2-A947-40AFBF8D6498";
layerId = "55314CA7-5524-4D70-B802-98D4FAE25636";
width = 745;
},
{
associatedMasterId = "0DA27741-1AFD-43F2-A947-40AFBF8D6498";
layerId = "13A3DD5D-E91B-4961-8595-F8141D3FA442";
width = 623;
}
);
leftKerningGroup = x;
leftMetricsKey = x;
rightKerningGroup = x;
rightMetricsKey = x;
unicode = 0436;
},
{
glyphname = "ze-cy";
lastChange = "2019-11-12 02:41:12 +0000";
layers = (
{
background = {
paths = (
{
closed = 1;
nodes = (
"88 433 LINE",
"106 456 OFFCURVE",
"125 471 OFFCURVE",
"151 485 CURVE SMOOTH",
"185 503 OFFCURVE",
"215 513 OFFCURVE",
"262 513 CURVE SMOOTH",
"301 513 OFFCURVE",
"328 506 OFFCURVE",
"354 490 CURVE SMOOTH",
"391 466 OFFCURVE",
"402 435 OFFCURVE",
"402 404 CURVE SMOOTH",
"402 357 OFFCURVE",
"376 332 OFFCURVE",
"354 319 CURVE SMOOTH",
"327 303 OFFCURVE",
"297 300 OFFCURVE",
"257 300 CURVE",
"187 300 LINE",
"187 259 LINE",
"257 259 LINE",
"297 259 OFFCURVE",
"342 254 OFFCURVE",
"367 241 CURVE SMOOTH",
"397 226 OFFCURVE",
"414 191 OFFCURVE",
"414 151 CURVE SMOOTH",
"414 113 OFFCURVE",
"400 79 OFFCURVE",
"361 53 CURVE SMOOTH",
"332 34 OFFCURVE",
"303 27 OFFCURVE",
"266 27 CURVE SMOOTH",
"204 27 OFFCURVE",
"162 46 OFFCURVE",
"135 64 CURVE SMOOTH",
"100 88 OFFCURVE",
"80 120 OFFCURVE",
"65 149 CURVE",
"30 129 LINE",
"47 96 OFFCURVE",
"68 60 OFFCURVE",
"111 30 CURVE SMOOTH",
"152 1 OFFCURVE",
"202 -15 OFFCURVE",
"268 -15 CURVE SMOOTH",
"314 -15 OFFCURVE",
"345 -7 OFFCURVE",
"378 13 CURVE SMOOTH",
"429 44 OFFCURVE",
"457 91 OFFCURVE",
"457 147 CURVE SMOOTH",
"457 199 OFFCURVE",
"433 260 OFFCURVE",
"377 281 CURVE",
"419 306 OFFCURVE",
"445 346 OFFCURVE",
"445 403 CURVE SMOOTH",
"445 453 OFFCURVE",
"424 497 OFFCURVE",
"376 527 CURVE SMOOTH",
"339 550 OFFCURVE",
"306 555 OFFCURVE",
"266 555 CURVE SMOOTH",
"205 555 OFFCURVE",
"166 543 OFFCURVE",
"132 525 CURVE SMOOTH",
"98 507 OFFCURVE",
"73 484 OFFCURVE",
"55 461 CURVE"
);
}
);
};
layerId = "CAA188E2-8C62-414B-93AE-B576BEB044DB";
paths = (
{
closed = 1;
nodes = (
"377 -15 OFFCURVE",
"457 50 OFFCURVE",
"457 146 CURVE SMOOTH",
"457 208 OFFCURVE",
"424 282 OFFCURVE",
"343 288 CURVE",
"349 268 LINE",
"407 290 OFFCURVE",
"445 334 OFFCURVE",
"445 403 CURVE SMOOTH",
"445 496 OFFCURVE",
"371 555 OFFCURVE",
"267 555 CURVE SMOOTH",
"176 555 OFFCURVE",
"105 524 OFFCURVE",
"55 461 CURVE",
"88 433 LINE",
"126 481 OFFCURVE",
"190 513 OFFCURVE",
"262 513 CURVE SMOOTH",
"339 513 OFFCURVE",
"402 476 OFFCURVE",
"402 402 CURVE SMOOTH",
"402 337 OFFCURVE",
"350 300 OFFCURVE",
"266 300 CURVE SMOOTH",
"187 300 LINE",
"187 259 LINE",
"267 259 LINE SMOOTH",
"377 259 OFFCURVE",
"414 221 OFFCURVE",
"414 150 CURVE SMOOTH",
"414 73 OFFCURVE",
"352 27 OFFCURVE",
"260 27 CURVE SMOOTH",
"172 27 OFFCURVE",
"105 69 OFFCURVE",
"65 149 CURVE",
"30 129 LINE",
"75 38 OFFCURVE",
"153 -15 OFFCURVE",
"266 -15 CURVE SMOOTH"
);
}
);
width = 497;
},
{
background = {
paths = (
{
closed = 1;
nodes = (
"120 377 LINE",
"137 389 OFFCURVE",
"157 401 OFFCURVE",
"173 408 CURVE SMOOTH",
"197 419 OFFCURVE",
"231 429 OFFCURVE",
"261 429 CURVE SMOOTH",
"278 429 OFFCURVE",
"293 426 OFFCURVE",
"304 420 CURVE SMOOTH",
"322 410 OFFCURVE",
"327 395 OFFCURVE",
"327 379 CURVE SMOOTH",
"327 360 OFFCURVE",
"319 339 OFFCURVE",
"281 334 CURVE SMOOTH",
"266 332 OFFCURVE",
"242 331 OFFCURVE",
"226 331 CURVE SMOOTH",
"194 331 LINE",
"194 225 LINE",
"226 225 LINE SMOOTH",
"244 225 OFFCURVE",
"275 226 OFFCURVE",
"291 225 CURVE SMOOTH",
"321 223 OFFCURVE",
"346 205 OFFCURVE",
"346 174 CURVE SMOOTH",
"346 155 OFFCURVE",
"336 136 OFFCURVE",
"315 124 CURVE SMOOTH",
"301 116 OFFCURVE",
"286 112 OFFCURVE",
"264 112 CURVE SMOOTH",
"240 112 OFFCURVE",
"204 117 OFFCURVE",
"175 135 CURVE SMOOTH",
"162 143 OFFCURVE",
"140 161 OFFCURVE",
"127 174 CURVE",
"20 102 LINE",
"38 75 OFFCURVE",
"79 38 OFFCURVE",
"114 19 CURVE SMOOTH",
"151 -1 OFFCURVE",
"201 -15 OFFCURVE",
"261 -15 CURVE SMOOTH",
"303 -15 OFFCURVE",
"358 -8 OFFCURVE",
"406 22 CURVE SMOOTH",
"460 56 OFFCURVE",
"485 105 OFFCURVE",
"485 162 CURVE SMOOTH",
"485 214 OFFCURVE",
"464 256 OFFCURVE",
"429 284 CURVE",
"456 319 OFFCURVE",
"467 355 OFFCURVE",
"467 392 CURVE SMOOTH",
"467 446 OFFCURVE",
"443 490 OFFCURVE",
"402 517 CURVE SMOOTH",
"361 545 OFFCURVE",
"301 555 OFFCURVE",
"260 555 CURVE SMOOTH",
"217 555 OFFCURVE",
"176 544 OFFCURVE",
"141 529 CURVE SMOOTH",
"100 511 OFFCURVE",
"74 494 OFFCURVE",
"45 470 CURVE"
);
}
);
};
layerId = "0DA27741-1AFD-43F2-A947-40AFBF8D6498";
paths = (
{
closed = 1;
nodes = (
"381 -15 OFFCURVE",
"485 46 OFFCURVE",
"485 162 CURVE SMOOTH",
"485 225 OFFCURVE",
"454 274 OFFCURVE",
"404 300 CURVE",
"405 257 LINE",
"450 301 OFFCURVE",
"467 345 OFFCURVE",
"467 392 CURVE SMOOTH",
"467 501 OFFCURVE",
"369 555 OFFCURVE",
"265 555 CURVE SMOOTH",
"183 555 OFFCURVE",
"106 521 OFFCURVE",
"45 470 CURVE",
"120 377 LINE",
"160 405 OFFCURVE",
"211 429 OFFCURVE",
"259 429 CURVE SMOOTH",
"295 429 OFFCURVE",
"327 416 OFFCURVE",
"327 379 CURVE SMOOTH",
"327 334 OFFCURVE",
"282 331 OFFCURVE",
"226 331 CURVE SMOOTH",
"194 331 LINE",
"194 225 LINE",
"226 225 LINE SMOOTH",
"282 225 OFFCURVE",
"346 232 OFFCURVE",
"346 176 CURVE SMOOTH",
"346 137 OFFCURVE",
"314 112 OFFCURVE",
"260 112 CURVE SMOOTH",
"208 112 OFFCURVE",
"165 135 OFFCURVE",
"127 174 CURVE",
"20 102 LINE",
"69 29 OFFCURVE",
"160 -15 OFFCURVE",
"261 -15 CURVE SMOOTH"
);
}
);
width = 525;
},
{
associatedMasterId = "0DA27741-1AFD-43F2-A947-40AFBF8D6498";
layerId = "A2873047-0ED6-4C67-9B4D-3870B51BD5C6";
width = 600;
},
{
associatedMasterId = "0DA27741-1AFD-43F2-A947-40AFBF8D6498";
layerId = "55314CA7-5524-4D70-B802-98D4FAE25636";
width = 451;
},
{
associatedMasterId = "0DA27741-1AFD-43F2-A947-40AFBF8D6498";
layerId = "13A3DD5D-E91B-4961-8595-F8141D3FA442";
width = 576;
}
);
leftKerningGroup = x;
rightKerningGroup = "ze-cy";
rightMetricsKey = o;
unicode = 0437;
},
{
glyphname = "ii-cy";
lastChange = "2019-11-12 02:41:12 +0000";
layers = (
{
layerId = "CAA188E2-8C62-414B-93AE-B576BEB044DB";
paths = (
{
closed = 1;
nodes = (
"434 540 LINE",
"112 74 LINE",
"112 540 LINE",
"70 540 LINE",
"70 0 LINE",
"109 0 LINE",
"431 466 LINE",
"431 0 LINE",
"473 0 LINE",
"473 540 LINE"
);
}
);
width = 543;
},
{
layerId = "0DA27741-1AFD-43F2-A947-40AFBF8D6498";
paths = (
{
closed = 1;
nodes = (
"444 540 LINE",
"199 221 LINE",
"199 540 LINE",
"69 540 LINE",
"69 0 LINE",
"177 0 LINE",
"421 330 LINE",
"421 0 LINE",
"551 0 LINE",
"551 540 LINE"
);
}
);
width = 621;
},
{
associatedMasterId = "0DA27741-1AFD-43F2-A947-40AFBF8D6498";
layerId = "A2873047-0ED6-4C67-9B4D-3870B51BD5C6";
width = 600;
},
{
associatedMasterId = "0DA27741-1AFD-43F2-A947-40AFBF8D6498";
layerId = "55314CA7-5524-4D70-B802-98D4FAE25636";
width = 588;
},
{
associatedMasterId = "0DA27741-1AFD-43F2-A947-40AFBF8D6498";
layerId = "13A3DD5D-E91B-4961-8595-F8141D3FA442";
width = 598;
}
);
leftKerningGroup = n;
leftMetricsKey = n;
rightKerningGroup = u;
rightMetricsKey = u;
unicode = 0438;
},
{
glyphname = "ka-cy";
lastChange = "2019-11-12 02:41:12 +0000";
layers = (
{
layerId = "CAA188E2-8C62-414B-93AE-B576BEB044DB";
paths = (
{
closed = 1;
nodes = (
"112 0 LINE",
"112 260 LINE",
"416 0 LINE",
"488 0 LINE",
"163 270 LINE",
"445 540 LINE",
"382 540 LINE",
"112 280 LINE",
"112 540 LINE",
"70 540 LINE",
"70 0 LINE"
);
}
);
width = 468;
},
{
layerId = "0DA27741-1AFD-43F2-A947-40AFBF8D6498";
paths = (
{
closed = 1;
nodes = (
"208 0 LINE",
"208 260 LINE",
"395 0 LINE",
"572 0 LINE",
"364 270 LINE",
"559 540 LINE",
"391 540 LINE",
"208 280 LINE",
"208 540 LINE",
"70 540 LINE",
"69 0 LINE"
);
}
);
width = 552;
},
{
associatedMasterId = "0DA27741-1AFD-43F2-A947-40AFBF8D6498";
layerId = "A2873047-0ED6-4C67-9B4D-3870B51BD5C6";
width = 600;
},
{
associatedMasterId = "0DA27741-1AFD-43F2-A947-40AFBF8D6498";
layerId = "55314CA7-5524-4D70-B802-98D4FAE25636";
width = 423;
},
{
associatedMasterId = "0DA27741-1AFD-43F2-A947-40AFBF8D6498";
layerId = "13A3DD5D-E91B-4961-8595-F8141D3FA442";
width = 572;
}
);
leftKerningGroup = k;
leftMetricsKey = k;
rightKerningGroup = k;
rightMetricsKey = k;
unicode = 043A;
},
{
glyphname = "el-cy";
lastChange = "2019-11-12 02:41:12 +0000";
layers = (
{
layerId = "CAA188E2-8C62-414B-93AE-B576BEB044DB";
paths = (
{
closed = 1;
nodes = (
"108 -15 OFFCURVE",
"124 16 OFFCURVE",
"138 86 CURVE SMOOTH",
"155 170 OFFCURVE",
"170 321 OFFCURVE",
"182 498 CURVE",
"444 498 LINE",
"444 0 LINE",
"486 0 LINE",
"486 540 LINE",
"139 540 LINE",
"127 346 OFFCURVE",
"117 225 OFFCURVE",
"100 122 CURVE SMOOTH",
"91 66 OFFCURVE",
"81 29 OFFCURVE",
"20 40 CURVE",
"20 0 LINE"
);
}
);
width = 556;
},
{
layerId = "0DA27741-1AFD-43F2-A947-40AFBF8D6498";
paths = (
{
closed = 1;
nodes = (
"150 -30 OFFCURVE",
"202 15 OFFCURVE",
"226 142 CURVE SMOOTH",
"239 209 OFFCURVE",
"250 343 OFFCURVE",
"256 413 CURVE",
"409 413 LINE",
"409 0 LINE",
"545 0 LINE",
"545 540 LINE",
"137 540 LINE",
"130 413 OFFCURVE",
"120 276 OFFCURVE",
"104 190 CURVE SMOOTH",
"92 125 OFFCURVE",
"79 102 OFFCURVE",
"20 113 CURVE",
"20 0 LINE"
);
}
);
width = 615;
},
{
associatedMasterId = "0DA27741-1AFD-43F2-A947-40AFBF8D6498";
layerId = "A2873047-0ED6-4C67-9B4D-3870B51BD5C6";
width = 600;
},
{
associatedMasterId = "0DA27741-1AFD-43F2-A947-40AFBF8D6498";
layerId = "55314CA7-5524-4D70-B802-98D4FAE25636";
width = 550;
},
{
associatedMasterId = "0DA27741-1AFD-43F2-A947-40AFBF8D6498";
layerId = "13A3DD5D-E91B-4961-8595-F8141D3FA442";
width = 592;
}
);
leftKerningGroup = o;
rightKerningGroup = u;
rightMetricsKey = u;
unicode = 043B;
},
{
glyphname = "em-cy";
lastChange = "2019-11-12 02:41:12 +0000";
layers = (
{
layerId = "CAA188E2-8C62-414B-93AE-B576BEB044DB";
paths = (
{
closed = 1;
nodes = (
"112 0 LINE",
"112 440 LINE",
"312 0 LINE",
"358 0 LINE",
"558 440 LINE",
"558 0 LINE",
"600 0 LINE",
"600 540 LINE",
"557 540 LINE",
"335 52 LINE",
"113 540 LINE",
"70 540 LINE",
"70 0 LINE"
);
}
);
width = 670;
},
{
layerId = "0DA27741-1AFD-43F2-A947-40AFBF8D6498";
paths = (
{
closed = 1;
nodes = (
"199 0 LINE",
"199 269 LINE",
"343 0 LINE",
"391 0 LINE",
"535 269 LINE",
"535 0 LINE",
"665 0 LINE",
"665 540 LINE",
"555 540 LINE",
"367 190 LINE",
"179 540 LINE",
"69 540 LINE",
"69 0 LINE"
);
}
);
width = 735;
},
{
associatedMasterId = "0DA27741-1AFD-43F2-A947-40AFBF8D6498";
layerId = "A2873047-0ED6-4C67-9B4D-3870B51BD5C6";
width = 600;
},
{
associatedMasterId = "0DA27741-1AFD-43F2-A947-40AFBF8D6498";
layerId = "55314CA7-5524-4D70-B802-98D4FAE25636";
width = 691;
},
{
associatedMasterId = "0DA27741-1AFD-43F2-A947-40AFBF8D6498";
layerId = "13A3DD5D-E91B-4961-8595-F8141D3FA442";
width = 615;
}
);
leftKerningGroup = m;
leftMetricsKey = m;
rightKerningGroup = u;
rightMetricsKey = u;
unicode = 043C;
},
{
glyphname = "en-cy";
lastChange = "2019-11-12 02:41:12 +0000";
layers = (
{
layerId = "CAA188E2-8C62-414B-93AE-B576BEB044DB";
paths = (
{
closed = 1;
nodes = (
"112 0 LINE",
"112 249 LINE",
"458 249 LINE",
"458 0 LINE",
"500 0 LINE",
"500 540 LINE",
"458 540 LINE",
"458 291 LINE",
"112 291 LINE",
"112 540 LINE",
"70 540 LINE",
"70 0 LINE"
);
}
);
width = 570;
},
{
layerId = "0DA27741-1AFD-43F2-A947-40AFBF8D6498";
paths = (
{
closed = 1;
nodes = (
"205 0 LINE",
"205 207 LINE",
"427 207 LINE",
"427 0 LINE",
"563 0 LINE",
"563 540 LINE",
"427 540 LINE",
"427 334 LINE",
"205 334 LINE",
"205 540 LINE",
"69 540 LINE",
"69 0 LINE"
);
}
);
width = 633;
},
{
associatedMasterId = "0DA27741-1AFD-43F2-A947-40AFBF8D6498";
layerId = "A2873047-0ED6-4C67-9B4D-3870B51BD5C6";
width = 600;
},
{
associatedMasterId = "0DA27741-1AFD-43F2-A947-40AFBF8D6498";
layerId = "55314CA7-5524-4D70-B802-98D4FAE25636";
width = 588;
},
{
associatedMasterId = "0DA27741-1AFD-43F2-A947-40AFBF8D6498";
layerId = "13A3DD5D-E91B-4961-8595-F8141D3FA442";
width = 598;
}
);
leftKerningGroup = n;
leftMetricsKey = m;
rightKerningGroup = u;
rightMetricsKey = u;
unicode = 043D;
},
{
glyphname = "pe-cy";
lastChange = "2019-11-12 02:41:12 +0000";
layers = (
{
layerId = "CAA188E2-8C62-414B-93AE-B576BEB044DB";
paths = (
{
closed = 1;
nodes = (
"112 0 LINE",
"112 498 LINE",
"431 498 LINE",
"431 0 LINE",
"473 0 LINE",
"473 540 LINE",
"70 540 LINE",
"70 0 LINE"
);
}
);
width = 543;
},
{
layerId = "0DA27741-1AFD-43F2-A947-40AFBF8D6498";
paths = (
{
closed = 1;
nodes = (
"205 0 LINE",
"205 413 LINE",
"415 413 LINE",
"415 0 LINE",
"551 0 LINE",
"551 540 LINE",
"69 540 LINE",
"69 0 LINE"
);
}
);
width = 621;
},
{
associatedMasterId = "0DA27741-1AFD-43F2-A947-40AFBF8D6498";
layerId = "A2873047-0ED6-4C67-9B4D-3870B51BD5C6";
width = 600;
},
{
associatedMasterId = "0DA27741-1AFD-43F2-A947-40AFBF8D6498";
layerId = "55314CA7-5524-4D70-B802-98D4FAE25636";
width = 588;
},
{
associatedMasterId = "0DA27741-1AFD-43F2-A947-40AFBF8D6498";
layerId = "13A3DD5D-E91B-4961-8595-F8141D3FA442";
width = 598;
}
);
leftKerningGroup = n;
leftMetricsKey = n;
rightKerningGroup = u;
rightMetricsKey = u;
unicode = 043F;
},
{
glyphname = "te-cy";
lastChange = "2019-11-12 02:41:12 +0000";
layers = (
{
layerId = "CAA188E2-8C62-414B-93AE-B576BEB044DB";
paths = (
{
closed = 1;
nodes = (
"266 0 LINE",
"266 498 LINE",
"465 498 LINE",
"465 540 LINE",
"25 540 LINE",
"25 498 LINE",
"224 498 LINE",
"224 0 LINE"
);
}
);
width = 490;
},
{
layerId = "0DA27741-1AFD-43F2-A947-40AFBF8D6498";
paths = (
{
closed = 1;
nodes = (
"338 0 LINE",
"338 420 LINE",
"515 420 LINE",
"515 540 LINE",
"25 540 LINE",
"25 420 LINE",
"202 420 LINE",
"202 0 LINE"
);
}
);
width = 540;
},
{
associatedMasterId = "0DA27741-1AFD-43F2-A947-40AFBF8D6498";
layerId = "A2873047-0ED6-4C67-9B4D-3870B51BD5C6";
width = 600;
},
{
associatedMasterId = "0DA27741-1AFD-43F2-A947-40AFBF8D6498";
layerId = "55314CA7-5524-4D70-B802-98D4FAE25636";
width = 438;
},
{
associatedMasterId = "0DA27741-1AFD-43F2-A947-40AFBF8D6498";
layerId = "13A3DD5D-E91B-4961-8595-F8141D3FA442";
width = 574;
}
);
leftKerningGroup = te;
rightKerningGroup = r;
rightMetricsKey = r;
unicode = 0442;
},
